<svg version="1.1" id="Layer_1" xmlns="http://www.w3.org/2000/svg" xmlns:xlink="http://www.w3.org/1999/xlink" x="0px" y="0px"
	 viewBox="0 0 879.7 536.4" style="enable-background:new 0 0 879.7 536.4;" xml:space="preserve">
<style type="text/css">
	.st0{fill:none;stroke:#F0E049;stroke-width:2;stroke-miterlimit:10;}
	.st1{fill:none;stroke:#F0E049;stroke-width:2;stroke-miterlimit:10;stroke-dasharray:8.0272,8.0272;}
	.st2{fill:none;stroke:#F0E049;stroke-width:2;stroke-miterlimit:10;stroke-dasharray:8.0932,8.0932;}
	.st3{fill:none;stroke:#F0E049;stroke-width:2;stroke-miterlimit:10;stroke-dasharray:8.1443,8.1443;}
	.st4{fill:none;stroke:#F0E049;stroke-width:2;stroke-miterlimit:10;stroke-dasharray:7.6101,7.6101;}
	.st5{fill:none;stroke:#F0E049;stroke-width:2.2013;stroke-miterlimit:10;}
	.st6{fill:none;stroke:#F0E049;stroke-width:2.2013;stroke-miterlimit:10;stroke-dasharray:5.5566,5.5566;}
	.st7{fill:none;stroke:#F0E049;stroke-width:2;stroke-miterlimit:10;stroke-dasharray:7.7693,7.7693;}
	.st8{fill:#BABD56;}
	.st9{opacity:0.3;fill:#FFDEC4;}
	.st10{opacity:0.3;fill:none;stroke:#BABD56;stroke-width:2;stroke-miterlimit:10;}
	.st11{fill:none;}
	.st12{fill:#7F7773;}
	.st13{font-family:'Gotham-Book';}
	.st14{font-size:20px;}
	.st15{font-size:14px;}
	.st16{font-size:12px;}
</style>
<g>
	<g>
		<g>
			<line class="st0" x1="392.5" y1="126.8" x2="389" y2="124.8"/>
			<line class="st1" x1="382" y1="121" x2="216.7" y2="30.1"/>
			<line class="st0" x1="213.2" y1="28.2" x2="209.6" y2="26.3"/>
		</g>
	</g>
	<g>
		<g>
			<line class="st0" x1="541.2" y1="147.9" x2="544.3" y2="145.3"/>
			<line class="st2" x1="550.5" y1="140.1" x2="659.7" y2="49.9"/>
			<line class="st0" x1="662.8" y1="47.3" x2="665.9" y2="44.8"/>
		</g>
	</g>
	<g>
		<g>
			<line class="st0" x1="326.2" y1="282.9" x2="322.7" y2="281.1"/>
			<line class="st3" x1="315.4" y1="277.5" x2="216.9" y2="228.6"/>
			<line class="st0" x1="213.2" y1="226.8" x2="209.6" y2="225"/>
		</g>
	</g>
	<g>
		<g>
			<line class="st0" x1="665.9" y1="208.8" x2="661.9" y2="208.8"/>
			<line class="st4" x1="654.3" y1="208.9" x2="521.1" y2="210.8"/>
			<line class="st0" x1="517.3" y1="210.9" x2="513.3" y2="211"/>
		</g>
	</g>
	<g>
		<g>
			<line class="st5" x1="416.1" y1="359.5" x2="413.5" y2="360.1"/>
			<line class="st6" x1="408" y1="361.2" x2="215.1" y2="402.2"/>
			<line class="st5" x1="212.3" y1="402.7" x2="209.6" y2="403.3"/>
		</g>
	</g>
	<g>
		<g>
			<line class="st0" x1="489" y1="334.2" x2="492.8" y2="335.4"/>
			<line class="st7" x1="500.1" y1="337.9" x2="658.4" y2="391.4"/>
			<line class="st0" x1="662.1" y1="392.6" x2="665.9" y2="393.9"/>
		</g>
	</g>
	<g>
		<g>
			<g>
				<path class="st8" d="M411.4,44.8c1.6,0.4,2,1.3,2,2.3c0.1,4,0.3,8,0.4,11.9c0,0.4,0,0.8-0.1,1.1c-1.8,13.4-3.4,26.8-5.3,40.2
					c-1.1,7.8-1.9,15.6-1.3,23.4c0.4,5,1.1,9.9,1.9,14.8c1,5.8,2.3,11.6,3.5,17.4c0.3,1.5,0.7,2.9,1.2,4.7c1.9-3.2,3.7-6,5.2-8.9
					c1.7-3.2,3.8-5.9,6.3-8.4c0.9-0.9,1.8-1.8,2.4-2.8c2.6-4.5,6.7-7.4,10.7-10.4c2.1-1.6,4.4-3.1,6.5-4.8c1.6-1.3,3.1-2.8,4.6-4.1
					c1.4-1.3,2.9-2.5,4.3-3.8c3.3-3,6.5-6.1,9.7-9.2c1-0.9,1.4-2.1,1.6-3.5c0.6-5,1.3-9.9,2.1-14.8c0.3-2.1,0.9-4.2,1.5-6.3
					c0.4-1.5,1.8-2.5,3-2.4c1.3,0.2,2.5,1.4,2.6,2.8c0.2,4.1,0.3,8.3-1.1,12.3c-1.4,4-2.7,8-5,11.6c-0.5,0.8-0.6,1.9-0.7,2.9
					c-0.4,3.2-0.5,6.4-1.1,9.6c-0.4,2.1-1.4,4.1-2.1,6.1c-2.4,6.3-4.6,12.7-7.1,19c-2,4.9-4,9.8-7,14.2c-1.6,2.4-2.6,5.2-3,8.2
					c-0.3,1.9-0.5,3.8-1.7,5.4c-0.2,0.3-0.2,0.7-0.4,1.4c1-0.1,1.7-0.1,2.4-0.3c4.1-1,8.2-1.9,12.3-3.1c2.2-0.6,4.4-1.5,6.5-2.4
					c5.1-2.2,10.3-4.4,15.3-6.9c4.1-2,7.4-5.3,10.6-8.4c1.7-1.7,3.3-3.4,5-5.1c1.3-1.3,1.3-1.6,0-3c-1.2-1.3-2.4-2.6-3.6-3.9
					c-4.6-5.1-5.8-11.1-4.6-17.6c0.6-3,2.7-5.1,5.3-6.6c0.7-0.4,1.7-0.2,2.8-0.2c0.5-1.1,0.8-2.7,1.7-3.8c1-1.2,2.5-2,3.8-2.8
					c1.3-0.7,2.6-1.8,4.4-0.9c0,1.8,0,3.6,0,5.7c1.5-1.8,2.6-3.4,4.1-4.7c1.4-1.2,2.4-3.4,5-2.8c0.1,0.3,0.2,0.6,0.2,0.9
					c-0.7,2.4-0.2,4.8,0.4,7.1c0.7,2.6,0.6,5.2,0.3,7.8c-0.2,1.5-0.2,3-0.4,4.9c1.1-0.6,1.8-0.8,2.4-1.2c2.8-1.8,5.7-3.6,8-6.1
					c0.5-0.5,1.3-0.8,2-1.2c0.3,0.5,0.5,0.7,0.5,0.9c-0.1,2.3-0.2,4.6-0.3,6.9c-0.2,5.8-0.5,11.5-2.7,17c-0.3,0.9-0.2,1.9-0.3,3.1
					c1.1,0.1,1.9,0.3,2.7,0.3c3.4,0,6.5,1.1,9.2,3.2c1.8,1.4,3.8,2.2,6.2,2.1c0.7,0,1.5-0.3,1.7,0.6c0.2,0.9-0.5,1.2-1.2,1.5
					c-3.7,1.7-7.3,3.7-11.6,3.5c-1.1,0-2.3,0.3-3.4,0.5c-0.3,1.8,0.8,2.6,2.1,3.2c1.2,0.6,2.6,1,3.8,1.7c2.6,1.6,2.8,3,1,5.5
					c-0.4,0.5-0.8,1-1,1.6c-0.4,1-0.3,2,0.8,2.6c0.6,0.4,1.2,0.7,1.8,1.1c1.4,0.9,2.3,1.9,1.9,3.8c-0.2,1.4,0.3,2,2,2.2
					c2.3,0.4,4.6,0.6,6.8,1c0.8,0.1,1.7,0.3,2.4,0.7c1.9,0.9,2.7,2.9,1.8,4.8c-0.6,1.3-1.3,2.5-2.1,3.6c-1.3,1.8-2.8,3.4-4.2,5.2
					c-1.2,1.5-1.1,2.4,0.5,3.4c1.2,0.7,2.5,1.2,3.8,1.6c2.4,0.7,4.3,1.9,5.9,3.8c1.7,2,3.5,3.9,5.3,5.8c1.9,1.9,2.4,4.2,2,6.8
					c-0.4,2-0.8,4.1-1.3,6.1c-0.6,2.4-3.3,4.4-6.1,4.5c-3.2,0.1-6.4,0.1-9.6,0.2c-0.7,0-1.4,0.2-2.1,0.3c-0.6-0.4-1.2-0.8-1.8-1.3
					c-1.1,1-0.8,2-0.2,2.8c1.1,1.3,1.9,2.9,4,3.2c0.9,0.2,1.7,1.3,2.6,1.9c2.8,1.7,5.1,4,7.2,6.4c1,1.1,2,1.4,3.5,1.5
					c2.3,0.1,4.6,1,6.9,1.6c0.1,0,0.3,0.1,0.4,0.2c2.9,1.3,3.4,2.4,2.2,5.4c-0.4,1-1,1.9-1.6,2.8c-0.7,1.1-1.4,2.2-2,3.4
					c-0.6,1.1-0.6,2.3-0.1,3.5c1.7,4.3-0.6,8.8-5.1,9.8c-1.5,0.3-2.4,0.8-2.6,2.4c-0.1,0.5-0.5,1-0.9,1.3c-1.4,1.3-1.8,3.2-2.3,4.9
					c-0.2,0.7,0.1,1.7,0.3,2.5c0.4,1.4,0.7,2.7-0.6,3.8c-1.3,1.1-2.7,2-4.6,1.4c-1.8-0.6-2.3-0.2-2.4,1.7c0,5.3-1.4,5.4-6.5,6.6
					c-2,0.5-4.4-0.3-6.6-0.5c-0.8-0.1-1.5-0.4-2.2-0.5c-1.6-0.3-2.1-0.7-2.4-2.3c-0.4-2.3-0.5-4.6,0.2-6.8c0.1-0.2,0.1-0.4,0.2-0.7
					c0.6-2.4,0.2-3.2-2.4-3.1c-2.6,0.1-5.2,0.4-7.7,1.2c-3.4,1-6.9,1.3-10.3,1c-2.8-0.2-5.5-1.5-7.3-3.9c-1.6-2-2.3-4.4-2.3-7.1
					c0-2.9-0.2-5.8-0.3-8.7c0-1-0.4-1.6-1.4-1.8c-2.3-0.5-4.6-1.1-7-1.4c-1.6-0.3-2.1,0.1-2.2,1.8c-0.2,2.3-1,4.5-2.1,6.5
					c-0.1,0.2-0.3,0.4-0.3,0.6c-0.5,3.5-2.4,6.5-4.1,9.4c-0.4,0.7-0.9,1.5-1.4,2.1c-2.5,3.2-4.8,6.6-8.1,9c-1,0.7-0.9,1.6-0.3,2.6
					c1.8,3.6,3.5,7.3,5.2,11c0.3,0.6,0.5,1.3,0.6,2c1.2,8,2.6,15.9,3.6,23.9c0.8,6,1.4,12,1.8,18.1c0.3,4.1,0.1,8.3,0.1,12.4
					c0,3.9,0.1,7.8,0,11.8c-0.1,4.5-0.4,8.9-0.5,13.4c-0.1,5.3-0.1,10.6-0.1,15.9c0,0.8-0.2,1.7-0.1,2.5c0.1,1.9,0.2,3.8,0.3,5.7
					c0.1,1.5,0.8,2.6,1.8,3.7c2.5,2.9,3.9,6.4,5.3,9.9c0.2,0.4,0.1,1,0.1,1.6c-1.7,0.4-3,0.1-4.1-1.1c-2-2.3-3.9-4.7-4.8-7.8
					c-0.5-1.8-1.7-3.4-2.6-5.1c-1.8-3.5-3.7-7.1-5.5-10.6c-0.5-1-1-2.1-1.6-3c-4.4-6.6-7.8-13.7-10.8-21.1c-0.3-0.6-0.6-1.3-0.6-2
					c-0.4-4.1-1.9-7.9-3.5-11.6c-1.6-4-2.8-8.1-3.6-12.4c-1.4-7.6-3.1-15.2-4.6-22.8c0-0.2-0.1-0.3-0.1-0.4c-1.9-5-3.6-9.9-5.6-14.9
					c-2-5.1-4.3-10-6.2-15.1c-1.7-4.7-4.2-8.9-6.7-13.1c-1.4-2.4-2.8-4.8-4.7-6.8c-1.5-1.5-2.8-3.3-5.3-4.1
					c-0.2,0.8-0.5,1.5-0.4,2.2c0.3,2.6,0.6,5.2,1.2,7.7c0.8,3.1,0.8,6.2,0.4,9.4c-0.2,1.5-0.1,2.9,0.6,4.3c0.3,0.6,0.5,1.3,0.7,2
					c0.8,2.7,2.2,4.7,4.6,6.3c3.3,2.2,5.3,5.6,6.7,9.2c1.3,3.4,3.2,6.5,5.6,9.2c0.4,0.5,0.9,0.9,1.4,1.2c5.2,3.1,6.7,8.1,7.1,13.7
					c0.1,2-0.2,4.1-0.5,6.2c-0.6,4.1-3,6.8-6.8,7.9c-5,1.4-10.2,1.3-15.3,0.1c-3-0.7-5.4-2.5-7.5-4.8c-1.5-1.6-3.2-2.8-5.2-3.8
					c-1.8-0.8-3.5-1.9-5.2-3c-0.6-0.4-1.4-0.9-1.7-1.5c-1.9-3.6-4.2-7.1-4-11.6c0.1-3.3-0.5-6.6-0.6-9.9c-0.1-3.8,0-7.5-0.1-11.3
					c0-1.2-0.3-2.4-0.3-3.7c-0.2-3.2-0.5-6.4-0.5-9.6c0-5.8-0.9-11.5-2.9-16.9c-0.3-0.7-0.5-1.5-1-2.1c-3.3-5.1-6.9-10-12-13.5
					c-3-2-5.8-4.3-8.2-7.1c-0.8-0.9-2-1.6-3.2-2.2c-1-0.5-1.7,0-1.7,1.1c0.1,1.5,0.2,3.1,0.7,4.5c0.8,2.7,1.3,5.5,3,7.9
					c0.3,0.4,0.3,1.4,0,1.6c-0.4,0.4-1.3,0.7-1.8,0.5c-3-0.9-6-2-8.4-4.1c-0.3-0.2-0.6-0.5-0.9-0.7c-3.1-1.6-5.2-4.1-6.5-7.1
					c-1.1-2.7-1.8-5.5-1.9-8.5c0-1.6-0.3-3.2-0.6-4.8c-0.1-0.3-0.4-0.6-0.7-1c-1.9,0.8-2.7,2.4-3.2,4.1c-0.9,2.9-1.7,5.7-2.5,8.6
					c-0.5,1.9-1,3.7,0,5.6c0.2,0.4,0,0.9,0.1,1.4c0.2,0.7,0.3,1.5,0.7,2.1c0.8,0.9,0.8,1.8,0.2,2.7c-1,1.4-1.2,3.3-2.8,4.4
					c-0.5,0.3-0.6,1.2-0.8,1.9c-1,3.8-2,7.6-2.9,11.4c-0.7,3.2-1.4,6.5-1.7,9.7c-0.4,4.6-1.8,9-2.6,13.5c-0.4,2.3-0.8,4.5-1.1,6.8
					c-0.3,2.1-0.5,4.3-1,6.4c-0.8,3.7-1.6,7.4-2.6,11c-1.3,5-2.6,9.9-3.2,15.1c-0.5,4.5-1.1,9-1.6,13.5c-0.4,3-0.8,6.1-1.3,9.1
					c-0.1,0.6-0.4,1.2-0.6,2c-1.3-1.1-1.3-2.4-1.4-3.6c-0.4-3.2,0-6.4,0.7-9.6c0.5-2.6,0.8-5.3,1.1-8c0.5-4.1,0.9-8.2,1.5-12.3
					c0.2-1.4,0.8-2.6,1.1-4c1-3.8,2-7.6,2.9-11.4c0.5-2,1-4,1.5-6c0.4-1.5,0.5-3,0.2-4.6c-0.2-0.9,0-2,0.3-2.9
					c0.8-2.9,1.1-5.8,1.4-8.8c0.3-3.5,1.2-6.9,1.9-10.4c0.9-4.5,2-9,3-13.5c0.4-1.7,0.9-3.4,1.4-5.3c-4.5-1.3-8-3.9-11-8
					c-0.3,2.3-0.4,4.2-0.7,6c-0.6,3.3-1.4,6.6-2.1,9.9c-0.7,3.6-1.3,7.2-1.9,10.9c-0.9,5.5-1.8,11.1-2.7,16.6
					c-0.7,4.9-1.3,9.9-2.1,14.8c-0.4,2.4-0.9,4.8-1.5,7.2c-1.3,5.1-2.9,10.2-4.1,15.4c-1.5,6.8-2.5,13.7-3.8,20.6
					c-0.2,1-0.1,2.2-1.6,2.9c-0.2-1.1-0.4-1.9-0.4-2.7c0-4.4,0.8-8.7,1.9-13c0.7-2.8,1.2-5.8,1.1-8.6c-0.2-4.8,1.2-9.3,2.5-13.7
					c0.5-1.8,0.9-3.6,1.3-5.4c0.7-3,1.4-6,2.1-9c0.5-2.4,1-4.8,1.4-7.2c0.9-4.9,1.7-9.8,2.6-14.7c0.2-1.4,0.4-2.7,0.6-4.1
					c0.5-3.6,0.9-7.2,1.5-10.7c1.2-6.3,2.5-12.6,3.7-19c0.1-0.5,0.4-1,0.6-1.5c0.2-0.6,0.6-1.3,0.6-1.9c0.1-3.3,1.1-6.4,2.1-9.4
					c1.9-5.5,3.9-11,6.2-16.4c1-2.3,2.4-4.4,3.8-6.5c1.5-2.3,4.1-3.1,6.5-4.3c3.9-1.9,8-2.6,12.3-1.5c1.2,0.3,1.9-0.1,2.5-1
					c1.4-2,2.8-4,4.1-6.1c6.4-10.8,11.6-22.1,15.2-34.2c2-6.6,4.4-13,6.3-19.5c1.8-6.3,3.4-12.6,4.8-19c2.2-10.1,4.2-20.3,6.4-30.4
					c2-8.8,3.1-17.7,3.9-26.7c0.6-6.6,0.9-13.3,1.6-20c0.4-3.7,1.3-7.4,2.1-11.1C410.6,46.5,411,45.7,411.4,44.8z M502.2,258.6
					c1-1.3,1.6-2.6,2.6-3.3c2.2-1.5,4.1-3.1,5.3-5.6c0.1-0.2,0.3-0.4,0.4-0.5c1.9-2.4,1.9-2.7-0.6-4.5c-0.3-0.2-0.6-0.5-1-0.6
					c-2.4-0.9-4.7-1.8-7.1-2.6c-3.6-1.2-5.1-3.5-4.3-7.2c0.2-1.1,0.6-2.2,1-3.4c-4.3-3.1-1.7-6.8-0.9-10.4c-1-0.7-1.9-1.3-2.7-2
					c-2.6-2.4-2.6-5.4,0.3-7.4c1.6-1.1,2.8-2.5,4.1-3.8c1.5-1.6,3.3-3.1,4.5-4.9c2.2-3.2,5-5.6,7.9-7.9c2.2-1.8,4.1-3.8,6-6.2
					c-1.9-0.9-3.8-1.5-5.4-2.5c-2.4-1.5-5-2.2-7.7-3.1c-2.2-0.8-4.2-1.8-6.3-2.8c-2.5-1.2-3.9-3.4-4.5-6.1c-0.3-1.3-0.6-2.7-0.5-4.1
					c0.2-5.1,1.4-10,4.8-14.1c0.4-0.5,0.9-1.1,1.2-1.7c0.6-1,0.7-2.1,0.1-3.4c-0.6,0.4-1,0.7-1.4,1.1c-1.6,1.5-3,3.1-4.6,4.5
					c-2.7,2.3-4.9,5.1-8.2,6.7c-5.5,2.7-11,5.4-16.6,7.9c-3.8,1.8-7.8,3-11.9,4.2c-4.9,1.4-9.7,3.4-14.6,5.1
					c-0.8,0.3-1.6,0.5-2.4,0.7c-1,0.3-2.1,0.6-3,1c-1.9,0.9-3.8,2-5.7,2.9c-1.9,0.9-3.8,1.8-5.7,2.4c-1.2,0.4-1.8,0.9-2.1,2.1
					c-0.3,1.4-0.6,2.7-0.9,4c-1.1,3.9-2.1,7.9-3.2,11.8c-1,3.5-2.2,7-3.3,10.5c-0.4,1.4-1,2.8-1.2,4.2c-0.5,4.3-0.9,8.5-1.3,12.8
					c-0.2,2.5-0.5,5-0.7,7.6c-0.1,1.1-0.2,2.3,0.3,3.2c1.4,2.6,2.8,5.3,5.3,7.1c0.9-1.3,1.7-1.9,3.8-2.2c3.6-0.5,7.2-0.7,10.8-1
					c4.3-0.4,8.5,0.9,12.8,1.3c5.1,0.5,10.1,1.7,15.2,2.6c2.6,0.4,5.4,0.5,8,1c6.1,1,12.1,2,18.1,3.2c4.6,0.9,9.1,2.1,13.7,3.1
					C501.2,258.4,501.8,258.5,502.2,258.6z M506.4,261.5c0.5,0,0.9-0.1,1.4-0.1c1.8-0.1,3.5-0.3,5.3-0.3c1.8,0,3.4,0.7,4.6,2.3
					c1.1,1.5,2.6,2.3,4.5,2.4c4.7,0.3,7.6,3.6,10.6,6.7c0.3,0.3,0.4,0.8,0.6,1.2c0.4,0.8,0.7,1.5,1.2,2.3c1.2,1.9,2.9,3.1,5.4,3
					c3.2-0.2,6,0.9,8.5,3c1.5,1.2,3.2,0.9,4.9,0.5c-0.5-4.4-0.4-4.9,1.5-8.9c0.2-0.3,0.3-0.7,0.5-1c0.7-1.6,0.7-1.9-0.8-2.8
					c-0.6-0.4-1.3-0.6-1.8-1c-0.6-0.5-1.3-1-1.5-1.6c-0.4-1.2-0.5-2.5-0.6-3.8c0-0.9,0.9-1.3,1.7-0.6c0.9,0.8,1.8,1.7,2.5,2.7
					c1.3,1.9,3.2,2.5,5.4,2.5c2.7,0,4.3-1,4.8-3.7c0.2-1.1,0.1-2.5-0.3-3.6c-0.6-1.8-0.5-3.3,0.6-4.8c0.8-1.2,1.6-2.4,2.5-3.6
					c1.6-2.4,0.9-4.4-1.7-5.3c-1-0.3-2-0.7-3.1-1c-0.7-0.2-1.4-0.4-2-0.2c-4.2,1-7.1-1.2-9.5-4.2c-1.7-2.1-3.9-3.4-6.6-3.9
					c-1-0.2-2-0.8-2.7-1.5c-1.1-0.9-2-2.1-2.9-3.2c-0.6-0.7-1.3-1.3-1.9-2c-1.7-1.8-0.7-6.1,2.1-6.5c1.7-0.2,3.4-0.2,5-0.1
					c1,0.1,1.9,0.3,2.9-0.1c0.4-0.2,1.3,0,1.7,0.3c1.7,1.4,3.8,1.3,5.7,1.1c2.2-0.2,4-1,4.7-3.6c0.5-1.7,1.5-3.3,2.3-5
					c0.2-0.4,0.2-0.9,0.3-1.3c0.2-1.4-0.6-2.5-1.5-3.5c-2-2-4-4-5.9-6.1c-1.1-1.2-2.3-2.1-3.9-2.7c-1.7-0.6-3.4-1.4-5-2.3
					c-1.7-1-2.3-2.5-1.9-4.5c0.3-1.3,0.9-2.4,1.8-3.3c1.6-1.6,3.1-3.4,4.6-5.2c1.4-1.7,0.9-3-1.3-3.5c-1.3-0.3-2.6-0.3-3.9-0.5
					c-1.7-0.3-3.3-0.5-5-0.9c-2-0.5-3-2.1-2.8-4c0.1-1.7-0.6-2.4-2-3.1c-2.4-1.2-2.8-2.3-2.1-4.9c0.4-1.5,1-2.9,1.6-4.5
					c-0.8-0.4-1.6-0.8-2.5-1.1c-2.2-0.8-4.1-2.1-5-4.4c-0.3-0.8-0.9-1.5-1.4-2.4c0.9-0.8,1.4-2.2,2.9-1.8c2.5,0.7,4.9,0.2,7.3-0.2
					c1.4-0.3,3-0.4,4.2-1.9c-1.1-0.9-2.2-1.6-3.1-2.5c-2.7-2.7-5.9-3.3-9.6-2.6c-0.9,0.2-2,0.1-2.9-0.1c-0.5-0.1-0.9-0.6-1.7-1.2
					c1.7-0.4,2.3-1.1,1.9-2.4c-0.1-0.5,0-1.1,0.1-1.6c0.8-4.5,1.7-9,2.4-13.6c0.3-1.9,0.5-3.9-0.4-6.2c-1.7,1-3.2,2-4.8,2.9
					c-2.4,1.4-4.2,3.3-5.4,5.8c-0.7,1.5-1.5,3-2.3,4.5c-0.5,0.8-1.1,1.6-1.6,2.4c-1.4-0.8-1.6-1.7-1.2-2.9c0.4-1.5,0.8-3,1.2-4.4
					c1.6-4.8,1.9-9.8,1.8-14.8c0-1.9-0.6-3.7-1-5.6c-0.2,0-0.4-0.1-0.6-0.1c-0.5,0.5-1.1,1-1.4,1.6c-0.8,1.4-1.4,2.9-2,4.4
					c-0.5,1.1-0.8,2.4-2,2.9c-1.7-1.1-1.9-1.5-2.3-3c-0.4-1.7-0.8-3.4-1.2-5.2c-2.3,0.5-3.3,2-3.5,3.9c-0.3,2.7-0.3,5.5-0.5,8.3
					c-0.1,1.7,0.6,3,1.7,4.4c1.3,1.7,2.5,3.7,3.4,5.7c0.4,1,0.3,2.4,0,3.6c-0.4,1.9-1.1,3.8-1.6,5.8c-0.3,1.1-0.2,1.9,0.6,2.9
					c1.8,2.4,3.1,5,2.7,8.1c-0.5,4.3-1.1,8.7-1.6,13c-0.3,2.2-0.6,4.4-0.7,6.6c-0.2,2.9,1,4.6,3.7,5.6c3.1,1.2,6.3,2.5,9.4,3.8
					c1.3,0.5,2.4,1.3,3.7,1.9c1.4,0.7,1.6,1.2,0.6,2.4c-0.4,0.5-1,0.9-1.5,1.4c-1,1-2.1,2.1-3,3.2c-0.4,0.5-0.7,1.2-0.6,1.9
					c0.1,1.8,0.4,3.7,0.5,5.5c0.1,1.1,0,2.3-0.3,3.4c-0.7,2.6-1.4,5.2-2.3,7.7c-0.6,1.8-0.4,3.4,0.5,5.1c0.5,1,1,2.2,1,3.2
					c-0.1,3.8-0.8,7.5-3.1,10.7c-0.8,1.1-1.5,2.3-2.1,3.6c-1.5,3.1-0.8,6.1,1.7,8.5c0.6,0.6,1.2,1.2,1.7,1.8c1.4,1.6,1.5,2,0.2,3.8
					c-1.9,2.5-3.9,4.9-5.8,7.4c-0.5,0.7-1.1,1.3-1.6,1.9C506.2,259.3,505.8,260.2,506.4,261.5z M480.9,403.6
					c1.2-1.2,1.1-2.5,1.1-3.7c0-0.9-0.1-1.8-0.1-2.8c0.2-5.1,0.5-10.1,0.7-15.2c0-1,0.2-2,0.2-3c0-4.4,0.3-8.8-0.1-13.1
					c-0.4-5-1.4-10-2.1-15c-0.6-4.6-1-9.2-1.7-13.7c-0.4-2.8-1.3-5.6-1.6-8.4c-0.6-6.4-1.8-12.8-3.3-19c-0.1-0.6-0.1-1.2-0.3-1.8
					c-0.5-2.2-0.7-4.6-1.6-6.7c-1.5-3.3-3.4-6.5-5.2-9.7c-0.2-0.4-0.4-0.8-0.7-1.2c-1.4-2.1-2.7-4.3-4.1-6.3c-1.1-1.5-2.4-3-3.8-4.3
					c-2.5-2.2-4.8-4.5-8-5.7c-4.2-1.6-8.4-3.4-12.7-4.8c-5.4-1.8-10.3-4.5-14.9-7.7c-3.2-2.3-6.1-5-7.9-8.5c-0.5-0.9-1-1.8-2-2.3
					c-0.2,0.2-0.3,0.3-0.4,0.5c-0.4,3.7-0.8,7.4-1.2,11.2c0,0.1,0.1,0.3,0.1,0.5c0.6,5.7-0.1,11.3-1.3,16.9c-1,4.7-2.2,9.4-2.9,14.2
					c-0.4,3-0.6,6.1-0.3,9.2c0.5,5,1,10.1,0.2,15.2c-0.3,2.3-0.1,4.6-0.1,6.9c0,0.7,0.3,1.3,0.5,2c0.5,1.5,1.3,3,1.5,4.5
					c0.5,3.3,2.1,5.7,5.3,6.9c0.2,0.1,0.4,0.2,0.6,0.3c3.3,1.6,6.4,3.3,9.1,5.8c1.2,1.1,2.6,2,4,2.6c4.3,1.9,8.7,1.5,13.1,0.7
					c1.5-0.3,2.3-1.2,2.7-2.5c0.5-1.9,1-3.7,1.3-5.6c0.6-4.7-0.8-8.9-4.4-12.1c-3.7-3.3-6.6-7.1-8.3-11.7c-1.6-4.1-3.9-7.6-7.4-10.3
					c-0.4-0.3-0.6-0.7-1-1c-2.1-1.9-2.9-4.7-4.3-7c-1.1-1.8-1.4-3.7-1-5.8c0.6-2.9,0-5.6-0.6-8.4c-1-4.6-1.9-9.2-2.7-13.8
					c-0.5-3.2-0.1-3.7,3-4.5c0.1,0,0.3,0,0.5,0c2.2,2.3,4.7,4.3,7.5,5.9c0.7,0.4,1.3,1.1,1.9,1.7c2.5,2.8,4.7,5.9,6.5,9.2
					c2.4,4.3,5.2,8.4,6.9,13.2c1.1,3.1,2.7,6,3.9,9.1c2.6,6.7,5,13.5,7.4,20.3c0.8,2.3,1.6,4.7,2.2,7c1.2,5.1,2,10.2,3.3,15.3
					c1.8,7.2,4,14.3,5.9,21.5c0.5,2,0.7,4.1,1.4,6.1c2.4,6.8,5.6,13.1,9.5,19.1c1.6,2.4,2.8,4.9,4.2,7.4
					C479.9,401.8,480.3,402.6,480.9,403.6z M409.7,242.5c0.3-1.2,0.6-1.8,0.6-2.5c0.4-4.8,0.7-9.6,1.2-14.4c0.3-2.9,0.5-5.9,1.5-8.6
					c2.1-5.6,3.8-11.3,5-17.2c0-0.2,0.1-0.3,0.1-0.4c1.2-4,2.2-8,2.2-12.2c0-3.5-0.2-6.9-2.4-9.9c-1.6-2.3-3.1-4.7-4.6-7.1
					c-0.4-0.6-0.7-1.2-0.9-1.8c-0.9-2.8-2-5.5-2.7-8.3c-1.3-5.4-2.4-10.9-3.6-16.4c-0.1-0.5-0.1-1.1-0.2-1.6
					c-0.8-4.9-1.7-9.8-2.6-15.1c-0.6,1.3-0.8,2.4-1.4,3.1c-1.3,1.6-1.4,3.5-1.6,5.4c-0.2,2.4-0.3,4.8-0.8,7.1
					c-1.3,5.6-2.8,11.2-4.4,16.7c-3.4,11.8-6.7,23.6-12.1,34.8c-3.6,7.4-7.7,14.5-12.7,21.1c-0.8,1-1.3,2.1-1.2,3.4
					c0.3,3.5,0.6,7,0.9,10.5c0.3,2.9,0.6,5.8,1,8.7c0.3,2.1,1.1,2.9,3,2.6c4.4-0.7,8.8-1.3,13.3-1.2c0.4,0,0.8-0.2,1.1-0.2
					c4.7-0.1,9.4-0.1,14-0.1c1.9,0,3.5,0.8,4.9,2.2C408.1,241.2,408.7,241.6,409.7,242.5z M464.4,113.8c-0.2-0.1-0.4-0.2-0.6-0.4
					c-0.9,0.7-1.8,1.3-2.7,2c-3.3,3-6.6,6-9.8,9c-3.1,3-6.7,5.4-10.1,8c-3,2.2-5.8,4.8-8.4,7.5c-1.9,1.9-3.5,4.1-5.2,6.2
					c-1.4,1.7-2.7,3.5-4,5.3c-0.8,1.2-1.4,2.6-2.2,3.8c-1.7,2.7-3.1,5.5-3.6,8.6c-0.2,1-0.5,2.1-1,3c-0.6,1-0.5,1.9,0.1,2.8
					c1.4,2.3,2.7,4.6,4.1,6.9c1.1,1.7,1.7,3.4,2,5.4c0.1,0.9,0.5,1.8,0.8,3c1.1-0.5,2-0.9,2.7-1.3c3.5-1.9,6.9-4.1,10.5-5.7
					c2.2-1,3.8-2.4,5.1-4.4c1.2-1.8,2.2-3.6,2.2-5.9c0-2.9,1.1-5.6,2.7-8c3.8-5.9,6.5-12.3,9.1-18.8c1.8-4.5,3.4-9.1,4.9-13.6
					c1.1-3.3,2-6.6,2.9-9.9C464.4,116.1,464.3,114.9,464.4,113.8z M472.2,288.5c2.1-1.6,3.7-3.4,4.9-5.5c1.6-2.9,3.2-5.9,4.9-8.8
					c1.3-2.2,2.5-4.4,2.9-6.9c0.2-1,0.6-2,1.2-2.7c1.1-1.3,1-2.8,1-4.4c0-1-0.5-1.5-1.5-1.7c-3.9-0.7-7.8-1.6-11.8-2.2
					c-7-1.2-14.2-1.6-21.1-3.2c-3.6-0.9-7.3-1-10.9-1.7c-3-0.6-6.1-0.9-9.2-0.7c-2.1,0.1-4.1,0.2-6.2,0.4c-2,0.2-3.9,0.6-5.7,2
					c0.3,0.6,0.6,1.1,0.9,1.5c3.3,4.3,7.8,7.3,12.6,9.4c6.3,2.8,12.8,5.2,19.5,7.1c1.4,0.4,2.8,1.2,4,2.1c5.2,3.9,9.7,8.7,13.4,14.1
					C471.5,287.6,471.8,288,472.2,288.5z M369.9,261.4c-0.7-4.3-1.2-8-1.8-11.8c-0.2-1.4-0.6-2.7-0.8-4.1c-0.7-4.9-1.3-9.9-2-14.8
					c-0.1-0.5-0.2-0.9-0.3-1.3c-1-3.1-2-6.1-3-9.2c-0.3-0.9-0.8-1.5-1.8-1.4c-1.2,0.1-2.5,0.2-3.6,0.5c-5.9,1.4-10,4.8-12,10.6
					c-1.6,4.7-3.5,9.3-5.2,14c-1.5,4-2.8,8.1-4.2,12.2c-0.3,0.9-0.1,1.6,0.5,2.3c1.8,2.1,3.9,3.7,6.3,5c0.7,0.4,1.4,0.6,2.1,0.8
					c1.9,0.3,2.4-0.2,2.3-2c0-1.1,0-2.3,0.3-3.4c1.2-4.9,2.3-9.9,3.7-14.7c0.4-1.6,1.4-3.1,2.3-4.5c0.8-1.3,2.3-1.6,3.7-1.3
					c1.2,0.3,1.3,1.6,1.5,2.6c0.2,0.9,0.2,1.8,0.3,2.7c0.3,2.4,0.4,4.7,0.9,7c0.4,1.7,0.9,3.5,2,4.8c1.7,2.1,3.9,3.9,6.5,5
					C368.2,260.8,368.8,261,369.9,261.4z M514,196.9c-0.9,0.7-1.5,1.2-2.1,1.7c-4.7,4.8-9.6,9.4-13.9,14.7c-1.6,2-1.4,3.3,0.9,4.5
					c2.9,1.5,3.6,3.5,2.1,6.4c-1.4,2.7-1.1,4,1.5,5.7c0.1,0,0.1,0.1,0.2,0.1c1.6,1.2,1.6,1.6,0.5,3.4c-0.7,1.1-1.2,2.3-1.6,3.5
					c-0.3,0.9,0,1.7,1,2.1c1.4,0.5,2.9,0.8,4.3,1.2c0.2-0.4,0.4-0.6,0.4-0.8c-0.1-3.2,1.4-5.9,3-8.3c1.8-2.6,2.5-5.4,3.2-8.3
					c0.4-2.1,0.3-3.9-0.8-5.7c-1.1-1.7-1.1-3.6-0.5-5.5c0.7-2,1.1-4.2,1.9-6.2C515.1,202.7,514.9,200.1,514,196.9z M533.5,279
					c-0.7-1.3-1.3-2-1.6-2.9c-0.9-2.7-2.7-4.7-5-6.4c-1.2-0.9-2.4-1.6-3.9-1.7c-2.9-0.2-5.3-1.5-7.3-3.5c-0.5-0.4-1.1-1-1.7-1
					c-1.6,0-3.2,0.3-4.8,0.5c-1,0.2-1.9,0.7-2.9,0.8c-1.2,0.1-1.6,0.6-1.8,1.7c-0.5,3-0.3,6,0.4,8.9c0.4,2,1.8,3.3,4,3.5
					c1.4,0.1,2.9,0.6,4.3,0.7c3.4,0.2,6.8,0.7,10-0.5c2.2-0.8,4.3-0.9,6.6-0.4C530.9,279,532,278.9,533.5,279z M405.3,289.2
					c0.3-0.8,0.5-1.2,0.6-1.5c1.4-5.6,3.3-11,3.5-16.8c0.1-3.1,0.4-6.1-0.1-9.2c-0.2-1.2,0-2.4,0.1-3.7c0.1-3.3,0.2-6.6,0.3-9.9
					c0-0.6-0.2-1.4-0.5-1.7c-1.8-1.4-3.6-2.8-5.6-4c-1.5-0.9-2.9-0.3-3.4,1.1c-1.4,4.1-1.9,8.3-0.2,12.4c1.3,3.1,1.9,6.4,2.8,9.7
					c0.3,1.2,0.2,2.4,0.3,3.6c0.2,3.4,0.2,6.7,0.5,10.1C404.1,282.5,404.7,285.6,405.3,289.2z M396.8,241.9
					c-1.1-0.1-2.1-0.2-3.1-0.2c-4.5,0.2-9,0.4-13.6,0.6c-1.6,0.1-3.2,0.4-4.8,0.8c-1.3,0.3-1.5,0.8-1.2,2c0.3,1.1,0.9,1.9,2,2.4
					c2.5,1.3,4.6,3,6.4,5.2c1,1.3,2.2,2.5,3.6,3.5c3,2.2,5.9,4.5,8.4,7.1c1.2,1.3,2.5,2.6,4,4.3c0-1.3,0.1-2.2,0-3.1
					c-0.2-1.2-0.5-2.4-0.9-3.6c-0.7-2.2-1.9-4.3-2.1-6.5c-0.4-3.6-0.7-7.4,0.9-10.9C396.6,243.2,396.6,242.6,396.8,241.9z
					 M500.2,143.6c0.5-2.3,1.1-4.6,1.6-6.9c0.1-0.3,0-0.6-0.1-0.9c-1-1.9-2-3.8-3.2-5.5c-0.8-1.2-1.5-2.3-1.7-3.7
					c-0.2-1.4-0.3-2.7-0.5-4.1c-0.1-0.8-0.1-1.7-1.2-2c-2.7,1.7-3.4,4.5-3.6,7.5c-0.3,6.7,3,11.5,7.9,15.5
					C499.5,143.5,499.8,143.5,500.2,143.6z M535.2,280.4c-0.2,1.7-0.3,3.2-0.5,4.7c-0.1,0.8-0.4,1.5-0.6,2.2
					c-0.6,3.1,0.6,4.6,3.6,4.1c2.1-0.3,4.2-1,6.2-1.6c1.1-0.3,1.7-1.1,1.6-2.4c-0.1-0.7,0.1-1.5,0.3-2.3c0.5-2,0.3-2.3-1.5-3.1
					c-0.8-0.3-1.6-0.6-2.4-0.6C539.6,281.6,537.4,281.4,535.2,280.4z M503.2,150.2c-0.3,1.1-0.5,1.7-0.5,2.4c-0.2,2.1-0.8,4-2.1,5.7
					c-2.8,3.6-3.9,7.8-4.2,12.2c-0.1,1.6,0.3,3.4,1,4.9c0.7,1.5,1.9,2.7,3.8,2.7c0-1.6-0.2-3.1,0-4.5c0.5-3.9,1.3-7.9,1.9-11.8
					c0.4-2.6,0.7-5.1,1.1-7.7C504.2,152.8,504.1,151.6,503.2,150.2z M470.4,87.9c-0.4,2.7-0.8,5.4-1.2,8.1
					C470.5,93.4,471,90.6,470.4,87.9z"/>
				<g>
					<path class="st8" d="M410.2,45.4c3.6,1.6,2.1,13.8,1.8,16.9c-0.4,4.5-1.2,8.9-1.7,13.4c-1.3,9.9-2.8,19.8-4,29.7
						c-2.2,18.7,1.1,37.6,6,55.6c0.2,0.8,2.4,0.1,2.7-0.4c2.3-3.8,4.4-7.8,6.8-11.5c1.9-2.8,4.4-5,6.5-7.6c2.4-3.1,4.5-6,7.6-8.5
						c3.3-2.6,6.8-4.9,10.1-7.5c6.3-5.1,13.5-10.8,18.6-17.1c2.2-2.7,2.2-6,2.6-9.4c0.6-4.1,1-8.3,2-12.4c0.3-1,0.5-2.1,0.8-3.1
						c2.4-0.1,3.3,0.9,2.9,2.8c0.7,1.9,0,5-0.3,6.9c-0.9,5.5-3.8,9.9-5.8,14.9c-1.3,3.4-1,7.2-1.6,10.7c-0.6,4-2.3,7.6-3.7,11.4
						c-3.1,8.4-6,17.2-10.2,25.2c-1.8,3.3-4.1,6.2-5.1,9.9c-0.5,1.9-0.5,3.9-1.1,5.7c-0.5,1.6-1.3,2.4-1.6,4
						c-0.1,0.6,0.9,0.5,1.2,0.5c7.4-0.8,15.1-3.1,21.9-6c7.6-3.2,15.9-6.1,22.2-11.6c2.9-2.5,5.6-5.3,8.3-8.1c2.3-2.5,3-2.8,0.7-5.4
						c-3.1-3.5-6.2-6.7-7.3-11.4c-1.1-4.6-1.2-15.1,6-15.1c0.6,0,1.7-0.3,1.9-0.9c0.5-1.7,1.4-3.2,2.6-4.5c1.1-0.8,2.3-1.5,3.4-2.2
						c2,0.7,1.2,3.8,1.2,5.4c0,0.9,2.4-0.1,2.7-0.4c1.3-1.6,2.6-4,4.4-5c1.2-0.7,0.3-1.3,1.4-0.3c0.7,0.6,0.3,2,0.4,2.7
						c0.9,5.5,1,10.4,0.6,16c-0.1,1,1.8,0.3,2.2,0.1c4.6-2.2,8-6.4,12.5-8.6c-0.7,0-1.5,0-2.2,0c0.9,1.6,0.3,3.4,0.3,5.2
						c-0.1,3.1-0.2,6.2-0.5,9.3c-0.5,4.6-2.4,8.8-2.6,13.3c0,0.2,0.4,0.3,0.5,0.3c3.7,0.5,7,0.5,10.3,2.5c1.7,1.1,3,2.3,5,2.8
						c0.5,0.1,1.2,0.1,1.7,0.3c1.4-0.4,1.7-0.1,1,0.8c-0.2,0.9-0.8,1.3-1.8,1.4c-3.4,2.1-7.7,1.8-11.5,2.5c-0.5,0.1-1.6,0.4-1.6,1
						c0.1,4.8,7.4,3.2,8,7.4c0.5,3.9-4.7,4.7-0.3,7.9c0.9,0.7,1.7,1,2.3,2.1c0.6,1.1,0,1.9,0.4,3c0.4,1.1,1.2,1.3,2.3,1.6
						c2.3,0.7,4.8,0.4,7.1,1c5.2,1.3,4.2,4.9,1.8,8.4c-1.5,2.1-6.3,5.5-4.6,8.3c0.8,1.4,3.5,1.9,4.9,2.5c2.6,1,4.4,2.3,6.2,4.3
						c1.8,2.1,4.1,4,5.6,6.3c1.8,2.9,1.1,5.9,0.4,9.1c-1.1,5.2-6.9,5.9-11.4,6c-2.2,0-4.2,0.5-6-0.8c-0.6-0.4-2.2-0.1-2.6,0.5
						c-2.5,3.7,2.9,6,5.5,7.7c2.6,1.6,4.8,3.7,7,5.9c2.5,2.6,3.3,2.4,6.7,3.1c3.2,0.6,7.9,1.4,7.7,5.4c-0.1,2.2-2.3,4.3-3.3,6.2
						c-1.4,2.6-0.7,3.3-0.3,6.1c0.8,5.2-2.4,5.7-5.9,8.1c-2.5,1.7-5.1,5.8-5.4,8.9c-0.1,0.7,0.4,2,0.3,2.6c-1.3,9.3-1.8,3.1-4.3,3.9
						c-0.8,0.2-1.7,0.1-2.4,0.7c-1.2,1.1-0.7,3-0.9,4.4c-0.8,4-5.8,3.6-9,3.2c-1.2-0.2-4.4-0.5-5.2-1.3c-1.2-1.1-0.9-5.4-0.8-6.5
						c0.2-1.3,1.6-3.9,0.5-5.2c-1.7-2-7.6-0.4-9.6,0c-4.4,0.9-9.1,2.5-13.6,0.9c-4.4-1.6-6.3-5.8-6.6-10.2c-0.2-2.5,0.8-7.5-0.5-9.6
						c-0.8-1.3-2.1-1.3-3.5-1.6c-2.4-0.5-6.8-2.3-9-0.2c-1.4,1.4-1.3,5-2.1,6.8c-1.2,2.9-1.9,5.8-3.4,8.6c-1.6,3.1-3.6,5.8-5.8,8.5
						c-1.2,1.5-2.5,2.9-4,4.3c-0.5,0.4-1.9,1.3-2.1,2.1c-0.5,2.1,1.7,4.9,2.6,6.7c1.1,2.4,2.5,4.8,3.3,7.3
						c2.2,7.2,2.6,15.6,3.6,23.1c2.3,17.1,2.6,34.3,1.8,51.6c-0.4,8.1-0.6,16.2-0.5,24.3c0,3.7,0.1,6.5,2.1,9.5
						c2.2,3.4,5,7.1,5.4,11.4c0.5-0.3,1.1-0.7,1.6-1c-4,0.6-6.6-5.9-7.7-8.6c-1.4-3.3-3.3-6.3-4.9-9.5c-3.4-6.6-7.4-12.9-10.7-19.5
						c-1.8-3.5-3.6-7.1-4.9-10.8c-1-2.8-1.3-5.9-2.2-8.7c-2.4-7.1-4.7-13.7-6.2-21.1c-1.4-6.9-2.2-14.4-4.6-21.1
						c-2.4-6.7-5-13.4-7.8-19.9c-2.9-6.8-5.4-13.5-9.2-19.9c-2.9-4.8-5.9-10.4-11.2-12.7c-0.6-0.3-2.3,0.1-2.5,0.8
						c-1,4,0.6,8,1.2,11.9c0.8,5-0.4,9,1.3,13.7c1.5,4.1,4,5.4,7,8.3c3.5,3.5,4.6,8.6,7.2,12.7c2,3.1,4.5,4.7,7,7.2
						c3.6,3.7,4.6,9.3,4.1,14.3c-0.7,7.8-4.6,11.1-12.9,11.1c-3.6,0-7.9-0.5-11-2.5c-2.2-1.4-3.7-3.6-5.7-5.1
						c-3.8-2.8-8.2-3.6-10.6-8c-2.7-4.8-2.7-9.1-3.1-14.4c-0.8-10.7-0.8-21.5-1.3-32.2c-0.4-9.8-3.7-17.9-10.3-25.1
						c-3.1-3.4-7.1-5.6-10.5-8.7c-2.1-1.9-4.6-5.9-7.9-5.9c-1.6,0-2.5,0.8-2.9,2.3c-0.5,2,0.8,5.3,1.3,7.1c0.3,1.1,0.6,2.2,1.1,3.2
						c0.7,1.7,2,2.8-0.4,2.7c-2.4-0.1-5.1-2.7-7-4c-2.7-1.9-4.5-3.2-6-6.3c-1.3-2.6-1.8-5.4-2.1-8.2c-0.2-2.3,0-4.8-1.4-6.8
						c-0.4-0.5-1.8,0-2.1,0.2c-3.8,2.3-4.3,6.5-5.5,10.6c-0.6,2.2-1.5,4.6-1.2,7c0.2,1.6,1.1,3.3,1.3,4.8c0.5,3.4-1.6,5-3.1,7.6
						c-1.2,2.1-1.5,5.5-2.1,7.8c-1.5,5.9-2.3,11.9-3.3,17.9c-2,11.7-4,23.7-7.1,35.2c-1.7,6.6-2.8,13.1-3.6,19.9
						c-0.7,6.1-0.8,13-2.8,18.9c0.9-0.2,1.8-0.5,2.7-0.7c-3.1-3.9-1.1-10-0.4-14.5c0.6-3.9,1-7.8,1.5-11.7c1-8.5,3.5-16.4,5.5-24.7
						c1.8-7.4,1.9-15.1,3.1-22.7c1.4-8.9,3.6-17.9,6-26.6c0.1-0.2-0.1-0.4-0.3-0.4c-4.5-1.5-7.9-4.1-10.9-7.8
						c-0.4-0.6-2.6,0-2.7,0.7c-0.9,8.4-3,16.6-4.4,25c-1.5,8.9-2.9,17.8-4.1,26.7c-1.2,8.8-3.6,17-5.7,25.6
						c-1.1,4.2-1.8,8.5-2.6,12.8c-0.6,3.4-0.4,11.5-3.3,13.8c0.8-0.1,1.7-0.1,2.5-0.2c-1.1-5.9,0.7-11.5,1.9-17.2
						c1.2-5.8,0.7-11.6,2.2-17.3c3-11.3,5.4-22.6,7.4-34.1c3.8-22.1,6.6-43.9,14.9-64.9c2.2-5.5,4.5-10.7,10-13.3
						c2.7-1.3,5.2-2.1,8.2-2.1c1.5,0,3.1,0.5,4.7,0.4c0.8,0,1.5-0.1,2.2-0.5c2.8-1.5,4.9-6.3,6.4-8.9c2.7-4.7,5.2-9.5,7.5-14.4
						c9.8-21.5,15.7-45.2,20.4-68.3c2.7-13.3,5.8-26.4,7.3-39.9c1.4-12.8,0.3-27.4,5.3-39.4c0.3-0.7-2.4-0.4-2.8,0.4
						c-4.5,10.9-3.7,24-4.8,35.6c-1.3,12.6-3.8,24.7-6.4,37.1c-5,24.2-10.5,48.9-20.3,71.7c-2.1,4.9-4.5,9.7-7.1,14.4
						c-1.7,3.1-3.5,6.2-5.6,9.1c-1.8,2.6-2.7,1.3-5.7,1.3c-7.1,0-14.6,3.6-18.3,9.6c-2.9,4.6-4.6,9.9-6.5,15c-0.8,2.3-1.7,4.7-2.5,7
						c-0.9,3-1,5.9-1.8,8.9c-3,11.2-4.9,22.6-6.6,34.1c-2,13.1-4.4,26.4-7.9,39.1c-0.9,3.1-1.8,6.2-2.1,9.4
						c-0.3,3.2-0.1,6.4-0.7,9.6c-1.1,6.1-3.3,12.1-2,18.4c0.2,0.8,2.1,0.1,2.5-0.2c2.6-2.1,2.4-5.7,2.9-8.9c0.9-5,1.7-10,2.8-15
						c1.9-8.8,4.9-17.3,6.1-26.3c1.3-9.3,2.7-18.5,4.2-27.7c1.5-8.9,3.8-17.8,4.7-26.8c-0.9,0.2-1.8,0.5-2.7,0.7
						c2.6,3.3,5.4,4.8,8.6,7.1c1.1,0.8,1.6,0.7,1.8,2.4c0.1,0.9-0.7,2.5-0.9,3.5c-0.7,2.9-1.3,5.8-2,8.7c-1.2,5.3-2.5,10.7-3,16.1
						c-0.3,2.7-0.9,5.3-1.3,7.9c-0.4,2.3,0,4.5-0.3,6.7c-1.4,9.9-5.4,19.2-6.5,29.2c-0.5,4.8-1.1,9.5-1.9,14.2
						c-0.7,4-1.6,9.2,1,12.6c0.5,0.6,2.5-0.1,2.7-0.7c1.8-5.3,1.9-11.4,2.6-16.9c0.8-6.4,1.5-12.8,3.1-19.1
						c2.8-11.2,4.4-22.5,6.9-33.8c2.4-10.7,2.2-23.1,8.2-32.5c0.3-0.4,1.9-3,1.8-4c-0.2-1.5-1.2-3.2-1.5-4.8
						c-0.7-4.3,0.8-15,5.1-17.6c-0.7,0.1-1.4,0.1-2.1,0.2c1.7,2.4,1.1,6.3,1.6,9.1c0.5,2.6,1.4,5.3,2.8,7.5c2.1,3.2,5.7,5.5,9,7.4
						c2.3,1.3,5.7,3.1,8.4,2.1c3.4-1.2,1.2-3.5,0.2-6c-0.4-1.1-2.7-7.2-2-7.9c1.5-1.4,3.8,2.3,4.8,3.2c4.2,3.9,9,6.6,12.7,11
						c8.4,10.2,8,20.8,8.9,33.3c0.4,5.6,0.3,11.2,0.5,16.9c0.2,5.4-0.1,11.7,2.1,16.7c1.8,4,3.2,6,6.9,8.1c2.8,1.6,5.3,2.9,7.6,5.1
						c1.5,1.4,2.9,2.9,4.8,3.9c6.3,3.2,17.5,3.2,23.4-1c5.9-4.2,5.6-14.9,2.8-20.9c-2-4.2-6.1-6-8.7-9.7c-3.2-4.5-4.2-10.2-8.1-14.1
						c-2.4-2.4-4.9-3.4-6.3-6.8c-1-2.3-1.8-4.8-1.7-7.3c0.1-3.3,0.2-6.2-0.4-9.5c-0.6-3.1-1.6-6.6-0.8-9.7c-0.8,0.3-1.7,0.5-2.5,0.8
						c6.9,3,11.1,12.3,14.3,18.6c3.5,7,6.2,14.6,9,21.8c2.7,7.1,5.1,13.8,6.6,21.3c1.6,7.7,2.7,15.7,5,23.3c1.2,3.7,2.9,7.2,4,10.9
						c0.9,3,1.2,5.9,2.4,8.8c3.1,7.3,7.2,13.9,11,20.9c3.6,6.6,6.6,13.5,10.1,20.1c2,3.7,4.4,7,8.9,6.3c0.5-0.1,1.7-0.4,1.6-1
						c-0.6-6.5-6.8-10.8-7.3-17.1c-0.7-7.9-0.1-16.2,0.2-24.1c0.5-15.5,1.1-31-0.5-46.5c-0.8-7.3-1.9-14.6-3-21.9
						c-0.5-3.3-0.7-7-1.7-10.2c-1.1-3.6-3.9-6.8-4.8-10.4c-0.3-0.5-0.5-1-0.8-1.6c0.2-1.8,1-3.1,2.4-4.1c0.7-0.8,1.5-1.6,2.2-2.4
						c1.9-2.2,3.6-4.5,5.1-6.9c1.6-2.5,2.9-5.1,3.8-7.9c0.5-1.6,0.8-2.4,1.4-3.9c0.4-1,0.9-5.5,1.3-5.9c0.3-0.3,4.8,0.8,5.2,1.1
						c3.3,1.5,2.7,2.5,2.8,5.4c0.1,3.2-0.2,6.7,1,9.7c2,4.8,6.4,6.9,11.3,6.9c3.3,0.1,17-3.9,18-1.4c0.7,1.7-1.1,5.5-0.9,7.7
						c0.2,2.5,0.5,3.5,2.9,4.3c5,1.6,16,2.8,17.7-4.1c0.1-0.5,0.2-3,0.2-3.1c-0.1,0.1,1.6,0.2,2,0.2c1.3-0.1,2.5-0.6,3.6-1.3
						c1.5-1,2.2-1.9,2.2-3.7c0-2.2-1-2.5-0.3-5c0.5-1.6,1.5-2.9,2.5-4.2c2.6-3.5,7.8-3.8,8.6-9.1c0.1-0.9,0-1.8-0.1-2.7
						c-0.5-2.9-0.9-3.9,0.9-6.7c1.1-1.8,3.1-4.2,2.9-6.4c-0.4-5.5-10.5-4.4-13.7-6.7c-2.8-2-5-5.1-8-7.1c-2-1.4-7.6-3.5-5.5-6.7
						c-0.9,0.2-1.7,0.4-2.6,0.5c1.2,0.9,1.6,1.1,2.9,1.4c1.6,0.3,3.9-0.2,5.6-0.3c2,0,4,0.1,6-0.1c3.2-0.3,6.3-1.8,7.6-4.8
						c2.4-5.4,2.3-10.6-1.7-14.9c-2-2.2-3.9-4.9-6.3-6.6c-1.9-1.4-4.9-1.5-6.6-2.9c-5.1-4.3,6.3-9.5,5.2-14.8
						c-0.4-1.8-2-2.7-3.6-3.2c-2.2-0.7-8.6-0.1-9.8-2.3c-0.4-0.8,0.2-2.2-0.3-3.2c-0.4-0.8-1.1-1.2-1.7-1.7
						c-1.2-0.9-2.6-1.5-2.5-3.4c0.1-0.8,1.4-1.9,1.7-2.7c2.1-5.9-7.5-4.7-7.6-9.5c-0.5,0.3-1.1,0.7-1.6,1c4-0.8,7.7-0.7,11.6-2.3
						c2.1-0.8,5.5-1.6,6.2-4c0-0.1,0-0.2-0.1-0.3c-0.9-0.9-0.9-0.6-2-0.8c-1.7-0.5-3.3-0.4-4.9-1.3c-1-0.5-1.9-1.3-2.8-1.8
						c-1.1-0.7-2.3-1.2-3.6-1.6c-0.9-0.3-1.8-0.4-2.8-0.5c-2.5-0.3-2.3,0.6-3-1.5c-0.7-2.2,0.9-5,1.4-7.2c0.5-2.5,0.7-5.1,0.9-7.7
						c0.2-3.3,1.6-8.6,0-11.4c-0.4-0.7-1.7-0.2-2.2,0c-4.5,2.2-7.8,6.3-12.5,8.6c0.7,0,1.5,0.1,2.2,0.1c0.2-3.2,0.8-6.5,0.5-9.8
						c-0.1-1.7-0.6-3.2-0.9-4.8c-0.3-2.1,0.2-4.1-0.2-6.2c0-0.2-0.4-0.3-0.5-0.3c-5.2-0.4-8.2,4.6-11.2,8.2c0.9-0.1,1.8-0.3,2.7-0.4
						c0-1.9,0-3.8,0-5.7c0-0.2-0.4-0.3-0.5-0.3c-5.5-1.4-10.5,3.8-12.3,8.5c0.6-0.3,1.3-0.6,1.9-0.9c-5.6,0-9.5,3.9-10.3,9.4
						c-0.4,3.1-0.2,6.4,0.8,9.4c1.4,4.1,4.3,6.1,6.5,9.5c1.9,3.1,1.1,3.9-1.3,6.4c-2,2-3.9,4-6,5.9c-3.9,3.5-8.3,5.6-13.1,7.8
						c-9.2,4.1-18.9,8.3-29,9.3c0.4,0.2,0.8,0.3,1.2,0.5c0.6-2.6,1.7-4.8,2.3-7.5c0.7-3.9,2.7-6.9,4.7-10.3
						c3.7-6.5,6.3-13.8,8.9-20.9c2.7-7.4,5.6-14.3,6.4-22.3c0.8-7.6,6-13.9,7-21.7c0.4-3.5,1.7-11-3.5-11.3c-4.4-0.2-5.3,4.6-6,7.9
						c-0.7,3.6-1.2,7.2-1.6,10.8c-0.3,2-0.2,4.4-0.9,6.2c-0.9,2.6-3.3,4.5-5.3,6.4c-5.5,5.2-11,10.6-17.1,15.1
						c-3.1,2.3-6.3,4.5-9.2,7c-2.5,2.2-4.2,4.8-6.3,7.4c-2.1,2.6-4.6,4.8-6.5,7.6c-2.4,3.7-4.5,7.7-6.8,11.5
						c0.9-0.1,1.8-0.3,2.7-0.4c-2.6-9.6-4.5-19.6-5.9-29.4c-1.5-11.3-0.7-22.3,0.9-33.5c1.4-10.2,2.7-20.4,4.1-30.6
						c0.6-4.5,0.9-8.5,0.8-13c-0.1-3.4,1.1-8-2.5-9.6C411.8,43.8,409.2,44.9,410.2,45.4z"/>
					<path class="st8" d="M503.5,258.6c1.8-2.6,11.2-9,9.5-12.9c-1.1-2.4-6.2-3.4-8.2-4.2c-6-2.2-6.7-4.9-4.8-10.8
						c0-0.1,0-0.2-0.1-0.3c-3.6-3.1-1.9-6.3-0.8-10.1c0-0.1,0-0.2-0.1-0.3c-4.8-3.4-5.8-5.7-0.9-10c2.1-1.9,4.3-4.1,6.2-6.2
						c2.4-2.8,4.6-5.6,7.5-8c2.8-2.3,5.1-4.5,7.4-7.4c0.2-0.2,0.1-0.5-0.2-0.6c-4.1-1.8-8-3.8-12.2-5.3c-5.2-1.8-10.2-3.7-11.4-9.6
						c-0.9-4.3,0-9.5,1.9-13.5c1.5-3.2,5-5.3,3.8-9.1c-0.3-0.8-2.1-0.1-2.5,0.2c-5,3.6-8.5,9-13.9,12.1c-6.7,3.8-14.1,7.2-21.3,9.8
						c-7.3,2.6-14.9,5.2-22.3,7.5c-5.6,1.7-10.8,4.4-16.1,6.8c-3.9,1.8-3.7,6.4-4.7,10.2c-1.8,6.8-4.1,13.5-6.1,20.3
						c-1.9,6.4-2,13.7-2.5,20.3c-0.5,5.6,1,9.6,5.5,13.4c0.6,0.5,2.1,0,2.6-0.5c2.1-2.5,7.5-2,10.4-2.3c4.5-0.4,8.6,0.2,13,0.8
						c6.7,1,13.5,2.4,20.2,3.2c12.9,1.5,25.3,5,38.1,7.1c0.8,0.1,3.2-1.1,1.7-1.4c-8.1-1.4-16.1-3.6-24.2-5
						c-8.2-1.4-16.5-2.4-24.7-3.9c-7.5-1.4-15.2-3-22.9-2.3c-4.7,0.4-11-0.3-14.3,3.7c0.9-0.2,1.7-0.4,2.6-0.5
						c-2.3-2-4.9-4.9-5.5-7.9c-0.6-3.1,0.4-7.4,0.7-10.5c0.6-6.5,1.3-12.5,3.3-18.7c2-6.5,4-13.1,5.7-19.7c0.8-3,0.8-4.4,3.6-6
						c2.3-1.3,5-2.3,7.4-3.5c12-6,25.6-8.2,37.8-13.9c5-2.4,10.5-4.4,15.2-7.4c4.8-3.1,8.2-8.2,12.9-11.5c-0.8,0.1-1.7,0.1-2.5,0.2
						c1.1,3.3-2.4,6-3.7,8.8c-1.5,3.1-2.3,6.8-2.3,10.2c0,5.5,2,9,6.8,11.4c3.5,1.8,7.4,2.6,10.9,4.3c1.1,0.6,3,1.4,4,2.1
						c2.5,1.7,1.3,2.4-0.7,4.4c-2.4,2.3-5.1,4.2-7.4,6.6c-2.7,2.8-4.9,5.9-7.6,8.6c-2.9,2.9-8.7,5.9-5.4,10.7
						c1.5,2.2,3.1,2.2,2.8,5.1c-0.1,1.2-0.8,2.3-0.8,3.6c0,1,0.2,1.6,0.5,2.5c0.3,0.4,0.5,0.8,0.8,1.2c0.7,1.4,0.8,2.8,0.1,4.1
						c-0.2,6.1,2.8,6.9,8.1,8.9c3.8,1.4,7.3,2.5,4.4,6.5c-2.4,3.2-5.5,5.4-7.8,8.7C500.3,259.5,503,259.2,503.5,258.6z"/>
					<path class="st8" d="M506.1,262.2c2.7-0.3,4.2-0.4,6.9,0.1c2.6,0.6,2.4,1.1,4.2,2.5c1.3,1,2.5,1.3,4,1.6c6.4,1.5,8.5,5,11.9,10
						c2.8,4.2,7.2,2.4,11.3,4.3c3.6,1.7,4.7,3.1,8.8,2.2c0.4-0.1,1.3-0.4,1.2-1c-0.4-4.2,0.9-6,2-9.7c1-3.4-1.7-2.5-3.6-4.9
						c-0.3-0.3-1.4-2.9-1-3.3c0,0-3.1-2.2,0.7,0.7c1,0.8,1.5,2.1,2.8,2.8c1.9,1.1,4.5,1.1,6.6,0.6c1.6-0.4,2.8-1.1,3.6-2.6
						c0.7-1.3,0.8-2.8,0.6-4.2c-0.4-3.4-0.6-4.3,1.4-7.4c1.2-1.9,3.1-4.1,1.6-6.3c-1.4-1.9-4.7-2.3-6.9-2.7c-2.6-0.6-5.6,0-7.9-1.9
						c-1.4-1.2-2.3-2.8-3.8-3.9c-1.1-0.9-2.3-1.3-3.6-1.8c-3.1-1.3-4.6-2.5-6.8-4.8c-1.1-1.2-3.8-3.5-2.5-5.5
						c1.4-2.2,5.5-1.9,7.6-1.9c3.4,0,5.8,1.7,9.4,1.1c1.7-0.3,3.4-0.8,4.6-2.1c1.5-1.7,3.7-6.4,3.8-8.6c0.2-3.2-3.2-5.4-5.2-7.4
						c-1.5-1.5-2.8-3.3-4.6-4.4c-1.6-1-3.5-1.4-5.2-2.3c-10.7-5.8,11.6-15.6,0-17.6c-2.4-0.4-5.2-0.3-7.5-1.5
						c-3.2-1.8-1.4-2.9-2.9-5.4c-0.8-1.3-2.6-1.4-3.4-2.6c-1.5-2.1,0.6-5.9,1.3-7.9c0.1-0.2-0.1-0.3-0.3-0.4
						c-3.1-1.4-6.1-2.4-7.5-5.9c-0.2-0.4-0.9-1.7-0.6-2.1c0.2-0.2,3.9-0.1,4.1-0.1c3.2-0.2,7-0.7,9.4-2.9c0.2-0.1,0.5-0.5,0.2-0.7
						c-2.3-1.7-4.3-4-7.1-5c-3-1-7.9,0.5-10.2-1.4c-0.4,0.4-0.8,0.7-1.1,1.1c3.8-1.2,3-2.9,3.6-6.7c0.8-5.9,3.3-12.2,1.6-18
						c-0.2-0.7-1.9-0.2-2.2,0c-2.8,1.8-6.1,3.3-8.4,5.7c-2.7,2.9-3.9,7-6.2,10.2c0.9-0.2,1.7-0.4,2.6-0.5
						c-2.8-2.3,1.3-11.3,1.6-14.3c0.5-4.5,0.3-8.7-0.7-13.2c0-0.1-0.1-0.2-0.3-0.3c-5.2-1.4-5.3,7-8.3,9.2c0.8-0.1,1.6-0.2,2.4-0.4
						c-2.6-1.8-2.7-5.1-3.4-8c-0.2-0.7-1.6-0.2-1.9-0.1c-1.9,0.6-3.4,1.5-4.2,3.5c-1,2.6-1.3,8-0.7,10.7c0.8,3.7,4.8,6.1,5.2,10
						c0.3,3.2-2.4,6.2-2,9.2c0.2,1.7,1.6,2.9,2.3,4.4c1.3,2.5,1.2,4.5,0.9,7.3c-0.5,4.8-1.3,9.6-1.8,14.5c-0.3,2.3-0.9,5.1,0.6,7.1
						c1.9,2.7,6.5,3.5,9.4,4.7c1.7,0.7,4.1,1.3,5.6,2.6c3,2.7,0.9,3.2-0.9,5c-2.1,2.2-2.8,3.1-2.5,6.2c0.3,3,0.4,5.5-0.3,8.4
						c-0.5,2.1-1.4,4.1-1.9,6.2c-0.9,4.1,1.7,7.3,1.2,11.5c-0.8,6.3-8.6,12.2-4.3,18.6c1.5,2.3,4,2.8,3,6.4
						c-0.5,1.9-3.4,4.4-4.6,5.9c-1.7,2.2-4,3.9-3.4,6.9c0.2,0.8,3,0.1,2.8-0.7c-1.3-6,11-10,8-15.9c-1-1.9-3-2.7-3.9-4.8
						c-1.3-2.9-0.1-5.5,1.4-8c1.7-2.9,3.2-5.3,3.7-8.8c0.2-1.1,0.4-2.3,0.3-3.4c-0.2-2.1-1.6-3.7-1.8-5.7c-0.3-3.9,2.5-7.9,2.9-11.8
						c0.1-1.3-0.1-2.5-0.1-3.7c-0.2-3.5-0.4-4.7,2.1-7.3c1-1,3.8-2.8,3-4.6c-0.7-1.5-5.2-2.9-6.5-3.5c-3.1-1.4-9.6-2.6-11-6
						c-1.3-3.1,0.5-9.3,0.9-12.7c0.4-3.5,1.5-7.4,1.2-11c-0.3-3.5-3.5-6-3.4-9.4c0.1-2.8,2.2-5.4,1.9-8.4c-0.4-3.5-3.6-5.7-4.9-8.9
						c-1.2-3-1.1-12.4,2.8-13.6c-0.6,0-1.3-0.1-1.9-0.1c0.8,3.2,0.8,6.3,3.6,8.3c0.7,0.5,1.8,0.1,2.4-0.4c3-2.2,3-6.4,5.7-9
						c-0.8,0.2-1.6,0.4-2.4,0.6c1.7,0.4,1.3,7.8,1.2,9.1c-0.1,3.1-0.5,6.1-1.2,9.1c-0.8,3-3.4,7.1-0.4,9.4c0.6,0.5,2.1,0.1,2.6-0.5
						c1.6-2.2,2.7-4.7,4-7.1c2.2-4,5.9-5.9,9.6-8.2c-0.7,0-1.5,0-2.2,0c1.2,4.3,0.1,8.6-0.7,12.8c-0.2,1-0.8,9.6-2,10
						c-0.2,0.1-1.7,0.6-1.1,1.1c1.8,1.5,3,1.5,5.4,1.5c2.9,0.1,5.1-0.3,7.6,1.4c0.7,0.6,1.5,1.2,2.2,1.9c1.3,0.4,1.4,1,0.3,1.6
						c-1.7,2.8-6.6,0.2-9.4,1c-1.4,0.4-2.2,1.5-3.1,2.4c-0.2,0.2-0.1,0.3,0,0.5c1.2,1.8,1.8,3.8,3.4,5.2c1.1,0.9,2.7,1.1,3.8,2
						c2.6,2.2-1.8,6.1,0.4,8.9c1.1,1.3,2.9,1.3,3.6,3.1c0.4,1.1-0.1,2.2,0.5,3.3c1.8,3.2,6.3,2.1,9.2,3.2c1,0.4,3.6,1.5,3.5,3.2
						c0,0.8-2.2,2.6-2.8,3.3c-1.1,1.2-2.3,2.2-3,3.6c-1.9,3.6-0.2,6,3.1,7.6c2.1,1.1,4.4,1.7,6.3,3.2c1.6,1.3,2.9,3.1,4.4,4.6
						c1.9,2,4.3,3.8,3.5,6.9c-0.8,3-3.5,7.1-6.6,7.7c-2,0.4-3.2-1.2-4.9-1.5c-0.9-0.2-3.3,0.2-3.8,0.2c-2.5,0-5.6-0.5-7.8,1
						c-5.7,3.7,1,10.9,4.8,12.9c1.6,0.9,3.5,1,5.1,2c2,1.2,3,3,4.8,4.5c2.3,2,4.3,2.3,7.2,2.5c2.9,0.2,8.6,0.5,7.8,4.7
						c-0.3,1.5-2.3,3.4-3.1,4.8c-0.9,1.7-1,2.5-0.7,4.3c0.1,1,0.4,1.9,0.4,2.9c0,2-1.4,3.9-3.8,3.8c-3.8-0.1-4.4-5.6-8-5.5
						c-2.2,0.1-2.5,1.5-2.4,3.3c0.1,1.9,0.6,3.1,2.1,4.3c1.7,1.3,3.1,1,2.5,3.5c-0.4,1.7-1.7,3.1-2.1,4.9c-0.4,1.7-0.2,3.5,0,5.2
						c0.4-0.3,0.8-0.6,1.2-1c-2.4,0.5-6.4-2.7-9-3.3c-1.8-0.4-4,0.1-5.7-0.6c-2.5-1.1-3-3.9-4.4-5.9c-1.2-1.8-3.4-3.6-5.2-4.8
						c-1.4-0.9-2.8-1.4-4.3-1.9c-1.5-0.5-3.3-0.5-4.7-1.5c-0.9-0.7-1.4-1.7-2.4-2.3c-3.1-2-7.4-0.9-10.8-0.6
						C505.3,260.9,504.2,262.3,506.1,262.2z"/>
					<path class="st8" d="M482.1,403.6c1.8-2.6,1.1-5.4,1.2-8.5c0.1-4.4,0.4-8.9,0.6-13.3c0.4-7.3,0.4-14.6-0.6-21.9
						c-2.4-17.2-4.9-34.3-8.1-51.4c-1.5-8.1-5.2-14.8-9.6-21.7c-3.3-5.2-7.8-10.4-13.5-13.1c-7.4-3.5-15.5-5.2-22.7-9.2
						c-3.5-2-7.2-4.3-9.9-7.3c-2-2.2-3-5.4-5.5-7c-0.7-0.4-2.1-0.1-2.6,0.5c-1.4,1.8-1,5.8-1.3,8.1c-0.2,2.3-0.3,4-0.2,6.3
						c0.5,8.1-1.8,15.8-3.4,23.7c-1.3,6.4-1.4,12-0.9,18.5c0.5,6.5-1.6,14,0.2,20.3c1.2,4,2,8.8,5.9,11.1c2.3,1.4,4.8,2.3,7.1,3.7
						c2.3,1.5,4.1,3.5,6.5,4.8c4.2,2.4,9.1,2.5,13.8,1.8c3.9-0.6,5.4-1.7,6.4-5.6c1.3-4.8,1.4-9.7-1.6-13.9
						c-1.6-2.1-3.8-3.7-5.5-5.7c-2.8-3.3-4.1-7-6-10.7c-2.4-4.8-7.1-7.4-9.7-12c-1.1-2-2.6-4.3-3-6.5c-0.5-3.2,0.4-6.5-0.2-9.7
						c-0.6-3.4-1.5-6.8-2.1-10.3c-0.3-1.7-2.8-7.8,1.1-7.6c0.6,0,3.1,2.6,3.7,3c1,0.7,3,1.8,3.7,2.5c2.6,2.3,4.7,5.6,6.5,8.5
						c7,11.5,11.8,24,16.4,36.6c5.4,15,8.3,30.6,12.6,45.9c2.1,7.4,3.6,14.4,7,21.3c3.3,6.6,7.4,12.7,10.9,19.2
						c0.5,0.8,3.1-0.1,2.8-0.7c-6-11.4-13.3-21.6-16.2-34.3c-1.4-6.3-3.5-12.5-5.2-18.7c-1.9-7.1-2.9-14.5-5-21.5
						c-3.8-12.9-8.7-26.4-14.8-38.4c-2.2-4.4-4.8-8.8-7.6-12.9c-1.5-2.2-3.2-4.6-5.4-6.3c-0.9-0.8-2.4-1.5-3.2-2.1
						c-1.4-1-3.3-3.6-4.8-4.2c-1.4-0.5-3.5,0-4.7,0.8c-3.2,2.1-1.2,6.6-0.6,9.7c0.6,2.9,1.2,5.7,1.8,8.6c0.7,3.4,0.2,6.4,0.4,9.8
						c0.3,4.5,3.3,9.5,6.6,12.6c2.2,2,4,3.6,5.5,6.2c1.4,2.4,2.2,5.1,3.6,7.6c2.8,5.1,8.9,8.5,10.6,14.1c0.9,2.9,0.7,6.6-0.4,9.5
						c-1.9,5.3-8.3,4.9-13,3.2c-3.3-1.2-5.5-3.8-8.4-5.6c-2-1.3-4.1-2.3-6.2-3.4c-5.3-2.8-7.2-10.9-7.1-16.6
						c0.1-4.4,0.7-8.5,0.5-12.9c-0.3-4.3-0.9-8.5-0.5-12.9c0.8-7.3,3.1-14.3,4.1-21.6c0.4-3.2,0.5-6.4,0.4-9.6c0-2,0-3.9,0.2-5.9
						c0.2-1.8-0.1-6.2,1.1-7.7c-0.9,0.2-1.7,0.4-2.6,0.5c2.2,1.4,3.6,5,5.5,7c2.1,2.2,4.7,4,7.3,5.7c6.1,3.9,12.8,6,19.5,8.6
						c7.6,2.9,13.5,6.8,18.2,13.6c4.4,6.4,8.9,13.7,10.3,21.4c2.8,15.8,5.1,31.7,7.5,47.6c1.3,8.2,1.9,16.1,1.6,24.4
						c-0.1,4.1-0.4,8.2-0.6,12.3c-0.1,3.1,0.6,9.3-1.2,11.9C478.9,404.6,481.7,404.2,482.1,403.6z"/>
					<path class="st8" d="M411.1,242.3c1.4-4.8,1.2-10.1,1.7-15.1c0.5-5.6,1.7-10.2,3.5-15.5c2.8-8.5,6.3-18.9,5.5-27.9
						c-0.4-4.8-3.1-8-5.5-11.9c-2.6-4.1-4.1-8.5-5.2-13.2c-2.6-10.6-4.4-21.4-6.2-32.2c-0.2-0.9-2.6,0-2.8,0.6
						c-0.9,2.5-2.4,4.4-2.8,7.1c-0.6,3.5-0.6,6.9-1.4,10.4c-1.7,7.4-3.9,14.7-6,21.9c-4.4,14.8-9.6,29.1-18.1,42.1
						c-1.5,2.4-4.2,5-5.3,7.6c-0.9,2.3-0.4,4.6-0.2,7c0.3,3.5,0.6,7,1,10.5c0.2,1.9-0.1,5.2,1.5,6.6c0.9,0.8,1.9,0.6,3,0.6
						c4-0.2,8.1-1.1,12.2-1.2c3.3-0.1,6.7-0.2,10-0.3c2.1,0,4.3-0.2,6.3,0.2c2.7,0.6,4.1,1.8,6.2,3.5c0.7,0.6,3.2-0.5,2.6-1
						c-1.9-1.5-3.5-3.3-5.9-3.9c-2.2-0.6-4.9-0.2-7.2-0.2c-6.3,0.1-12.6,0.1-18.8,0.8c-2.1,0.3-5.3,1.2-6.4-1.1
						c-0.7-1.3-0.5-3.5-0.6-4.9c-0.4-3.2-0.7-6.4-0.9-9.6c-0.2-1.8-0.8-4.5-0.4-6.3c0.4-1.7,2.1-3.4,3.1-4.8c2-2.9,3.9-5.8,5.7-8.9
						c6.8-11.7,11.3-24.3,15.1-37.2c2.1-7.3,4.3-14.5,6-21.9c0.8-3.4,0.7-6.9,1.4-10.4c0.5-2.5,1.9-4.7,2.8-7.1
						c-0.9,0.2-1.9,0.4-2.8,0.6c1.8,10.2,3.5,20.3,5.8,30.4c1,4.3,2.1,9,4.3,12.9c2.3,4.2,5.9,7.8,6.7,12.6
						c0.9,5.3-0.4,10.5-1.7,15.6c-1.2,4.5-2.1,9-3.6,13.4c-1.7,5.3-2.9,9.9-3.5,15.5c-0.5,5-0.3,10.3-1.7,15.1
						C408.1,243.5,410.8,243.1,411.1,242.3z"/>
					<path class="st8" d="M465.7,113.3c-0.2-0.1-0.4-0.2-0.6-0.4c-0.7-0.4-1.8-0.1-2.4,0.4c-7.5,5.4-13.7,12.4-21.1,17.9
						c-6.3,4.7-11.5,10-16.3,16.2c-4.4,5.7-7.3,11.3-9.2,18.2c-0.6,2.1-1.1,2.4-0.5,4.4c0.4,1.4,1.7,2.9,2.5,4.2
						c2.2,3.7,3.2,7,4.5,11.1c0.2,0.8,1.8,0.1,2.2,0c3.5-1.7,6.8-3.7,10.2-5.5c2.4-1.3,4.9-2.2,6.9-4.2c1.7-1.7,3.2-4.2,3.8-6.6
						c0.6-2.3,0.3-4.4,1.2-6.6c0.8-2,2.2-3.9,3.3-5.8c3.5-6.1,6.3-12.8,8.7-19.4c2.8-7.4,6.4-15.7,6.8-23.6c0.1-1-2.7-0.4-2.8,0.4
						c-0.4,6.8-3.3,13.8-5.6,20.2c-2.3,6.6-5,13.3-8.2,19.5c-1.6,3.1-3.8,5.9-5.1,9.1c-1.5,3.7-0.7,7.2-3.1,10.7
						c-2.1,3.1-5.3,4.3-8.4,6c-3.2,1.7-6.2,3.6-9.5,5.1c0.7,0,1.5,0,2.2,0c-1.1-3.6-1.7-6.4-3.6-9.7c-0.8-1.4-1.8-2.7-2.5-4.2
						c-1.1-2.4-0.8-3-0.3-5.5c1.5-7.3,5.5-13.3,10.1-19.1c5.2-6.6,11.2-11.7,17.8-16.7c6.4-4.8,11.6-11.1,18.1-15.7
						c-0.8,0.1-1.6,0.2-2.4,0.4c0.2,0.1,0.4,0.2,0.6,0.4C463.9,114.8,466.3,113.7,465.7,113.3z"/>
					<path class="st8" d="M473.3,288.6c6.8-5.6,10.4-15,13.5-22.9c0.8-2,3.1-5.7,0.9-7.6c-1-0.8-3.3-0.8-4.5-1.1
						c-2.8-0.5-5.6-1.1-8.4-1.6c-10.7-1.7-21.4-3.2-32-4.9c-7.2-1.1-16.6-1.9-23,2.3c-0.1,0.1-0.4,0.4-0.3,0.5
						c5.3,8.8,15.9,12.6,25.2,15.8c5.9,2.1,10.9,3.3,15.8,7.6c4.1,3.7,7.2,7.9,10.6,12.2c0.5,0.7,3.2-0.3,2.6-1
						c-3.8-4.7-7.2-9.3-11.8-13.3c-4.7-4-10-5-15.8-7.1c-6.1-2.2-12.6-4.5-17.8-8.5c-0.9-0.7-2.4-1.6-3-2.6c-1.5-0.8-1.5-1.8,0-3
						c0.5-1.9,1.8-2.6,3.9-2c3.7-0.2,7.3-0.2,11,0.3c12.6,2,25.4,3.6,38,6c3.3,0.6,8.8,0.8,7.4,5.5c-0.4,1.4-1.4,2.7-1.9,4.1
						c-0.5,1.5-0.8,2.8-1.5,4.3c-2.7,5.7-6,12.6-10.9,16.6C470,289.3,472.7,289.1,473.3,288.6z"/>
					<path class="st8" d="M371.3,261c-1.4-9-2.9-18-4.1-27c-0.6-4.4-1.5-10.4-3.8-14.2c-0.8-1.3-1-1.5-2.6-1.7
						c-4.9-0.5-11.1,2.6-14.2,6.2c-2.4,2.7-3.4,6-4.6,9.4c-1.6,4.4-3.3,8.7-4.8,13.1c-1,2.7-4,8.1-3.4,10.9c0.6,2.6,4.9,5.4,7.1,6.4
						c3.1,1.4,6.3,1.5,7-2.2c0.9-4.8,1.7-9.6,3-14.4c0.2-0.8,2.4-10.5,5.5-7.3c0.8,0.8,0.6,4.5,0.7,5.6c0.9,8.2,3.7,13.5,11.9,16.2
						c0.8,0.2,3.3-0.9,2.2-1.2c-8.9-2.9-10.6-9.1-11.5-17.5c-0.4-3.4-0.6-6.4-4.7-5.7c-4.9,0.9-6,7.3-7,11.2
						c-1,3.8-2.3,7.9-2.7,11.8c-0.3,2.8,0.8,2.6-1,2.6c-1.3,0-4-2.3-4.8-3.1c-2-2-2.6-3.3-2.1-6c0.3-1.7,1.2-3.6,1.8-5.2
						c1.2-3.5,2.5-7,3.8-10.4c1.4-3.7,2.5-7.7,4.3-11.1c1.9-3.7,6.5-8.1,11.1-7.7c3.5,0.4,4.7,7,5.4,10.1c0.9,3.4,1.1,7.1,1.6,10.6
						c1,7.2,2.2,14.3,3.3,21.4C368.7,262.6,371.5,261.9,371.3,261z"/>
					<path class="st8" d="M512.9,196.8c-5,4-9.5,9-13.8,13.8c-1.1,1.2-3.6,3.3-3.5,5.3c0.1,2.5,3.5,2.7,4.4,4.8
						c1.1,2.6-1.5,4.3-1.1,6.8c0.3,2.1,2.4,2.4,3.1,4.2c0.8,2.3-2.1,3.9-1.6,6.4c0.4,2.3,3.7,2.4,5.6,2.9c0.8,0.2,2.1,0,2.5-0.8
						c0.8-1.7,0.5-3.5,1.2-5.3c0.7-1.9,2.1-3.4,3-5.2c1.4-2.7,2.7-6.3,2.6-9.4c-0.1-1.9-1.2-3.1-1.7-4.8c-0.7-2.5,0.3-4.8,1-7.1
						c1.3-4.3,2-7.2,0.8-11.6c-0.2-0.8-3-0.1-2.8,0.7c1.2,4.7,0,8.3-1.3,12.9c-0.4,1.5-1,3-0.9,4.5c0.2,1.8,1.4,3.1,1.8,4.8
						c1,4-1.5,8.9-3.5,12.2c-0.7,1.1-1.4,2.2-1.9,3.4c-0.6,1.6-0.5,3.8-1.2,5.3c0.8-0.3,1.7-0.5,2.5-0.8c-2.1-0.6-2.7-0.3-3.8-2.4
						c-1.1-2.2-0.6-2.1,0.3-3.9c0.6-1.3,0.9-1.6,0.3-2.9c-0.9-1.7-3.2-1.6-3.1-4.1c0-1.8,1.6-3.2,1.4-5.1c-0.1-1.4-0.8-2.2-1.8-3.1
						c-1.7-1.5-2.2-0.5-2.2-3.1c0-2.1,1.2-3,2.5-4.4c4.1-4.6,8.6-9.6,13.4-13.4C516.2,196.1,513.5,196.3,512.9,196.8z"/>
					<path class="st8" d="M534.9,278.6c-1.7-2.8-2.6-5.8-5.1-8.1c-3.4-3.2-7-2.6-10.7-4.9c-2.6-1.7-3.3-2.9-6.5-2.6
						c-2.3,0.2-6.3,0.5-8.3,2c-2.1,1.7-1.5,5.9-1.2,8.2c0.4,2.8,0.9,5.2,3.8,6.2c3.5,1.3,8.8,1.5,12.6,1.1c4.5-0.4,8.9-1.1,13.5-0.9
						c0.9,0,3-1.3,1.1-1.4c-2.3-0.1-4.6-0.6-6.9-0.5c-3.3,0.2-6.4,1.4-9.8,1.4c-2.7,0-6.4-0.1-8.8-1.5c-2.3-1.3-4.4-8.7-2.6-11.3
						c3.5-5.1,10.4,0.7,14.5,2c3,1,5.6,1.7,7.7,4.1c1.7,2,2.6,4.6,3.9,6.8C532.6,280.2,535.3,279.2,534.9,278.6z"/>
					<path class="st8" d="M406.7,289c3.9-9.5,4.2-19.4,4.1-29.4c0-3.6,1.7-10.5-0.3-13.5c-1.3-1.9-5.4-4.6-7.8-4.6
						c-7.5,0-4.7,12.7-3.4,16.5c3.4,10.1,2.9,21.1,4.7,31.6c0.1,0.8,2.9,0.2,2.8-0.7c-1.3-7.3-1.3-14.4-2.2-21.7
						c-0.5-4-1.9-7.7-3.1-11.5c-1-3.2-2.8-13.1,3-11.2c4.8,1.6,3.9,6.1,3.8,10c-0.1,4.1,0.1,8.1,0,12.2c0,7.6-1.4,15.7-4.2,22.8
						C403.7,290.2,406.4,289.8,406.7,289z"/>
					<path class="st8" d="M397.6,241.2c-5.9-0.5-12.2-0.1-18.1,0.5c-1.8,0.2-6.3,0.3-6.9,2.7c-0.3,1.6,1.2,2.8,2.3,3.6
						c2.8,2.2,4.9,3.9,7.4,6.4c4.7,4.8,10.3,8.7,14.9,13.7c0.6,0.6,2.7,0,2.7-0.9c0.1-4.8-2.2-8.6-3-13.2c-0.8-4.5,0.5-8.2,1.2-12.5
						c0.2-0.9-2.6-0.4-2.8,0.4c-0.7,4-1.8,7-1.4,11.2c0.5,5.1,3.3,9.5,3.2,14.7c0.9-0.3,1.8-0.6,2.7-0.9c-5.6-6-11.9-11.2-17.7-16.8
						c-1.1-1-2.2-1.8-3.4-2.6c-1.6-0.5-2.6-1.5-3.1-3c1.2-1.2,2.7-1.8,4.3-1.7c4.9-0.9,11-0.9,16-0.5
						C396.7,242.7,399.1,241.4,397.6,241.2z"/>
					<path class="st8" d="M501.6,143.4c0.5-2,1.7-5,1.6-7.1c-0.1-1.8-1.7-3.7-2.6-5.2c-1.4-2.4-2.4-4.2-2.7-7
						c-0.2-1.8,0.1-3.3-1.5-4.2c-0.7-0.4-1.8-0.1-2.4,0.4c-4.1,3.1-4.6,8.5-3.3,13.3c1.1,3.8,4.6,9.8,8.7,10.8
						c0.8,0.2,3.2-1,1.7-1.4c-3.3-0.8-6.5-6.7-7.4-9.5c-1.4-4.3-1.4-9.9,2.5-12.8c-0.8,0.1-1.6,0.2-2.4,0.4c2.1,1.3,1.6,6.5,2.6,8.7
						c1,2.1,3.5,4.3,3.9,6.6c0.4,2.2-0.9,5.4-1.4,7.6C498.6,144.7,501.4,144.2,501.6,143.4z"/>
					<path class="st8" d="M533.8,280.6c-0.2,2.5-0.7,4.8-1.1,7.3c-0.2,1.2-0.2,2.6,0.7,3.5c2.4,2.3,7.8,0,10.3-0.8
						c1.2-0.4,2.4-0.8,3-2c0.4-0.9,0.2-1.9,0.4-2.9c0.1-0.7,0.5-1.7,0.4-2.4c-0.2-1.3-1.7-1.8-2.9-2.1c-2.8-0.9-5.6-0.2-8.4-1.4
						c-0.7-0.3-3.3,0.8-2.2,1.2c1.4,0.6,2.9,1,4.4,1.1c1.7,0.2,3.4-0.1,5,0.7c1.4,0.6,1.3,1.2,1,2.5c-0.3,1.5,0,3.4-1.5,4.1
						c-1.8,0.9-7,2.6-7.6-0.3c-0.3-1.5,0.4-2.9,0.7-4.3c0.3-1.5,0.3-3.2,0.5-4.7C536.7,279.2,533.9,279.8,533.8,280.6z"/>
					<path class="st8" d="M501.8,150.4c-0.9,3.5-1.7,6-3.5,9.3c-1.6,2.7-2.6,5.4-3.1,8.6c-0.7,4.4,0,9.7,5,10.5
						c0.6,0.1,2.3-0.2,2.3-1.1c-0.1-5.2,1-10.2,1.8-15.3c0.6-4,2.2-8.8,0.3-12.6c-0.4-0.9-3.1,0.1-2.8,0.7c2.2,4.3-0.1,11-0.9,15.6
						c-0.7,4.1-1.3,8.1-1.2,12.2c0.8-0.4,1.5-0.7,2.3-1.1c-4-0.7-4.5-5.7-4.1-8.7c0.3-2.7,1.1-5.3,2.3-7.6c0.9-1.7,2.2-3.2,2.9-4.9
						c0.9-1.9,1-4,1.5-6.1C504.8,149.1,502,149.5,501.8,150.4z"/>
					<path class="st8" d="M469.1,88.1c-0.4,2.7-0.8,5.4-1.2,8.1c-0.2,1.1,2.5,0.2,2.8-0.4c1.3-2.6,1.8-5.4,1.2-8.2
						c-0.1-0.8-2.9-0.2-2.8,0.7c0.5,2.8,0,5.4-1.2,7.9c0.9-0.1,1.8-0.3,2.8-0.4c0.4-2.7,0.8-5.4,1.2-8.1
						C472,86.7,469.2,87.2,469.1,88.1z"/>
				</g>
			</g>
		</g>
		<rect x="266.2" y="15.4" class="st9" width="331" height="448"/>
		<rect x="287.8" y="1" class="st10" width="331" height="448"/>
	</g>
	<rect x="682.3" y="15.4" class="st11" width="167.8" height="87.9"/>
	<text transform="matrix(1 0 0 1 682.2696 29.9995)"><tspan x="0" y="0" class="st12 st13 st14">HARD WORK</tspan><tspan x="0" y="24" class="st12 st13 st15">We believe anything is </tspan><tspan x="0" y="48" class="st12 st13 st15">possible with hard work </tspan><tspan x="0" y="72" class="st12 st13 st15">and determination. </tspan></text>
	<rect x="682.3" y="385.2" class="st11" width="193.3" height="142.7"/>
	<text transform="matrix(1 0 0 1 682.2696 399.7641)"><tspan x="0" y="0" class="st12 st13 st14">INSPIRATION</tspan><tspan x="0" y="24" class="st12 st13 st15">We believe great work and </tspan><tspan x="0" y="48" class="st12 st13 st15">ideas come from those who </tspan><tspan x="0" y="72" class="st12 st13 st15">are truly inspired by and </tspan><tspan x="0" y="96" class="st12 st13 st15">excited about what they do </tspan><tspan x="0" y="120" class="st12 st13 st15">everyday.</tspan><tspan x="67.8" y="120" class="st12 st13 st16"> </tspan></text>
	<rect x="682.3" y="193.6" class="st11" width="188.8" height="162.2"/>
	<text transform="matrix(1 0 0 1 682.2696 208.2402)"><tspan x="0" y="0" class="st12 st13 st14">GROWTH</tspan><tspan x="0" y="24" class="st12 st13 st15">We believe life is too short </tspan><tspan x="0" y="48" class="st12 st13 st15">to be boring. Growth takes </tspan><tspan x="0" y="72" class="st12 st13 st15">strength and courage, yet </tspan><tspan x="0" y="96" class="st12 st13 st15">creates the most powerful </tspan><tspan x="0" y="120" class="st12 st13 st15">rewards. </tspan></text>
	<rect y="385.2" class="st11" width="195.5" height="151.2"/>
	<text transform="matrix(1 0 0 1 127.1061 399.7641)"><tspan x="0" y="0" class="st12 st13 st14">TRUST</tspan><tspan x="-109.2" y="24" class="st12 st13 st15">We believe the best part</tspan><tspan x="62.6" y="24" class="st12 st13 st15">-</tspan><tspan x="-88.5" y="48" class="st12 st13 st15">nerships are built from </tspan><tspan x="-85.2" y="72" class="st12 st13 st15">trust, which is created </tspan><tspan x="-126.9" y="96" class="st12 st13 st15">through honest, transparent </tspan><tspan x="-42.8" y="120" class="st12 st13 st15">communication.</tspan></text>
	<rect y="18.3" class="st11" width="197.3" height="155.3"/>
	<text transform="matrix(1 0 0 1 102.1256 32.8869)"><tspan x="0" y="0" class="st12 st13 st14">RESPECT</tspan><tspan x="-101" y="24" class="st12 st13 st15">We believe every successful </tspan><tspan x="-63.3" y="48" class="st12 st13 st15">relationship has a solid </tspan><tspan x="-85.7" y="72" class="st12 st13 st15">foundation of respect and </tspan><tspan x="4.3" y="96" class="st12 st13 st15">appreciation.</tspan><tspan x="92.2" y="114" class="st12 st13 st16">. </tspan></text>
	<rect y="193.6" class="st11" width="175.3" height="141.2"/>
	<text transform="matrix(1 0 0 1 131.1656 208.2402)"><tspan x="0" y="0" class="st12 st13 st14">FUN</tspan><tspan x="-122.5" y="24" class="st12 st13 st15">We believe happiness is </tspan><tspan x="-130.8" y="48" class="st12 st13 st15">everything in life. If we’re </tspan><tspan x="-109" y="72" class="st12 st13 st15">not having fun, what’s </tspan><tspan x="-26.5" y="96" class="st12 st13 st15">the point?</tspan></text>
</g>
</svg>
