<svg id="Layer_1" data-name="Layer 1" xmlns="http://www.w3.org/2000/svg" viewBox="0 0 55.96 54.72"><defs><style>.cls-1{fill:#f0e049;}</style></defs><title>D</title><path class="cls-1" d="M56,27.33C56,42.89,44.87,54.71,31.2,54.72l-3.53-.06c13.68,0,24.76-11.82,24.76-27.39C52.43,12.32,42.2,1,29.28.15H31.2C44.87.16,56,11.76,56,27.33ZM20.07,54.41a24.35,24.35,0,0,0,3.53-.25V.56A24.74,24.74,0,0,0,20.07.31ZM0,0V.23H3.52V54.34H0v.23H24.78c13.68,0,24.76-11.82,24.76-27.39S38.46,0,24.78,0ZM17.19.23c15.16,0,17.23,11.51,17.23,27S32.35,54.33,17.19,54.33Z"/></svg>