<svg id="Layer_1" data-name="Layer 1" xmlns="http://www.w3.org/2000/svg" viewBox="0 0 419.35 605.16"><defs><style>.cls-1{opacity:0.4;}.cls-2{fill:#f9ebd7;}</style></defs><title>DaffodilIllustration</title><g class="cls-1"><path class="cls-2" d="M162.17,11.33c2.45.59,3,1.92,3.08,3.57q.33,9.12.62,18.24a10.87,10.87,0,0,1-.1,1.76c-2.69,20.48-5.2,41-8.17,61.43-1.73,11.9-2.87,23.81-2,35.79.55,7.59,1.68,15.16,3,22.66,1.54,8.89,3.51,17.7,5.35,26.54.47,2.24,1.14,4.44,1.85,7.14,2.93-4.91,5.72-9.1,8-13.54a53.78,53.78,0,0,1,9.68-12.9,23,23,0,0,0,3.62-4.29c4-6.81,10.21-11.24,16.3-15.83,3.28-2.47,6.71-4.74,9.93-7.29,2.48-2,4.71-4.23,7.08-6.34,2.19-1.95,4.47-3.8,6.61-5.8q7.46-6.95,14.81-14a8.5,8.5,0,0,0,2.45-5.3c.95-7.57,2-15.12,3.18-22.65a88,88,0,0,1,2.29-9.58c.65-2.35,2.73-3.86,4.59-3.6a4.92,4.92,0,0,1,4,4.35c.34,6.34.45,12.64-1.65,18.81s-4.09,12.24-7.68,17.72c-.77,1.18-.85,2.88-1,4.37-.59,4.88-.81,9.82-1.71,14.64-.6,3.18-2.11,6.19-3.25,9.27-3.59,9.68-7,19.45-10.88,29-3.07,7.47-6.13,15-10.7,21.77a29.31,29.31,0,0,0-4.61,12.46c-.41,2.94-.8,5.81-2.65,8.27a7.82,7.82,0,0,0-.61,2.11,35.57,35.57,0,0,0,3.69-.47c6.27-1.51,12.57-2.94,18.78-4.68a76.77,76.77,0,0,0,9.88-3.72c7.86-3.42,15.77-6.74,23.44-10.55,6.24-3.11,11.24-8,16.19-12.88,2.6-2.54,5.07-5.21,7.63-7.79,2-2,2-2.51.06-4.6s-3.65-4-5.46-6c-7.05-7.74-8.79-16.94-7-26.89.85-4.62,4.18-7.8,8.11-10.11,1-.61,2.63-.26,4.22-.36.74-1.72,1.26-4.15,2.67-5.85a21.71,21.71,0,0,1,5.85-4.32c1.94-1.14,3.9-2.78,6.79-1.45v8.78c2.33-2.73,4-5.23,6.2-7.12s3.61-5.22,7.57-4.31c.11.48.38,1,.27,1.35-1,3.67-.27,7.27.63,10.78a31.85,31.85,0,0,1,.48,11.88c-.27,2.28-.34,4.59-.54,7.55,1.67-.85,2.73-1.27,3.67-1.88,4.34-2.8,8.73-5.51,12.27-9.39.76-.84,2-1.2,3.13-1.81.4.76.7,1.06.69,1.36-.11,3.51-.31,7-.41,10.52-.24,8.83-.77,17.59-4.12,25.94-.52,1.3-.31,2.9-.47,4.73a40.45,40.45,0,0,0,4.18.42,21.83,21.83,0,0,1,14,4.9,13.76,13.76,0,0,0,9.45,3.21c1-.06,2.29-.44,2.66,1s-.79,1.8-1.77,2.24c-5.65,2.56-11.14,5.58-17.68,5.29a28.24,28.24,0,0,0-5.23.74c-.42,2.8,1.27,4,3.22,4.94a63,63,0,0,1,5.73,2.66c3.95,2.45,4.26,4.55,1.56,8.38a11.34,11.34,0,0,0-1.49,2.37,3,3,0,0,0,1.18,4l2.7,1.66c2.14,1.34,3.46,3,3,5.79-.37,2.11.49,3,3,3.43,3.47.59,7,.93,10.45,1.47a14,14,0,0,1,3.71,1,5.41,5.41,0,0,1,2.82,7.36,28.85,28.85,0,0,1-3.22,5.43c-2,2.72-4.27,5.27-6.41,7.91-1.81,2.24-1.73,3.65.74,5.18a22.5,22.5,0,0,0,5.8,2.46,17.48,17.48,0,0,1,9,5.84c2.57,3.05,5.32,6,8.09,8.82a11.23,11.23,0,0,1,3,10.37c-.56,3.12-1.16,6.24-1.92,9.31-.9,3.64-5,6.73-9.32,6.9-4.91.19-9.83.14-14.74.25a29.5,29.5,0,0,0-3.15.4l-2.71-1.93a2.82,2.82,0,0,0-.27,4.26c1.69,2,3,4.39,6.1,4.9,1.42.23,2.54,2,3.93,2.83a43.89,43.89,0,0,1,10.95,9.85c1.45,1.73,3,2.18,5.4,2.26,3.52.11,7,1.6,10.5,2.51a4,4,0,0,1,.63.31c4.4,2,5.12,3.62,3.43,8.23a27.77,27.77,0,0,1-2.39,4.27c-1,1.71-2.12,3.37-3,5.13a6.06,6.06,0,0,0-.08,5.41,10.8,10.8,0,0,1-7.74,15c-2.23.49-3.63,1.27-4,3.61a4.11,4.11,0,0,1-1.31,2c-2.2,2-2.8,4.87-3.58,7.53a7.19,7.19,0,0,0,.5,3.75c.64,2.12,1.12,4.17-.87,5.82s-4.12,3.1-7,2.14c-2.73-.9-3.57-.34-3.59,2.67-.06,8.08-2.1,8.21-9.91,10.08-3.1.74-6.68-.44-10-.83-1.16-.13-2.27-.56-3.42-.77-2.51-.47-3.24-1.07-3.65-3.53-.57-3.5-.83-7,.38-10.45.12-.33.2-.67.29-1,.93-3.7.27-4.88-3.61-4.71a51.19,51.19,0,0,0-11.77,1.77,44,44,0,0,1-15.68,1.56,15.4,15.4,0,0,1-11.16-6,17.53,17.53,0,0,1-3.58-10.83c0-4.46-.34-8.91-.47-13.37a2.55,2.55,0,0,0-2.15-2.78c-3.56-.76-7.1-1.61-10.68-2.19-2.41-.39-3.16.22-3.43,2.81a28.57,28.57,0,0,1-3.2,10,3.49,3.49,0,0,0-.45,1c-.8,5.37-3.62,9.86-6.27,14.42a28.27,28.27,0,0,1-2.1,3.23c-3.82,4.88-7.35,10-12.46,13.77-1.54,1.12-1.3,2.38-.5,4,2.76,5.56,5.37,11.2,8,16.83a11.47,11.47,0,0,1,.86,3c1.89,12.17,3.92,24.32,5.54,36.53,1.21,9.18,2.1,18.42,2.71,27.66.41,6.32.08,12.68.08,19,0,6,.12,12,0,18-.16,6.8-.66,13.6-.81,20.4-.18,8.08-.14,16.17-.23,24.25,0,1.29-.25,2.58-.21,3.86.09,2.92.3,5.84.44,8.76a9.08,9.08,0,0,0,2.68,5.58c3.83,4.41,5.89,9.81,8.13,15.09a8.85,8.85,0,0,1,.22,2.51c-2.6.64-4.65.15-6.23-1.71-3-3.58-6-7.13-7.38-11.85-.8-2.74-2.67-5.16-4-7.75q-4.22-8.11-8.4-16.25a49.11,49.11,0,0,0-2.45-4.66,184.26,184.26,0,0,1-16.55-32.2,11.56,11.56,0,0,1-1-3c-.69-6.26-3-12-5.31-17.8a97.7,97.7,0,0,1-5.45-18.92c-2.18-11.65-4.67-23.23-7-34.85a4.52,4.52,0,0,0-.17-.68c-2.83-7.58-5.56-15.19-8.53-22.72-3.06-7.74-6.62-15.3-9.46-23.12-2.6-7.14-6.4-13.54-10.31-20-2.2-3.62-4.21-7.33-7.23-10.35-2.29-2.29-4.23-5-8-6.3a11.89,11.89,0,0,0-.62,3.33,96,96,0,0,0,1.83,11.79,38.76,38.76,0,0,1,.65,14.33,10.92,10.92,0,0,0,.87,6.5,18,18,0,0,1,1,3,16.57,16.57,0,0,0,7.06,9.69c5,3.32,8.1,8.5,10.25,14a47.57,47.57,0,0,0,8.5,14.08,9,9,0,0,0,2.09,1.84c7.92,4.74,10.3,12.42,10.87,20.9a47.31,47.31,0,0,1-.81,9.46,13.72,13.72,0,0,1-10.45,12,46.72,46.72,0,0,1-23.36.23c-4.6-1-8.3-3.84-11.4-7.32a23.69,23.69,0,0,0-7.87-5.76,75.41,75.41,0,0,1-7.91-4.58,7,7,0,0,1-2.57-2.34c-2.87-5.57-6.36-10.84-6.06-17.66.22-5-.76-10.05-.92-15.09-.19-5.75,0-11.51-.1-17.26,0-1.87-.39-3.73-.5-5.6-.28-4.91-.75-9.83-.71-14.74a70.46,70.46,0,0,0-4.48-25.87,17.25,17.25,0,0,0-1.46-3.2c-5-7.85-10.53-15.25-18.41-20.56A63.88,63.88,0,0,1,110.89,329a15.46,15.46,0,0,0-4.83-3.37c-1.51-.74-2.65,0-2.58,1.7a30.3,30.3,0,0,0,1,6.94c1.18,4.14,2,8.42,4.56,12.09a2.6,2.6,0,0,1,0,2.48,3.46,3.46,0,0,1-2.8.76c-4.62-1.37-9.11-3.06-12.8-6.34a7,7,0,0,0-1.41-1,21.14,21.14,0,0,1-10-10.92,35.39,35.39,0,0,1-2.83-13,51.69,51.69,0,0,0-.91-7.3c-.08-.49-.64-.9-1.06-1.46-2.91,1.2-4.05,3.62-4.85,6.19-1.35,4.36-2.56,8.76-3.75,13.16-.77,2.83-1.5,5.68,0,8.58.29.57,0,1.4.19,2.07a7.8,7.8,0,0,0,1.08,3.13,3,3,0,0,1,.28,4.15c-1.59,2.14-1.9,5.06-4.33,6.74-.72.5-1,1.83-1.23,2.84-1.52,5.78-3.12,11.54-4.41,17.37a116.32,116.32,0,0,0-2.57,14.87c-.62,7.06-2.75,13.78-4,20.7-.6,3.46-1.2,6.93-1.75,10.4-.51,3.24-.78,6.53-1.46,9.73-1.19,5.62-2.46,11.24-4,16.78a156.12,156.12,0,0,0-4.89,23Q40.44,479.66,39.15,490c-.58,4.65-1.23,9.3-1.92,13.94a22.82,22.82,0,0,1-1,3.12c-2-1.75-2-3.69-2.2-5.5a47.65,47.65,0,0,1,1-14.69c.81-4,1.24-8.1,1.74-12.17.78-6.28,1.39-12.59,2.26-18.86a53.57,53.57,0,0,1,1.71-6.09q2.28-8.67,4.48-17.36c.78-3.07,1.47-6.17,2.24-9.24a16.51,16.51,0,0,0,.32-7,10.84,10.84,0,0,1,.41-4.49,76,76,0,0,0,2.1-13.51c.46-5.34,1.8-10.61,2.91-15.87,1.45-6.88,3-13.73,4.6-20.59.6-2.61,1.35-5.18,2.11-8.11-6.87-1.95-12.29-6-16.88-12.16-.39,3.51-.54,6.39-1.07,9.2-.95,5.06-2.21,10.06-3.18,15.12-1.06,5.52-2,11.08-2.9,16.63-1.39,8.45-2.79,16.9-4.07,25.36-1.13,7.53-2,15.1-3.18,22.62-.57,3.7-1.4,7.37-2.33,11-2,7.84-4.5,15.58-6.2,23.49-2.24,10.42-3.89,21-5.82,31.46-.28,1.52-.1,3.3-2.47,4.43a27.06,27.06,0,0,1-.66-4.2,78.94,78.94,0,0,1,2.89-19.8,46.23,46.23,0,0,0,1.66-13.19c-.23-7.35,1.78-14.14,3.79-21,.78-2.69,1.31-5.45,2-8.18,1.08-4.56,2.21-9.12,3.22-13.7.8-3.65,1.5-7.33,2.16-11q2-11.25,3.92-22.52c.36-2.08.64-4.18.93-6.27.77-5.46,1.35-10.95,2.34-16.37,1.77-9.68,3.77-19.32,5.72-29a15.65,15.65,0,0,1,.94-2.22,9.74,9.74,0,0,0,1-3c.1-5,1.61-9.74,3.24-14.38,3-8.41,6-16.78,9.42-25a57.84,57.84,0,0,1,5.88-10c2.35-3.47,6.32-4.8,9.86-6.57A26.81,26.81,0,0,1,89,272.05a3.18,3.18,0,0,0,3.86-1.51c2.07-3.13,4.31-6.16,6.21-9.39a233.87,233.87,0,0,0,23.31-52.27c3-10,6.7-19.81,9.6-29.84,2.77-9.58,5.14-19.29,7.3-29,3.42-15.47,6.35-31,9.8-46.51a336.67,336.67,0,0,0,6-40.73c1-10.16,1.34-20.38,2.42-30.53.6-5.69,2-11.3,3.21-16.93A28.08,28.08,0,0,1,162.17,11.33ZM301,338.12c1.5-2,2.41-4,4-5,3.36-2.28,6.3-4.81,8.06-8.54a4.54,4.54,0,0,1,.67-.81c2.94-3.61,2.88-4.18-.86-6.84a6.94,6.94,0,0,0-1.5-.91c-3.61-1.36-7.19-2.8-10.86-4-5.54-1.78-7.76-5.32-6.55-11,.36-1.7,1-3.35,1.52-5.23-6.64-4.67-2.62-10.42-1.39-15.86-1.46-1.08-2.85-2-4.05-3-4-3.65-4-8.28.47-11.29a38.13,38.13,0,0,0,6.33-5.86c2.33-2.46,5-4.68,6.91-7.44,3.3-4.84,7.62-8.56,12.12-12.11a49.75,49.75,0,0,0,9.1-9.45c-2.93-1.32-5.74-2.26-8.2-3.78-3.66-2.27-7.72-3.33-11.7-4.72a90.73,90.73,0,0,1-9.61-4.29c-3.88-1.88-5.94-5.25-6.89-9.3a23.47,23.47,0,0,1-.75-6.26c.34-7.87,2.08-15.32,7.27-21.59a18.49,18.49,0,0,0,1.85-2.57,5.12,5.12,0,0,0,.09-5.15,23.8,23.8,0,0,0-2.14,1.61c-2.38,2.27-4.61,4.7-7.09,6.85-4.06,3.53-7.52,7.83-12.46,10.25q-12.64,6.18-25.39,12.12a126.62,126.62,0,0,1-18.21,6.45c-7.54,2.17-14.83,5.18-22.24,7.8-1.21.43-2.48.69-3.71,1.08a35.51,35.51,0,0,0-4.64,1.57c-3,1.4-5.8,3.08-8.77,4.47a65.62,65.62,0,0,1-8.73,3.6,3.86,3.86,0,0,0-3.13,3.25c-.41,2.07-.87,4.13-1.42,6.17-1.61,6-3.21,12-4.95,18-1.57,5.39-3.32,10.73-5,16.1a38.9,38.9,0,0,0-1.83,6.39c-.82,6.51-1.4,13-2,19.57-.38,3.85-.78,7.69-1,11.55-.09,1.61-.26,3.52.46,4.82,2.19,4,4.3,8.07,8.12,10.87,1.38-1.94,2.66-2.93,5.85-3.34,5.46-.7,11-1,16.44-1.57,6.65-.63,13,1.3,19.56,2,7.79.84,15.47,2.67,23.23,3.92,4,.65,8.18.82,12.22,1.49,9.26,1.53,18.51,3.1,27.72,4.91,7,1.38,13.94,3.16,20.91,4.75C299.55,337.91,300.35,338,301,338.12Zm6.32,4.44c.75-.07,1.42-.15,2.09-.2,2.68-.19,5.37-.52,8-.5a8.58,8.58,0,0,1,7,3.46,9.06,9.06,0,0,0,6.89,3.7c7.21.5,11.67,5.47,16.19,10.27a7.71,7.71,0,0,1,.93,1.89,37.67,37.67,0,0,0,1.77,3.44c1.9,3,4.5,4.72,8.19,4.51a17.89,17.89,0,0,1,12.93,4.56c2.24,1.87,4.87,1.41,7.45.77-.73-6.69-.59-7.45,2.35-13.54.25-.53.52-1.05.77-1.58,1.12-2.38,1-2.91-1.18-4.3-.89-.57-1.95-.88-2.77-1.52s-2-1.5-2.32-2.48a22.88,22.88,0,0,1-.87-5.86c-.05-1.38,1.41-1.91,2.56-.9a23.16,23.16,0,0,1,3.83,4.11c2,3,4.85,3.83,8.21,3.85,4.18,0,6.51-1.53,7.28-5.58a11.65,11.65,0,0,0-.46-5.46,7.72,7.72,0,0,1,.89-7.34c1.29-1.82,2.52-3.68,3.76-5.53,2.46-3.67,1.45-6.73-2.63-8.1-1.56-.52-3.09-1.13-4.67-1.56a6.77,6.77,0,0,0-3.09-.34c-6.49,1.49-10.83-1.83-14.52-6.43a15.9,15.9,0,0,0-10-5.91,9.51,9.51,0,0,1-4.19-2.23,58.5,58.5,0,0,1-4.49-4.82c-1-1-2-2-2.92-3.05-2.54-2.74-1.14-9.34,3.2-9.93a38.64,38.64,0,0,1,7.67-.21c1.52.1,2.91.5,4.45-.19a3,3,0,0,1,2.57.44c2.66,2.1,5.79,2,8.78,1.74,3.4-.24,6.17-1.55,7.24-5.44.73-2.65,2.36-5,3.52-7.59a6.68,6.68,0,0,0,.44-2c.24-2.19-.87-3.84-2.29-5.32-3-3.13-6.14-6.15-9-9.38a14.33,14.33,0,0,0-6-4.1,48.13,48.13,0,0,1-7.64-3.55c-2.59-1.49-3.57-3.84-2.92-6.91a9.87,9.87,0,0,1,2.82-5.11,91.68,91.68,0,0,0,7-7.9c2.09-2.67,1.31-4.61-2-5.3-1.94-.41-4-.48-5.92-.8a76.36,76.36,0,0,1-7.58-1.42,5.56,5.56,0,0,1-4.35-6.08c.2-2.66-1-3.74-3.05-4.8-3.63-1.84-4.32-3.53-3.23-7.47.62-2.24,1.54-4.39,2.46-7-1.27-.58-2.48-1.2-3.75-1.68-3.42-1.29-6.26-3.14-7.63-6.78a24.92,24.92,0,0,0-2.16-3.67c1.39-1.18,2.19-3.39,4.49-2.78,3.78,1,7.48.38,11.14-.32,2.19-.41,4.62-.67,6.35-2.84a61,61,0,0,1-4.79-3.81c-4.18-4.06-9.06-5.05-14.64-3.91a11.85,11.85,0,0,1-4.47-.2c-.75-.14-1.38-.95-2.58-1.84,2.58-.55,3.48-1.61,3-3.65a6.06,6.06,0,0,1,.12-2.42c1.21-6.92,2.6-13.81,3.6-20.76a17.52,17.52,0,0,0-.67-9.5c-2.58,1.59-4.88,3.11-7.28,4.47a19.85,19.85,0,0,0-8.27,8.87c-1.12,2.33-2.27,4.64-3.53,6.9a44,44,0,0,1-2.5,3.64c-2.21-1.16-2.39-2.63-1.89-4.38.64-2.26,1.17-4.55,1.89-6.78a67.25,67.25,0,0,0,2.77-22.6c-.07-2.84-1-5.66-1.49-8.49l-.85-.22a13,13,0,0,0-2.2,2.43c-1.15,2.17-2.08,4.45-3.08,6.7-.75,1.68-1.15,3.61-3.11,4.39-2.52-1.61-3-2.24-3.49-4.56-.59-2.59-1.24-5.17-1.9-7.91a6.34,6.34,0,0,0-5.42,6c-.48,4.18-.5,8.41-.77,12.62-.17,2.65,1,4.61,2.56,6.67a42.33,42.33,0,0,1,5.15,8.71c.67,1.54.4,3.68,0,5.44-.61,3-1.62,5.88-2.5,8.8a4.55,4.55,0,0,0,.9,4.5c2.71,3.6,4.74,7.62,4.18,12.38-.77,6.63-1.64,13.25-2.45,19.88-.41,3.38-.89,6.75-1.11,10.14-.29,4.43,1.6,7,5.68,8.58q7.21,2.79,14.33,5.83c1.93.82,3.7,2,5.59,2.94,2.11,1,2.37,1.85.89,3.73a31,31,0,0,1-2.25,2.2c-1.55,1.6-3.17,3.14-4.56,4.86a4.58,4.58,0,0,0-1,2.84c.14,2.8.67,5.58.82,8.38a17.5,17.5,0,0,1-.43,5.2c-1,4-2.18,7.92-3.5,11.81a9.32,9.32,0,0,0,.72,7.77,10.7,10.7,0,0,1,1.49,5c-.19,5.8-1.24,11.41-4.72,16.32a35.64,35.64,0,0,0-3.23,5.44c-2.23,4.74-1.24,9.39,2.53,13,.93.89,1.78,1.87,2.65,2.83,2.21,2.45,2.35,3,.32,5.77-2.85,3.85-5.88,7.56-8.86,11.32-.8,1-1.74,1.92-2.47,3A4.65,4.65,0,0,0,307.36,342.55Zm-39,217.17c1.83-1.86,1.64-3.77,1.67-5.59,0-1.4-.15-2.81-.09-4.21.33-7.74.7-15.47,1.06-23.21.07-1.52.24-3,.24-4.57,0-6.68.41-13.39-.14-20-.64-7.7-2.18-15.32-3.21-23-.93-7-1.58-14-2.58-21-.61-4.29-2-8.49-2.4-12.79a226,226,0,0,0-5.06-29.1c-.21-.91-.18-1.88-.38-2.79-.77-3.42-1.1-7-2.5-10.19-2.28-5.12-5.26-9.92-8-14.85-.34-.62-.62-1.27-1-1.86-2.08-3.25-4.05-6.58-6.33-9.69a42.75,42.75,0,0,0-5.87-6.55c-3.75-3.35-7.36-6.94-12.22-8.78-6.48-2.44-12.87-5.14-19.45-7.3a85.87,85.87,0,0,1-22.73-11.8c-4.91-3.46-9.25-7.6-12.08-13.06-.75-1.44-1.53-2.82-3.13-3.45-.28.35-.52.52-.55.72q-.94,8.53-1.84,17.07a3.48,3.48,0,0,0,.11.69c1,8.74-.08,17.33-1.93,25.86-1.56,7.21-3.38,14.4-4.43,21.69a56.14,56.14,0,0,0-.44,14c.83,7.68,1.5,15.41.36,23.18-.51,3.45-.22,7-.17,10.55a10.59,10.59,0,0,0,.72,3c.76,2.32,1.94,4.56,2.33,6.94.83,5.08,3.27,8.7,8.16,10.54.33.12.63.31.95.46,5,2.41,9.77,5,13.91,8.81a23.18,23.18,0,0,0,6.17,4c6.5,2.87,13.26,2.36,20,1a4.91,4.91,0,0,0,4.09-3.86,66.2,66.2,0,0,0,1.92-8.57c.91-7.23-1.24-13.67-6.69-18.43a44.37,44.37,0,0,1-12.73-17.84,34.06,34.06,0,0,0-11.37-15.74,20.16,20.16,0,0,1-1.51-1.47c-3.2-3-4.44-7.14-6.59-10.75a12.16,12.16,0,0,1-1.54-8.81c.84-4.39,0-8.61-.9-12.89-1.51-7-3-14-4.17-21-.83-4.87-.1-5.66,4.63-6.84a3.31,3.31,0,0,1,.84,0,48.06,48.06,0,0,0,11.51,9A11.84,11.84,0,0,1,188,359.9a76.94,76.94,0,0,1,10,14c3.74,6.63,8,12.91,10.56,20.19,1.66,4.75,4.15,9.2,5.94,13.91,3.91,10.31,7.64,20.69,11.35,31.07a97.91,97.91,0,0,1,3.33,10.75c1.8,7.76,3.09,15.65,5.06,23.36,2.81,11,6.09,21.93,9.08,32.91.83,3.05,1,6.3,2.08,9.27a132.6,132.6,0,0,0,14.54,29.24c2.38,3.6,4.29,7.51,6.4,11.29C267,557.06,267.61,558.26,268.39,559.72ZM159.65,313.53a27.85,27.85,0,0,0,1-3.77c.65-7.36,1.11-14.73,1.89-22.07.47-4.42.72-9.06,2.28-13.14a164.41,164.41,0,0,0,7.63-26.33c0-.23.13-.45.2-.68,1.82-6.09,3.32-12.28,3.39-18.65.06-5.28-.36-10.52-3.61-15.12-2.5-3.53-4.73-7.25-7-10.91a13.73,13.73,0,0,1-1.44-2.81c-1.45-4.22-3.1-8.39-4.15-12.71-2-8.31-3.72-16.71-5.53-25.08-.17-.8-.19-1.63-.33-2.44-1.28-7.46-2.56-14.91-4-23.13-.87,2.05-1.16,3.65-2.07,4.73-2,2.46-2.19,5.3-2.42,8.24a70.36,70.36,0,0,1-1.28,10.81q-3.06,12.84-6.73,25.53c-5.24,18-10.25,36.13-18.49,53.13a186.66,186.66,0,0,1-19.4,32.2,7.12,7.12,0,0,0-1.77,5.15c.48,5.36.92,10.73,1.45,16.09q.66,6.65,1.5,13.29c.41,3.2,1.71,4.4,4.6,3.95a117.72,117.72,0,0,1,20.3-1.89c.58,0,1.16-.23,1.74-.24,7.15-.09,14.3-.2,21.45-.19a10.7,10.7,0,0,1,7.54,3.3C157.17,311.56,158.1,312.24,159.65,313.53Zm83.61-196.72-.85-.54c-1.37,1-2.83,2-4.09,3.1-5,4.56-10.05,9.11-15,13.8s-10.22,8.23-15.48,12.17A125.41,125.41,0,0,0,195,156.73a105,105,0,0,0-7.89,9.42c-2.11,2.65-4.18,5.35-6.11,8.13-1.27,1.83-2.16,3.91-3.38,5.77a34,34,0,0,0-5.49,13.21,14.72,14.72,0,0,1-1.51,4.65,3.84,3.84,0,0,0,.15,4.27c2.12,3.5,4.1,7.1,6.34,10.53a20.36,20.36,0,0,1,3,8.19,42.33,42.33,0,0,0,1.26,4.55c1.72-.83,3-1.39,4.2-2,5.35-2.92,10.54-6.2,16.08-8.69a17.4,17.4,0,0,0,7.76-6.72c1.79-2.77,3.39-5.54,3.37-9.07a22.09,22.09,0,0,1,4.06-12.2c5.86-9,10-18.84,14-28.71,2.78-6.84,5.13-13.85,7.48-20.86,1.67-5,3.1-10.08,4.46-15.17A30.39,30.39,0,0,0,243.26,116.81Zm12,267a27.14,27.14,0,0,0,7.45-8.37c2.52-4.47,4.92-9,7.46-13.48,1.92-3.37,3.82-6.69,4.47-10.62a9.35,9.35,0,0,1,1.76-4.16c1.63-2.05,1.53-4.35,1.59-6.68a2.36,2.36,0,0,0-2.25-2.62c-6-1.11-12-2.4-18-3.39-10.75-1.77-21.65-2.38-32.3-5C220,328.2,214.29,328,208.78,327a55.33,55.33,0,0,0-14-1.06c-3.16.2-6.33.29-9.47.63s-6,.87-8.71,3.08A24.16,24.16,0,0,0,178,332c5.08,6.57,11.9,11.14,19.24,14.43A208.47,208.47,0,0,0,227,357.23a19,19,0,0,1,6.17,3.17,91.21,91.21,0,0,1,20.53,21.54C254.11,382.51,254.59,383,255.21,383.8ZM98.85,342.42c-1-6.51-1.86-12.27-2.78-18-.33-2.08-.87-4.14-1.16-6.23-1.05-7.55-2-15.11-3.06-22.66a11.87,11.87,0,0,0-.52-2c-1.52-4.68-3.09-9.33-4.56-14-.45-1.45-1.2-2.28-2.74-2.12a45.76,45.76,0,0,0-5.56.75c-9,2.09-15.23,7.35-18.33,16.24-2.5,7.18-5.34,14.24-7.93,21.39-2.23,6.16-4.31,12.38-6.45,18.58a3.27,3.27,0,0,0,.76,3.53,34.47,34.47,0,0,0,9.55,7.66,10.61,10.61,0,0,0,3.28,1.17c2.88.49,3.59-.27,3.57-3.12a21.77,21.77,0,0,1,.44-5.16c1.78-7.52,3.55-15.06,5.63-22.5A26.38,26.38,0,0,1,72.46,309c1.27-2,3.51-2.42,5.64-1.94,1.9.43,2,2.43,2.34,4,.28,1.37.25,2.8.42,4.2.43,3.6.63,7.25,1.41,10.77.57,2.58,1.4,5.41,3,7.38a27.59,27.59,0,0,0,9.92,7.72C96.13,341.57,97.14,341.83,98.85,342.42ZM319,243.89c-1.31,1.09-2.34,1.79-3.18,2.66-7.15,7.39-14.71,14.39-21.19,22.43-2.43,3-2.14,5.08,1.4,6.9,4.49,2.31,5.47,5.29,3.19,9.7-2.15,4.17-1.67,6.05,2.23,8.71l.3.19c2.49,1.77,2.49,2.52.81,5.14a22.79,22.79,0,0,0-2.39,5.38,2.35,2.35,0,0,0,1.55,3.14c2.19.7,4.44,1.24,6.63,1.85.32-.64.62-1,.6-1.26-.22-4.87,2.07-9,4.63-12.68,2.75-3.94,3.84-8.2,4.82-12.68a11,11,0,0,0-1.27-8.78,9.32,9.32,0,0,1-.78-8.44c1-3.12,1.7-6.36,2.84-9.42C320.67,252.68,320.42,248.72,319,243.89ZM348.84,369.3a31.53,31.53,0,0,1-2.45-4.38,20.16,20.16,0,0,0-7.6-9.8,11.48,11.48,0,0,0-6-2.64,17.77,17.77,0,0,1-11.21-5.28,4.52,4.52,0,0,0-2.61-1.49,47.73,47.73,0,0,0-7.26.81c-1.48.26-2.88,1.1-4.36,1.23a2.63,2.63,0,0,0-2.72,2.57,35.34,35.34,0,0,0,.6,13.62,6.57,6.57,0,0,0,6.17,5.41c2.21.21,4.39.87,6.6,1,5.13.36,10.33,1,15.32-.8a18.26,18.26,0,0,1,10-.63A45.19,45.19,0,0,0,348.84,369.3ZM153,384.93c.49-1.24.75-1.76.89-2.31,2.2-8.49,5-16.8,5.34-25.73.18-4.69.58-9.31-.09-14a33.28,33.28,0,0,1,.12-5.6c.15-5,.33-10.06.39-15.09a3.57,3.57,0,0,0-.83-2.56,75.94,75.94,0,0,0-8.58-6.09c-2.31-1.34-4.37-.51-5.13,1.72-2.13,6.26-2.85,12.72-.23,18.89,2,4.81,3,9.85,4.34,14.79a26.11,26.11,0,0,1,.48,5.57c.28,5.13.3,10.28.84,15.38C151,374.69,152,379.39,153,384.93Zm-13.11-72.29a45.86,45.86,0,0,0-4.72-.31c-6.91.27-13.82.55-20.73,1a47.51,47.51,0,0,0-7.29,1.17c-1.93.43-2.27,1.2-1.77,3.06a5.55,5.55,0,0,0,3,3.69,29.29,29.29,0,0,1,9.74,7.94,30.28,30.28,0,0,0,5.48,5.39,97.15,97.15,0,0,1,12.84,10.91c1.9,2,3.76,4,6.17,6.61a33.15,33.15,0,0,0,0-4.7,38.23,38.23,0,0,0-1.37-5.46c-1.07-3.34-2.86-6.58-3.23-10-.6-5.55-1.09-11.26,1.33-16.65A14.49,14.49,0,0,0,139.86,312.64ZM297.93,162.36c.81-3.55,1.62-7,2.38-10.53a2.13,2.13,0,0,0-.21-1.36,90.2,90.2,0,0,0-4.9-8.48,13.28,13.28,0,0,1-2.57-5.67c-.32-2.08-.49-4.18-.7-6.28-.13-1.28-.14-2.62-1.91-3.13-4.17,2.63-5.25,6.83-5.44,11.4-.42,10.16,4.64,17.58,12.09,23.75C296.89,162.26,297.3,162.23,297.93,162.36Zm53.56,209.08c-.26,2.59-.42,4.91-.75,7.21-.16,1.15-.68,2.25-.91,3.4-.92,4.71.9,7,5.57,6.31a61.65,61.65,0,0,0,9.47-2.5,3.27,3.27,0,0,0,2.5-3.73,11.11,11.11,0,0,1,.48-3.46c.74-3,.52-3.58-2.37-4.7a9.64,9.64,0,0,0-3.73-.9A22,22,0,0,1,351.49,371.44Zm-49-199a32,32,0,0,0-.83,3.6,16.47,16.47,0,0,1-3.26,8.76c-4.21,5.48-6,11.91-6.44,18.65a16.53,16.53,0,0,0,1.51,7.43,6.32,6.32,0,0,0,5.83,4.11,51.71,51.71,0,0,1,0-6.85c.84-6,1.93-12,2.87-18,.61-3.92,1.14-7.86,1.69-11.79A8.08,8.08,0,0,0,302.46,172.44Zm-50-95.23-1.86,12.33A18.4,18.4,0,0,0,252.47,77.21Z"/><path class="cls-2" d="M160.46,12.28c3.71,1.31,2.74,5.41,2.86,8.66.13,3.65.32,7.3.36,10.95.1,8.08-1.73,16.43-2.76,24.45-2,15.33-4.26,30.61-6.2,45.94-3.69,29.21,1.39,58.5,8.94,86.76.34,1.29,3.64.13,4.09-.6,4.88-8.09,9.14-17,15.47-24.08,3-3.31,5.47-6.59,8.19-10.08,3.27-4.21,7.5-7.47,11.72-10.65,7.69-5.81,15-11.67,22.29-18,3.91-3.39,7.64-7,11.39-10.53,2.91-2.75,7.1-5.6,8.81-9.34,1.87-4.1,1.65-9.82,2.27-14.25a161.5,161.5,0,0,1,2.69-16.13c.36-1.48,1.05-7.19,3.95-6.23,2,.67,1.74,5,1.78,6.55a47,47,0,0,1-2.36,16.76,80.69,80.69,0,0,1-5.3,13c-1.22,2.24-2.19,3.44-2.67,5.89-.56,2.9-.61,5.94-.91,8.88-1.06,10.33-5.33,19.61-8.88,29.29-4,10.81-7.86,21.91-13.35,32.06-2.75,5.09-6.16,9.41-7.57,15.13-.62,2.5-.66,5.15-1.41,7.62-.66,2.15-2,3.85-2.47,6.06-.2.89,1.34.77,1.79.72,13-1.35,25.81-5.85,37.69-11,12.36-5.35,24-10.23,33.81-19.67,2.24-2.15,4.43-4.35,6.6-6.57,1.37-1.41,4.91-3.93,5.33-5.94.72-3.46-6-8.09-8-10.52a28.8,28.8,0,0,1-6.42-17.75c-.12-6.4,1.74-16.48,10-16.52.9,0,2.6-.4,3-1.38,1.51-3.91,3.28-7.89,7.69-9.36,2.2-.73,2.75-.86,3.38,1.34.48,1.68,0,4.31,0,6.06,0,1.37,3.68-.12,4.09-.6,2.26-2.73,4.51-5.33,7-7.87q1-1.11,2-2.16,1.49-.59.72,1c.35,1.17-.32,3.63-.2,5,.36,4.12,1.84,7.91,1.85,12.1s-.6,8.29-.87,12.39c-.09,1.47,2.78.49,3.4.19a70.18,70.18,0,0,0,9.09-5.44c3.38-2.34,6.3-5.82,10-7.64l-3.41.07c1.41,2.41.52,5.68.41,8.37-.17,4.31-.23,8.62-.62,12.91-.66,7.18-3.77,13.92-4.08,21,0,.49.31.68.79.74,4.26.52,8.59.35,12.61,2.1,3.73,1.62,6.52,4.75,10.48,5.89,1,.28,3.52.05,4.26.58q1.4-.36.46,1.06a1.16,1.16,0,0,1-1.06,1.41,13.27,13.27,0,0,1-3.08,1.39c-5.37,2.32-10.76,2.23-16.39,3.27-.81.15-2.42.54-2.46,1.6-.26,7.28,10.41,4.94,12.12,10.85,1,3.34-3.14,5.3-3.37,8.39-.21,2.91,2.3,3.57,4.29,5,2.15,1.54,2.69,2.59,2.84,5.3,0,.82-.23,1.5.16,2.26.93,1.82,3.64,1.9,5.37,2.19,3.85.65,9.68.16,12.92,2.64,4.45,3.41.39,8.81-2,12-2.75,3.64-10.6,9.17-5,13.25,3,2.19,6.91,2.47,10.07,4.33,3.5,2.07,5.84,5.43,8.56,8.37s6.1,5.56,7,9.6-.6,9.08-1.65,13c-1.82,6.79-9,6.54-14.85,6.6-3.73,0-8.07,1.05-11.19-1.16-1-.71-3.23-.13-3.95.82-4.56,6,6.74,10.62,10.43,13.19,4,2.77,6.81,6.07,10.24,9.4,3.09,3,6.94,2.31,10.94,3.37,3.42.91,9.41,1.9,9.65,6.22s-4,8.3-5.83,12c-2,3.88.28,6.31.42,10.25a10.21,10.21,0,0,1-2,6.47c-2,2.56-5,2.68-7.56,4.08s-3.08,3.84-4.74,6.15c-1.9,2.64-3.63,6-3.25,9.37.29,2.57,1.77,4.11,0,6.52s-4,1-6.34,1.32c-1.53.18-3.19.48-4.11,1.85-1.47,2.18-.12,5.49-1.22,7.9-2.09,4.53-10.38,3.49-14.14,2.83-2.14-.37-6-.53-7.4-2.39s-1.16-6.56-1-8.41c.24-2.24,2.49-6.29,1.07-8.51-1-1.56-3.25-1.47-4.89-1.45a59,59,0,0,0-12.87,1.93c-11.31,2.7-25.57,2.26-27.83-11.94-.74-4.68-.38-9.68-.63-14.42-.21-4-1-4.71-4.79-5.55s-13-4.53-15.46.81c-.89,1.95-.79,4.64-1.47,6.71s-1.81,3.81-2.51,5.79c-1.79,5.1-3.29,9.43-6.12,14.15a81.06,81.06,0,0,1-7.85,10.54,55,55,0,0,1-5.74,5.65c-1,.91-2.09,1.55-2.25,3s1.21,3.5,1.85,4.82q1.84,3.77,3.6,7.57a54.63,54.63,0,0,1,4.9,15.55c1.72,10.9,3.5,21.79,4.89,32.73,3.27,25.73,3,51.52,1.9,77.39-.49,11.74-1,23.83-.56,35.56.1,2.73-.12,6,.64,8.59.65,2.23,2.33,3.76,3.66,5.57,3.06,4.16,7,10.73,7.11,16l2.46-1.6c-4.37.72-8.09-5.37-10-8.73-2-3.68-3.37-7.65-5.44-11.35-4-7.17-7.14-14.9-11.42-21.89a213.13,213.13,0,0,1-12.83-23.64c-1.65-3.64-3.67-7.43-4.55-11.34a94.2,94.2,0,0,0-3.14-12.27c-3-8.13-5.95-15.91-7.62-24.45Q228,462,225.1,448c-3.56-17.29-11.79-33.32-18.19-49.7A164.86,164.86,0,0,0,194,372.67c-3.5-5.79-7.94-12.39-14.46-15-.95-.38-3.52.06-3.83,1.26-1.76,6.88,1.5,13.89,2.09,20.76.33,3.85-.56,7.65-.33,11.47.18,3.09,1.67,6.74,2.95,9.57,2.48,5.52,8,7.73,11.6,12.33,4.15,5.36,5.72,12.16,9.42,17.82a26.91,26.91,0,0,0,6.7,7.52,21.45,21.45,0,0,1,6.83,7.24c3.34,6.15,3.69,13.56,2.73,20.33-.5,3.53-1.16,7-3.77,9.6-3.68,3.74-9.72,4.4-14.73,4.51-9.11.2-16.49-1.9-22.88-8.4-5-5.12-13-6.59-17.69-11.78s-6.46-13.44-6.56-20.23c-.25-16.32-2-32.65-2.25-49-.13-7.74-.61-15.21-2.8-22.68-2-6.82-5.47-12.29-9.87-17.8-4.6-5.77-10.1-9.65-15.85-14.12a73.53,73.53,0,0,1-7.89-7.29c-1.72-1.79-4.12-4-6.71-4.43-4.94-.78-5.65,3-5.07,7a52,52,0,0,0,3,11.18c.41,1,2.52,3.79,2.37,4.76-.24,1.63-3.22,0-4.39-.52-7.16-3-15.37-8.81-18.47-16.06a36.58,36.58,0,0,1-2.75-11.26c-.3-3.44.22-7.92-2.19-10.68-.67-.77-2.62-.06-3.27.29-6.78,3.6-7.76,13.39-9.43,20.16-1,4-.68,6,.08,9.84a32.9,32.9,0,0,0,1.13,4.2q2,2.14-.26,4.74a13.3,13.3,0,0,0-.74,1.48c-1.89,3.59-3.69,5.06-4.72,9s-2.17,8.08-3.14,12.15c-2.22,9.24-3,18.65-4.95,27.9C52,407.33,50.39,416.08,49.14,425c-1.28,9.12-3.88,18-6.15,26.9A208.5,208.5,0,0,0,38.41,479c-1.09,9.17-1.24,19.54-4.25,28.3l4.1-1.1c-4.36-4.78-2.07-14-1-19.71,1.12-6.22,1.8-12.5,2.51-18.77a110.94,110.94,0,0,1,3.19-18.34c2-7,3.69-14,5.39-21.05.71-2.94,1.7-6,1.87-9s-.29-5.78.41-8.84c1.38-5.95,1.57-12,2.6-18,2.27-13.17,5.47-26.35,8.91-39.25a.54.54,0,0,0-.4-.65c-6.95-2.15-12.2-6.3-16.61-12-.66-.85-4,0-4.1,1.1-1.39,13.17-4.68,26-6.84,39.1-2.28,13.77-4.45,27.53-6.34,41.36-1.84,13.48-5.72,26.14-8.91,39.32-1.62,6.69-2.82,13.49-4,20.27-.55,3.09-1.08,6.18-1.63,9.27-.42,2.36-.37,7.69-2.64,9.18l3.41-.07c-1.69-8.88.94-17.52,2.81-26.15,1.73-8,.79-16.08,2.73-24,4.06-16.65,8.18-33.1,11.13-50,3-17.4,5.24-34.88,8.72-52.2.82-4.09,1.27-8.56,2.54-12.54.49-1.53,1.36-2.87,1.73-4.44.54-2.33.49-4.81,1-7.18,2-8.81,5.71-17.47,9-25.87,3.45-8.86,6.92-17.66,15.92-21.94,5.31-2.53,10.31-4,16.25-3.07,2.26.34,4.23.9,6.41-.11s3.32-3.27,4.63-5.21c2.46-3.61,4.73-7.28,6.89-11.08,4.14-7.32,8-14.82,11.36-22.51,7-15.76,11.82-32.49,17-48.89,5.48-17.22,9.23-35,12.87-52.64,4.18-20.29,8.9-40.41,11.22-61C157.41,61,158,50.78,158.83,40.52c.75-9.79,1.7-20.34,5.46-29.5.46-1.13-3.71-.67-4.23.61-6.77,16.48-5.56,36-7.31,53.41-1.9,19-5.69,37.5-9.55,56.21-7.33,35.54-15.5,71.06-28.85,104.92a237.64,237.64,0,0,1-11.28,24.34c-2.21,4.15-4.47,8.3-7,12.28-1,1.59-2.07,3.13-3.13,4.68-2.06,3-1.73,3.54-5.34,3-6.56-.92-12.85.63-18.78,3.42-7,3.28-10.71,6.62-14.58,13.38-4.15,7.26-6.68,15.73-9.5,23.57a124.88,124.88,0,0,0-4.11,12.44c-1,4.13-1.4,7.95-2.74,12C35,344,34,353.88,32.35,362.87c-1.56,8.46-2.36,17-3.79,25.51-3.28,19.46-6.77,38.89-12.09,57.91a68.7,68.7,0,0,0-2.73,13.95c-.3,4.56-.06,9.06-1,13.58-1.82,9.12-4.79,18.13-3,27.5.21,1.12,2.91.26,3.41-.07,4-2.63,3.68-7.28,4.47-11.72,1.25-7.1,2.46-14.22,3.89-21.29,2.86-14.11,7.79-27.66,9.86-41.93,2.14-14.76,4.26-29.5,6.69-44.22,2.26-13.67,5.7-27.17,7.15-40.95l-4.1,1.1c4.15,5.37,8.67,8,14.29,11.36,2.28,1.37,2,1.89,1.34,4.49-.51,1.93-1,3.86-1.43,5.81q-1.3,5.6-2.54,11.22c-1.71,7.73-3.69,15.49-4.54,23.37-.72,6.75-2.44,13.31-2.32,20,.16,8.38-3.64,17.69-5.73,25.74a164.24,164.24,0,0,0-4.59,23.18c-.9,7.84-2.12,15.57-3.27,23.37-.78,5.26-1.92,12.77,2,17,.83.91,3.74,0,4.1-1.1,2.81-8.19,3-17.85,4-26.43s1.94-17.09,3.94-25.51c2.16-9.06,4.93-18,6.54-27.18,1.43-8.18,2.32-16.42,4.13-24.54,1.91-8.58,2.72-17.27,4.5-25.86.86-4.16,1.85-8.29,2.92-12.4s1.77-8.43,4.28-12c1.37-2,4-5.21,4.22-7.58.18-2.2-1.59-5-2-7.25-1-5-.41-8.26.93-13.08,1.28-4.64,2-12.28,6.74-14.77l-3.27.29c2.44,2.79,1.64,8.39,2.07,11.91a34.56,34.56,0,0,0,3.22,11c3,6.12,9.08,10.21,14.82,13.56,3.7,2.16,9.26,5.14,13.63,3.23,5.24-2.28,0-8-1.09-11.71-.55-1.82-1.08-3.68-1.5-5.53-.2-.85-.29-1.74-.5-2.58.09.34-1.19-4.28-1.57-3.68.53-.85,8.38,7.18,9.21,7.94,5.73,5.2,12.4,8.93,17.56,14.81,5.83,6.63,10.2,13.78,12.35,22.4,2.05,8.22,1.84,16.37,2.29,24.74.47,8.83,1,17.51,1,26.36,0,4.14.33,8.23.69,12.35.38,4.34-.13,8.91.93,13.15,1.61,6.47,4.82,12.59,10.49,16.07,3.2,2,6.8,3.39,9.82,5.6,3.2,2.33,5.47,5.63,8.78,7.86,9.48,6.37,27.46,6.36,37.15.34,10.1-6.28,9.63-23.57,4.87-33.09a20.78,20.78,0,0,0-6.18-7.43,32.06,32.06,0,0,1-9.07-10.23c-3.8-6.51-5.41-14-11.27-19.14-3.26-2.89-6.43-4.49-8.33-8.69A26.78,26.78,0,0,1,182,386a43.43,43.43,0,0,0-.63-11.9c-1-5-2.7-10.74-1.42-15.76l-3.83,1.26c7.37,2.94,11.9,11.33,15.76,17.75a163.09,163.09,0,0,1,11.48,23.86c3.55,8.84,7.39,17.53,10.74,26.45A166.73,166.73,0,0,1,221.65,453c2,9.52,3.59,19.14,5.76,28.61,2,8.6,5.86,16.42,8.3,24.85,1.09,3.78,1.36,7.66,2.85,11.31q2.58,6.29,5.53,12.42c3.93,8.14,9.06,15.56,13.13,23.6,4.56,9,9.3,17.88,13.56,27,2.8,6,7.08,12.22,14.26,11,.76-.12,2.48-.56,2.46-1.6-.1-4.48-3-9.61-5.33-13.39a53.17,53.17,0,0,0-3.16-4.43c-2.2-2.93-2.54-5.31-2.73-8.86-.58-10.72-.07-21.69.16-32.43.49-22.74,2-45.52,0-68.23-1-11.43-2.57-22.78-4.32-34.12-.84-5.45-1.71-10.89-2.57-16.33-.89-5.66-3-10.17-5.39-15.32-1.06-2.25-2.16-4.47-3.22-6.72-1.15-2.43-1.42-2-.36-4.36.66-1.47,1.72-2.18,2.84-3.24a79.13,79.13,0,0,0,9.49-11.29c4.91-6.82,7.43-14.4,10.44-22.08.81-2.07.82-5.51,1.83-7.36.73-1.34-2.16-.94,1.68-.57a33.77,33.77,0,0,1,3.56.72c2.58.54,5.7.93,6.69,3.46s.32,6.89.4,9.55c.26,8.28,1.81,16.33,10.37,19.84,7.64,3.14,16.48.89,24.13-.87,2.35-.54,7.83-2,10.16-1s1.47,2.49.92,4.76c-.82,3.39-1.94,9.43.18,12.62,1.36,2.05,4.22,2.26,6.44,2.7,4,.8,8.12,1.67,12.18.93s9.68-1.78,11.41-6a13.2,13.2,0,0,0,.64-4.1c.05-.81-.25-2,.18-2.78.57-1.06-1.09.27,0,.26,2.88,0,4.85.34,7.57-1.18,2.23-1.25,4.29-2.94,4.32-5.65,0-1.77-.91-3.36-1-5.13a13.18,13.18,0,0,1,2.87-7.82c1.4-1.85,2.87-4.38,4.79-5.43,1.28-.7,2.79-.93,4.07-1.73a12,12,0,0,0,5.58-7.82,12.37,12.37,0,0,0-.24-5.4c-.91-3.55-1-5.46,1-8.77,1.85-3.11,5.14-6.91,5-10.78-.41-8.51-16.39-6.29-20.94-10.11-2-1.72-3.63-4.14-5.66-5.93-1.82-1.62-3.84-2.86-5.79-4.3-2.64-1.95-12.76-6.26-9.28-10.85l-3.95.82c1.65,1.17,2.5,1.95,4.37,2.17,2.2.26,5-.4,7.22-.42s4.3,0,6.45-.08c4.65-.1,9.17-.44,12.83-3.65,4.13-3.62,5.22-11.25,5.29-16.46.09-6.69-5.75-10.73-9.79-15.32-2-2.27-3.86-4.49-6.5-6-2.79-1.65-6-2.06-8.87-3.58-5.39-2.89.56-7.86,3-10.92,1.83-2.3,3.92-4.91,4.93-7.72,1.71-4.75-1.6-7.87-6-8.89-3.24-.75-6.8-.5-10-1.42-1.75-.51-1.43.09-2.85-1.62-1.83-2.21-.48-.88-1-2.67a10.65,10.65,0,0,0-.66-2.51c-1.68-3-7.36-3.48-6.29-7.62.65-2.5,3.52-4,3.26-6.9C357.14,191,345.23,193,345.48,186l-2.46,1.6c4.89-.9,9.68-.7,14.46-2.25,3.42-1.11,8.66-2.64,11.42-5,1.73-1.51,1.61-3.37-.66-4s-4.55.07-6.86-.88-4.15-2.72-6.28-4a24.38,24.38,0,0,0-10.76-3.24c-3.56-.29-5-.31-4-4.42.64-2.56,1.74-5,2.31-7.62a86.12,86.12,0,0,0,1.7-15.06c.14-3.43.24-6.85.38-10.28.08-1.88.42-3.47-.55-5.13-.62-1.07-2.6-.33-3.41.07-3.2,1.58-5.18,3.94-8,6.13a63,63,0,0,1-11.08,6.95l3.4.19c.33-5.1,1.21-10.35.77-15.46-.25-3-1.26-5.74-1.61-8.67-.31-2.55.75-5.26,0-7.69-.09-.31-.52-.45-.8-.48-7.84-.85-12.66,7.2-17.06,12.52l4.09-.6v-8.78a.62.62,0,0,0-.41-.38c-4.32-1.25-7.35.36-11.05,2.65-4.5,2.78-6.2,5.38-8.08,10.23l3-1.38c-10.35,0-15.69,8.26-16,18a29.56,29.56,0,0,0,3.49,15.24,35.58,35.58,0,0,0,4.82,6.56c1.41,1.58,6.22,5.55,6,7.61s-4.78,5.37-6.19,6.81c-2.78,2.83-5.6,5.65-8.58,8.26-6.14,5.38-13.26,8.57-20.66,11.85-13.69,6.06-28,12.11-43,13.69l1.79.72c.49-2.15,1.84-3.93,2.47-6.06.57-1.95.66-4,1.06-6,1.15-5.81,4.23-10.19,7.09-15.25,5.63-10,9.57-21,13.52-31.76,4-11,8.58-21.27,9.72-32.95a54.63,54.63,0,0,1,.88-7.79c.58-2.32,2.26-4.53,3.33-6.7a74.73,74.73,0,0,0,6-16.48c1.18-5.31,3.76-19.55-4.26-20.53-8.24-1-9.31,9.82-10.23,15.49s-1.68,11.32-2.42,17c-.32,2.48-.32,5.32-1.38,7.64-1.38,3-5.54,6-7.93,8.24-7.9,7.48-15.85,15.39-24.6,21.87-5,3.68-10.14,7.14-14.85,11.18-3.92,3.36-6.56,7.17-9.64,11.25-3.47,4.59-7.84,8.23-10.91,13.2-3.33,5.37-6.36,11-9.64,16.38l4.09-.6a366,366,0,0,1-9-45c-2.23-16.44-1.29-32.44,1-48.81,2.29-16,4.32-32,6.39-48a126.33,126.33,0,0,0,1.37-20.84c-.16-4.79,1.71-12.94-3.87-14.9C162.74,10,158.88,11.72,160.46,12.28Z"/><path class="cls-2" d="M303,338.08c3.29-4.65,8.12-7.46,11.29-12.19,1.64-2.44,4.95-5.22,2.68-8.08-3.52-4.42-11.25-5-16.08-7.21-6.79-3-5.11-9.28-3.32-15.11a.44.44,0,0,0-.13-.49c-5.59-4.5-2.74-9.62-1.26-15.37a.44.44,0,0,0-.13-.49c-2.34-1.68-5.39-3.45-6.43-6.31-1.44-3.95,1.32-5.82,4-8a94.34,94.34,0,0,0,10.53-10.55c3.9-4.56,7.35-8.88,12.05-12.74a65.66,65.66,0,0,0,10.72-10.8.54.54,0,0,0-.25-.92c-7-3-13.61-6.14-20.72-8.81-6.79-2.55-13.37-5.31-15.27-12.9-1.57-6.29-.54-13.55,1.8-19.55,2-5.25,8.83-10,6.66-16-.46-1.26-3.14-.14-3.8.33-5.77,4.1-10.42,9.86-15.74,14.54-6.23,5.48-15,8.53-22.46,12.06-15.07,7.13-31,11.85-46.75,17.39a150.87,150.87,0,0,0-17.84,7.24c-4.82,2.4-12.86,3.19-14.33,9.16-1.93,7.83-3.95,15.63-6.21,23.37s-5.8,15.55-6.93,23.47c-1.38,9.62-2.23,19.48-2.87,29.18-.45,6.76,3.43,12.91,8.65,17.14,1,.78,3.25.08,3.95-.82,3-3.82,11-3.05,15.43-3.43A69.81,69.81,0,0,1,208,323c10.06,1.64,20.18,3.59,30.28,4.94s20,2.76,29.9,4.57c10.53,1.92,20.93,5.11,31.49,6.7,1.18.18,5-1.75,2.66-2.1-12.1-1.82-24-5.4-36.11-7.53-12.26-2.16-24.62-3.48-36.84-5.77-5.93-1.11-11.89-1.81-17.84-2.76-5.3-.85-10.48-1.8-15.87-1.38-5.75.45-11.75.64-17.43,1.71a11.23,11.23,0,0,0-7.42,4.27l3.95-.82a27.78,27.78,0,0,1-6.51-8c-2.22-3.81-2-6.67-1.67-11.05.67-8.12,1.48-16.25,2.42-24.34.87-7.47,3.91-14.65,6.09-21.83,2.32-7.63,4.5-15.35,6.41-23.1.35-1.42.42-3.32,1-4.64,1.06-2.3,3.27-2.65,5.37-3.49,3.19-1.28,6.29-2.82,9.33-4.41,6.54-3.42,13.73-5.28,20.64-7.85,14.07-5.22,28.15-9.2,41.76-15.65,7.07-3.34,15.17-6.22,21.39-11s11.15-11.52,17.59-16.09l-3.8.33c1.67,4.58-2.37,7.45-4.49,11.08A33.21,33.21,0,0,0,286.56,195c-1.27,6.29-1.65,13.75,2,19.37,4,6.23,13.4,8.19,19.91,10.56a79.64,79.64,0,0,1,11.33,5.31c2.88,1.61,2.07,2.16,0,4.46a53.15,53.15,0,0,1-5.61,5.27,95.36,95.36,0,0,0-8,7c-3.18,3.3-5.66,7.1-8.9,10.36s-6.49,5.92-9.66,8.94a7.21,7.21,0,0,0-2.56,6.47c.6,3.54,3.73,4.42,5.62,6.93,2,2.7-1,6.7-1,9.91,0,2.89,1.4,3.67,2.59,6,1.66,3.2-1.41,7.38-.46,11,2.23,8.62,15,6.78,20.36,12,2.06,2,1.11,3-.35,5.17a52.87,52.87,0,0,1-3.11,4.55c-1.72,2.06-3.92,3.24-5.87,5a27.63,27.63,0,0,0-3.71,4.8C298.08,339.57,302.28,339.1,303,338.08Z"/><path class="cls-2" d="M307,343.58c4.74-.48,10.62-1.89,14.55,1.47,2.35,2,3.55,3.92,6.7,4.73,4.31,1.12,7.69,1.46,11.32,4.4a28.37,28.37,0,0,1,7.07,8.14c3.25,5.77,5.75,7.49,12.31,7.91a16.49,16.49,0,0,1,6.78,1.75c1.83,1,3.4,2.74,5.32,3.51,2.6,1,5.39.46,8-.13.62-.14,2-.65,1.88-1.48-.29-2.76-.65-5.5.15-8.21.75-2.55,2.49-4.75,3.21-7.27.46-1.61.6-2.12-.5-3.42-2.3-2.73-5.75-2.42-6.52-6.68-.09-.49.06-3-.89-2.29.24-.18,2.59,2.94,2.79,3.16a10.25,10.25,0,0,0,5.74,3.76,14.56,14.56,0,0,0,9.78-1c3.23-1.72,4.49-5.05,4.18-8.63s-1.8-5.94.16-9.52c1.49-2.7,4.29-5.07,5-8.15,1-4.1-2.41-5.77-5.72-6.94-6-2.12-12.55,0-17.54-4.47-4-3.58-6.33-7.2-11.7-8.89a15.22,15.22,0,0,1-7.73-4.74c-2-2.15-5.6-4.94-6.15-7.93-1.43-7.72,11.6-6.63,16.31-5a19.82,19.82,0,0,0,12.05.58c3.49-1,5.31-3,6.7-6.26,2-4.64,5.82-9.4,2.52-14.28-1.62-2.39-4.19-4.39-6.2-6.46-2.29-2.35-4.36-5.13-7.17-6.89-4.63-2.91-14.55-3.75-13.09-11.24.71-3.64,3.92-6,6.25-8.68,1.46-1.65,4.55-4.25,4.63-6.68.17-4.86-8.63-4.28-11.72-4.78-3.84-.62-8.4-.93-9.21-5.5-.47-2.67,0-3.9-2.24-5.7-1.9-1.5-4.08-1.78-4.51-4.51-.48-3.08,1.88-7.18,2.9-10,.12-.32-.16-.53-.4-.65-3.85-1.8-8.06-2.94-10.38-6.8-.24-.4-2.08-3.39-2.07-3.92,0-2.6,2.3-1.74,4.35-1.67,5.61.17,12.63-.71,16.8-4.77a.54.54,0,0,0,0-.76c-4-3-7.48-6.92-12.53-8-4.73-1-10,1.5-14-1.74l-1.74,1.7c6.63-1.93,4.88-6.89,6-12.94,1.43-7.86,4.48-17,1.92-24.86-.36-1.1-2.81-.3-3.41.07-4.31,2.69-9.3,5-12.78,8.79-4.13,4.49-5.91,10.69-9.47,15.61l3.95-.82c-3.37-2.26-1.07-6.64-.13-9.84a70.24,70.24,0,0,0,2.5-11.16,63,63,0,0,0-1-21,.62.62,0,0,0-.41-.38c-8.37-2.2-7.32,10.84-12.24,13.74l3.27-.29c-4.07-2.73-4.16-7.76-5.25-12.25-.19-.8-1.92-.48-2.37-.34-8.37,2.47-7.54,9.5-7.91,17.1-.2,4,.25,6.48,2.55,9.87,3.26,4.79,6.19,8.58,4.85,14.55-.78,3.45-3.55,8-2.1,11.56.7,1.71,2.28,3.25,3.11,4.87a15.77,15.77,0,0,1,1.78,8.36c-.54,10-3.33,20-3.56,30-.19,8.17,6.86,9.47,13.27,12.08,3.28,1.33,12.14,3.63,13.05,7.32.84,3.4-6.67,7-7.5,10.84-1,4.59,1.16,9.55.27,14.33s-4.06,10-4,15a12.19,12.19,0,0,0,1.25,4.84,15.64,15.64,0,0,1,1.31,7.83c-.46,5.43-2.42,9.65-5.26,14.21-2.08,3.34-4.1,6.85-3.57,10.93.58,4.47,3.94,6.44,6.39,9.8s.41,5-1.82,7.87c-1.83,2.37-3.69,4.72-5.57,7-2.41,3-5.56,5.55-4.47,9.69.34,1.28,4.6.16,4.26-1.14-1.12-4.22,4-8.38,6.37-11.42,2-2.5,6.34-6.28,7-9.55.47-2.49-1.95-4.35-3.5-6-3.54-3.75-5.58-7.53-3.6-12.73,1.43-3.73,4.27-6.65,5.85-10.31A28.86,28.86,0,0,0,324,279.69c-.12-2.27-1-3.78-1.83-5.85a10.62,10.62,0,0,1-.11-7.58c1.41-4.68,3.46-9.51,3.67-14.43.18-4.14-1.84-9.1.23-12.79,1.46-2.6,7.71-5.8,7.65-9.07,0-2.08-2.8-2.85-4.32-3.67A129.68,129.68,0,0,0,315,220.06c-3.76-1.49-7.94-2.63-8.78-7.17-.79-4.32.7-9.81,1.24-14.13,1-8,4.39-18.62.78-26.3-.89-1.89-2.7-3.65-3.43-5.53-.95-2.46.43-5.13,1.13-7.5,1.33-4.52,2.26-8.08,0-12.4s-6.35-8-6.55-13.11c-.17-4.16-1-15.54,4.23-17.09l-2.37-.34c1.16,4.77,1.22,9.8,5.53,12.69.89.6,2.43.21,3.27-.29,5-2.93,5-10.07,9.07-14l-3.67,1c2.25.59,2,9.83,2,11.85a67.92,67.92,0,0,1-1.42,13.68c-1,4.7-6.36,13.33-1.24,16.78a3.53,3.53,0,0,0,3.95-.82c3-4.17,4.71-9,7.58-13.23,3.18-4.68,8.63-7.18,13.32-10.1l-3.41.07c2,6.1.22,12.54-.87,18.68-.5,2.83-1,5.65-1.54,8.48-.15.86-.69,7.37-1.72,7.67-.29.08-2.63,1-1.74,1.7a9.22,9.22,0,0,0,7.24,2.42c3.44-.17,6.54-.91,9.89.44,2.48,1,4.23,2.91,6.26,4.55,1.6,1.29,2.24.78.44,2.38-1.39,1.24-3.25,1.46-5.06,1.6-2.81.23-5.67-.73-8.41-.38s-4,2.1-5.83,3.93a.54.54,0,0,0,0,.76c3.19,5,4.47,8.14,10.06,10.61,1.63.72,2.54.55,2.79,2.53.12.94-1.21,3.18-1.5,4.12-.6,1.9-1.35,4.15-.55,6.11a6.41,6.41,0,0,0,2.68,2.73c1.28.89,2.84,1.24,3.5,2.84.46,1.11.07,2.27.25,3.41.89,5.6,7.24,5.92,11.76,6.61,2.25.35,8.49,0,9.21,2.79.64,2.47-5.22,7.48-6.71,9.09-3,3.24-6.55,8.32-3,12.56s10.32,4.46,14.42,8.06c2.67,2.34,5,5.25,7.49,7.79,3.49,3.56,5.91,6.09,3.59,11-1,2.24-1.93,5.47-3.26,7.42-4.16,6.11-8.44,1.32-12.88.61-2.09-.33-4.08.18-6.22.15-3,0-6.23-.36-9.24.35a7.73,7.73,0,0,0-6.05,5.38c-1.46,5.14,3.09,8.43,6.22,11.78a17.28,17.28,0,0,0,5.28,4.25c3.2,1.49,6.29,1.56,9.14,4,4.24,3.66,6.7,8.35,12.78,9.16,4.33.58,16.82-.79,15.22,6.63-.73,3.39-4.19,5.86-5.53,9-1.26,2.95-.37,4.83.09,7.82.77,4.93-1.45,9.69-7.32,7.59-3.67-1.31-4.6-5.32-7.77-7.21-2.36-1.41-5.79-.81-6.66,2-.56,1.83.39,5.55,1.4,7,1.63,2.41,6.23,2.68,6.27,5.88,0,2.69-3.13,6.07-3.74,8.87a24.78,24.78,0,0,0,.09,7.75l1.88-1.48c-4.75,1.06-9.2-4-13.71-5-3.29-.76-7.37.2-10.17-1.91s-3.31-5.44-5.16-8.12a31.46,31.46,0,0,0-7.09-6.74,19.62,19.62,0,0,0-6.83-3.3c-2.51-.62-5-.41-7.25-2-1.5-1.09-2.37-2.77-3.89-3.84-4.64-3.28-11.6-1.61-16.82-1.08C305.74,341.72,304.06,343.88,307,343.58Z"/><path class="cls-2" d="M270.35,559.69c2.12-2.9,1.78-5.49,1.75-8.94,0-5.53.43-11.09.68-16.61.44-9.34,1-18.7.71-28.05-.3-10.22-2.55-20.26-3.81-30.39-.63-5.08-1.16-10.17-1.82-15.25-.69-5.26-2.12-10.38-2.79-15.64-1.24-9.84-3.28-19.37-5.06-29.1-.75-4.07-1.11-8.27-2.57-12.18-1.85-4.92-4.82-9.43-7.35-14-3.94-7.14-8.23-14.35-14.25-20a51.13,51.13,0,0,0-9.44-7.48c-4-2.22-8.51-3.58-12.74-5.21-10.51-4.06-20.64-7.37-30.09-13.73a48.85,48.85,0,0,1-10.42-8.9c-2.5-3-3.71-7.25-7.18-9.22-1-.54-3,.16-3.67,1-2.11,2.78-1.57,8.94-1.94,12.37-.52,4.85-.09,9.24-.14,14.1-.1,10.8-3.11,21.17-5.26,31.67a95.91,95.91,0,0,0-1.34,28.22,93.27,93.27,0,0,1-.2,17.15c-.45,4.51-.81,9.51.54,13.86,2.16,7,3.2,14.12,10.27,17.59a77,77,0,0,1,12,6.76c3.23,2.37,5.95,5.14,9.67,6.78a33.51,33.51,0,0,0,23.24.63c5.88-2.22,6.67-10.32,6.83-15.83.27-9.12-4.71-13.6-10.49-19.69-6.37-6.71-8.33-15.17-13.37-22.6-2.26-3.33-5.13-5.66-8-8.37-3.45-3.22-5.52-7.78-7.55-12s-.74-8.23-.86-12.75c-.13-5.34-1.77-10.67-2.84-15.87-1-4.77-2.39-9.78-2.73-14.64a6.15,6.15,0,0,1,0-2.42c1.47-2.94,1.53-1.17,2.66-.64,2.14,1,4.2,3.79,6.2,5.2,3.51,2.48,6.52,4.41,9.29,7.78a99.31,99.31,0,0,1,8.91,13.44c10.19,17.53,17.06,36.52,23.91,55.56a248.33,248.33,0,0,1,9.17,33.38c2.4,11.36,5.76,22.49,8.9,33.66,1.47,5.23,2.34,10.64,3.87,15.82A100.11,100.11,0,0,0,249.63,531c5,10.06,11.36,19.38,16.63,29.31.69,1.3,4.79-.14,4.26-1.14-9.15-17.22-20.41-32.78-24.7-52.09-2.23-10.06-5.6-19.91-8.25-29.86s-4.11-19.93-6.71-29.76-6.64-19.49-10.16-29.06-7.31-18.86-11.3-28.14a142.56,142.56,0,0,0-13-23c-2.33-3.43-4.94-7.31-8.18-10-3.5-2.86-7.5-4.8-10.83-8-2-1.92-2.69-2.3-5.38-1.71-1.72.38-4.16,1.11-5.32,2.58-1.28,1.63-.88,3.68-.6,5.59.79,5.46,2,10.88,3.15,16.28,1.07,5.07,2.6,10.29,2.19,15.52-.38,4.91-.33,7.8,2,12.32,1.8,3.43,3.25,6.77,6,9.59s5.63,4.82,7.9,7.91c5.09,7,6.9,15.41,12.64,22.06,2.82,3.27,6.49,5.8,8.82,9.47a20.48,20.48,0,0,1,2.81,13.56,41.8,41.8,0,0,1-1.47,6.87c-1,3.45-1.88,4.12-5.49,4.8a25.43,25.43,0,0,1-17.73-2.86c-3.82-2.3-6.93-5.55-10.79-7.85-3.49-2.08-7.77-3.37-11-5.83-3.91-3-4.09-7.61-5.57-11.91a37.08,37.08,0,0,1-1.87-16.78c1.14-11.88-1.55-23.67-.15-35.48,1.31-11,4.86-21.6,6.27-32.58a84.21,84.21,0,0,0,.5-15.08,62.24,62.24,0,0,1,.51-9.89c.26-2.44-.06-8,1.42-9.92l-3.67,1c2.92,1.65,4.46,6.3,6.64,8.9a45.56,45.56,0,0,0,9,7.94,91,91,0,0,0,22.29,11.47c8.39,2.91,18.61,5.48,25.7,11s12.28,12.09,16.94,19.68,9.78,15.84,11.58,24.73,3.77,18,5.1,27.09c2.79,19.1,5.65,38.18,8.32,57.32,1.48,10.62,1.35,21.32.8,32-.3,5.8-.55,11.6-.81,17.41-.19,4.29.87,11.85-1.68,15.33C265.41,561.14,269.61,560.69,270.35,559.69Z"/><path class="cls-2" d="M161.76,313.22c2-7.09,1.82-14.85,2.51-22.17a90.17,90.17,0,0,1,4.52-22c2.48-7.18,4.1-14.49,6-21.83s3.75-14.42,3.36-22.08c-.41-8.06-4.48-13.11-8.64-19.73-4.33-6.89-6.64-14.61-8.48-22.51-3.61-15.5-6.22-31.13-8.92-46.81-.24-1.4-3.9,0-4.24.88-1.14,2.95-3.19,5.61-4,8.67-.94,3.72-.64,7.76-1.17,11.55-1.19,8.57-4,17.15-6.33,25.46-4.67,16.52-9.31,33.21-16,49a199.27,199.27,0,0,1-12.24,24q-3.21,5.38-6.8,10.53c-1.83,2.61-4.64,5.27-5.44,8.43-.74,2.92.16,6.52.42,9.49.4,4.57.82,9.13,1.31,13.69.47,4.36-.47,12.63,5.49,13.07,3.61.26,7.51-1,11.1-1.4,5.35-.6,10.84-.72,16.22-.85,4.87-.12,9.75-.17,14.63-.14,5.85,0,8.42,2.32,12.63,5.76,1.05.86,5-.78,4-1.58-4.23-3.46-7.2-6.21-12.92-6.33-8.63-.18-17.32.06-25.94.47q-5.37.25-10.68,1c-2.37.31-6.7,1.52-8.65-.28-.93-.86-.8-4-.94-5.11-1-8.18-2.08-16.51-2.43-24.75-.21-5,2.47-7.63,5.16-11.48q3.6-5.13,6.8-10.53a211.35,211.35,0,0,0,10.66-20.29c7-15.38,11.66-31.71,16.36-47.91,2.7-9.31,5.53-18.71,7.43-28.22.85-4.24.7-8.57,1.37-12.82.56-3.52,2.92-6.72,4.21-10.08l-4.24.88c2.64,15.36,5.2,30.66,8.7,45.85,1.72,7.47,3.67,15.33,7.71,21.9,3.9,6.33,8.86,12.07,9.53,19.74.72,8.18-1.35,15.65-3.34,23.46-1.84,7.23-3.41,14.42-5.85,21.49a90.49,90.49,0,0,0-4.52,22c-.69,7.33-.46,15.09-2.51,22.17C157.16,315.11,161.39,314.52,161.76,313.22Z"/><path class="cls-2" d="M245.24,116l-.85-.54c-1.06-.68-2.73-.13-3.66.55-10.51,7.61-19,17.64-29.48,25.35a131.14,131.14,0,0,0-26.09,24.81,135.2,135.2,0,0,0-9.92,14.58c-2.82,4.72-4,9.18-5.54,14.4-.72,2.51-2.23,4.26-1.34,6.89,1,2.83,3.23,5.69,4.78,8.25,3.18,5.23,4.36,9.94,6.1,15.72.35,1.16,2.8.22,3.41-.07,5.27-2.52,10.21-5.59,15.37-8.32,4.11-2.18,8.41-3.73,11.55-7.31a20.86,20.86,0,0,0,5.31-11.85c.67-6.56,3.52-10.87,6.77-16.5,5.66-9.83,10-20.54,13.92-31.18,4-10.8,9.13-22.73,9.8-34.3.09-1.51-4.16-.63-4.23.61-.6,10.45-5.08,21-8.55,30.82a233.08,233.08,0,0,1-13,30.62c-2.38,4.54-5.69,8.72-7.57,13.51-2,5.21-1.12,10.31-4.19,15.26-3.19,5.13-8.15,7-13.23,9.74-4.87,2.63-9.57,5.5-14.57,7.88l3.41-.07c-1.35-4.47-2-8.89-4.38-13-1.74-2.95-3.63-5.81-5.29-8.8-.87-1.57-1.44-2.35-1.29-4.2.13-1.55,1-2.88,1.4-4.36a63.54,63.54,0,0,1,6.53-16,127.45,127.45,0,0,1,9.72-13.85c7.46-9.48,16.26-16.78,25.88-23.94,9.94-7.41,18-17,28-24.29l-3.66.55.85.54C242.43,118.34,246.2,116.62,245.24,116Z"/><path class="cls-2" d="M256.89,384c5.4-4.33,8.33-9.69,11.61-15.67,1.76-3.22,3.68-6.36,5.36-9.62,1.57-3,2-6.06,3.22-9.2s5.79-9.49,1.34-12.32c-2.17-1.39-6-1.3-8.56-1.79-3.9-.76-7.81-1.53-11.74-2.15-15.69-2.48-31.42-4.57-47.08-7.19a89.16,89.16,0,0,0-21.07-.93c-5.5.36-10.45,1-15,4.23-.15.1-.6.55-.45.81,7.77,13.67,25.28,19.57,39.25,24.37,4.32,1.48,9,2.36,13.22,4.15,4,1.72,7.47,4.85,10.67,7.75,6,5.47,10.46,11.89,15.61,18.1.82,1,4.9-.47,4-1.58-8.54-10.31-16.7-23.19-30.26-27.24-14.47-4.32-31.24-9.14-42.5-19.71-1.06-1-2.69-2.26-3.37-3.56-1-1.93-1.9-.43.69-3,2.24-2.23,1.19-1.33,3.23-1.9,4-1.13,9.78-.8,14-.6a156.54,156.54,0,0,1,24.22,3.38c16,3.35,32.77,3.64,48.49,8,3.36.94,4.65,1.57,4,5.16-.34,2-1.48,3.38-2.28,5.18-1.56,3.47-2,7.18-3.81,10.62-4.39,8.4-8.59,18.17-16.08,24.19C251.72,385,255.95,384.8,256.89,384Z"/><path class="cls-2" d="M101,341.85C99.4,331.56,97.53,321.3,96.14,311c-.72-5.3-1.06-10.82-2.15-16.05-1-4.55-2.83-9-4.24-13.43-.94-2.94-1.17-4.89-4.37-5.24s-7.19.75-10.32,1.8a26.22,26.22,0,0,0-14.63,11.38c-1.94,3.29-3,7-4.32,10.54-2,5.35-4.06,10.66-6,16s-3.68,10.52-5.49,15.79c-1.62,4.72-1.09,6.17,2.63,9.57,3.52,3.22,10.9,9,16,5.65,1.6-1,1.65-2.28,1.79-4.06.49-6.16,2.1-12.06,3.6-18.06.78-3.11,1.45-6.3,2.46-9.35a23.28,23.28,0,0,1,1.11-2.83c1-2.15,1.42-3.87,3.92-3.38,2.78.55,2.28,3.22,2.51,5.81s.48,5.29.85,7.91c1.52,10.58,7.57,17,17.62,20.31,1.16.38,5-1.38,3.43-1.91C91.79,338.56,85.68,333,84,323.71c-.69-3.91-.83-7.88-1.29-11.81-.25-2.13-.42-4.49-2.47-5.56-4-2.05-8.55.79-10.6,4-4.52,7.07-5.61,16.49-7.53,24.55-.18.74-1.32,10.8-1.53,10.88-1.06.41-5.43-2.86-5.82-3.13a33.72,33.72,0,0,1-4.7-3.93c-3.88-3.9-.87-8.66.66-13.12,1.58-4.61,3.19-9.21,4.89-13.78,2.93-7.9,5.07-17.73,10.08-24.58a20.74,20.74,0,0,1,8.47-6.81,17.38,17.38,0,0,1,6.71-1.79c3.72.09,4.16,2.74,5.14,5.75,1.45,4.48,3.26,8.89,3.93,13.56.72,5,1.34,10.07,2,15.11,1.36,10,3.19,19.94,4.72,29.92C96.91,344.21,101.19,343.25,101,341.85Z"/><path class="cls-2" d="M317.3,243.65c-7.44,6-14.18,13.42-20.53,20.52-1.89,2.11-6.13,5.58-5.88,8.79.31,3.85,5.92,4,7.12,7.55s-2.45,6.25-2.19,9.64,3.43,3.6,5,5.94c2,3.11-3.42,6.91-2.9,10.46s6.06,3.68,8.73,4.39c1.24.33,3.16-.06,3.83-1.26,1.25-2.23.73-4.91,1.6-7.35,1-2.92,3-5.3,4.51-8,2.53-4.36,4.95-11,4.24-16.12-.39-2.81-2.42-4.89-2.85-7.65-.49-3.15,1-6.52,1.88-9.5,1.88-6.55,3.15-11,1.3-17.8-.35-1.28-4.61-.15-4.26,1.14,1.91,7,.2,12.17-1.71,18.86-.66,2.31-1.6,4.6-1.57,7,0,3,1.88,4.88,2.67,7.61,1.82,6.33-2.35,14.21-5.49,19.35a30.81,30.81,0,0,0-2.95,5.63c-.8,2.26-.47,5.33-1.6,7.35L310,309c-1.59-.43-5.43-.74-6.63-1.85-2.43-2.26,0-5.46,1.09-7.6.8-1.54,1.8-2.67.9-4.37-1.64-3.08-6-2.91-5.13-7.48.5-2.57,2.59-4.59,2.2-7.4-.3-2.18-1.8-3.53-3.52-4.71-3.06-2.12-4.94-3-2.4-6.69a57.28,57.28,0,0,1,4.73-5.52c6-6.66,12.36-13.69,19.36-19.3C322.47,242.68,318.24,242.89,317.3,243.65Z"/><path class="cls-2" d="M351,368.73c-2.6-4.37-4.15-9.08-8-12.61a19.91,19.91,0,0,0-5.9-4c-2.39-.93-5-.78-7.4-1.7-4.88-1.87-6.72-6.11-12.22-5.67-3.65.29-10.94.74-13.73,3.48S302,358.5,302.59,362c.8,4.88,2.59,7.36,7.45,8.4a58.42,58.42,0,0,0,17.87,1.29c4.25-.46,8-2.32,12.36-2,2.59.2,5.09.54,7.7.64,1.45.06,4.57-2,1.73-2.15-3.69-.15-7.42-1-11.11-.69-5.46.42-10.22,2.38-15.86,2.05-3.89-.23-11.07-.2-13.9-3.13s-3.26-12-2.22-15.57c1.53-5.25,11.22-4.16,14.6-1.48a19,19,0,0,0,8.1,3.82c4.61.91,7.95,2.43,11.16,5.95,2.79,3.06,4.14,7.16,6.24,10.69C347.47,371.15,351.52,369.66,351,368.73Z"/><path class="cls-2" d="M155.09,384.63c5.11-12.64,7-27,6.36-40.54-.21-4.36,0-8.65.08-13,.09-3.17,1-7.35.14-10.38-.74-2.7-4.34-4.56-6.52-6-1.86-1.26-3.72-2.68-6-2.75-5-.14-6.42,3.71-7.34,8-1.66,7.66.83,13.32,2.92,20.56a87,87,0,0,1,3.15,21.41,182.86,182.86,0,0,0,3,23.65c.21,1.23,4.49.24,4.26-1.14-1-5.95-2.26-11.86-2.71-17.89s.08-12.22-1.07-18.08-3.59-11.52-5.21-17.33a23.32,23.32,0,0,1-.44-10.07c.2-1.27.31-3.17,1-4.31q-.16-2.42,1.81-1.57a3.25,3.25,0,0,1,2.72,1.11c2,1.11,5.49,3.36,6.24,5.6s0,6.09-.09,8.49c-.18,6.48,0,12.82,0,19.27,0,11.89-2,24.57-6.5,35.65C150.39,386.38,154.57,385.91,155.09,384.63Z"/><path class="cls-2" d="M141.19,311.59c-9-.79-18.43-.14-27.36.77-3.66.37-13.2.87-10.15,6.91,1.53,3,5.49,4.13,8,6.17,3.26,2.66,5.53,6.24,8.73,9,3.61,3.06,7.54,5.68,11,8.9,3.24,3,6.17,6.33,9.18,9.56.85.92,4.09-.06,4.11-1.36.11-6.8-2.85-12-4.35-18.45a37.26,37.26,0,0,1-.66-11.48c.33-3.23,1.71-6.08,2.27-9.24.25-1.41-4-.68-4.23.61-.61,3.47-2.06,6.51-2.32,10.08a42,42,0,0,0,.4,9.48c1.13,7.07,4.76,12.77,4.64,20.14l4.11-1.36a134.81,134.81,0,0,0-13.65-13.41c-2.54-2.05-5.32-3.86-7.71-6.09s-4.39-5.17-7-7.41c-2.11-1.82-5.55-3.05-7.38-5-4.55-4.94,1.41-4.61,5-4.94,8-.73,16.64-1.41,24.69-.7C139.7,313.79,143.47,311.79,141.19,311.59Z"/><path class="cls-2" d="M300,162.06c.76-3.31,2.47-7.39,2.39-10.8-.06-2.75-2.95-6.4-4.35-8.71a23.63,23.63,0,0,1-3.88-11.5c-.25-2.41-.19-3.92-2.48-5.08-1-.49-2.61.15-3.39.71-6.2,4.46-6.93,12.7-5.15,19.69,1.52,6,7,15.55,13.41,17,1.19.28,5-1.56,2.66-2.1-2.51-.58-5.36-4.39-6.86-6.3a26.51,26.51,0,0,1-4.76-9.1c-1.81-6.32-1.75-14.58,4-18.76l-3.39.71c2.35,1.19,1.75,6.13,2.09,8.24a17.08,17.08,0,0,0,2.82,6.67c1.42,2.27,4.19,5.58,4.76,8.26.7,3.32-1.42,8.41-2.16,11.63C295.5,164,299.75,163.36,300,162.06Z"/><path class="cls-2" d="M349.37,371.75c-.37,3.81-1.12,7.36-1.73,11.1-.3,1.83-.33,4,1.12,5.37,3.69,3.51,11.92,0,15.78-1.26,1.77-.58,3.72-1.24,4.58-3,.64-1.34.34-3,.59-4.39.19-1.12.84-2.53.64-3.7-.34-2-2.66-2.7-4.36-3.24-4.2-1.35-8.52-.36-12.78-2.08-1.13-.46-5,1.26-3.43,1.91a23.58,23.58,0,0,0,6.72,1.67c2.61.24,5.27-.08,7.71,1,2.15,1,1.93,1.79,1.53,3.88-.45,2.32,0,5.15-2.28,6.33-2.76,1.4-10.63,4-11.62-.41-.5-2.25.6-4.4,1-6.56.46-2.35.52-4.83.75-7.21C353.75,369.65,349.49,370.49,349.37,371.75Z"/><path class="cls-2" d="M300.34,172.75c-1.32,5.18-1.93,8.84-4.94,13.47a34.09,34.09,0,0,0-5,12.55c-1.19,6.56-.82,16.35,7.53,17.27,1,.11,3.49-.27,3.46-1.62-.16-8,1.51-15.8,2.76-23.71.93-5.91,3.51-13.28.43-18.84-.72-1.29-4.79.17-4.26,1.14,3.34,6,.07,15.46-1,21.92-1.14,6.94-2.34,13.59-2.2,20.63l3.46-1.62c-9.59-1.06-6.46-16.35-4.2-22.15,1.43-3.68,4.09-6.5,5.76-10,1.43-3,1.61-6.43,2.42-9.64C304.91,170.81,300.67,171.44,300.34,172.75Z"/><path class="cls-2" d="M250.36,77.52l-1.86,12.33c-.24,1.61,3.76.35,4.23-.61a19.94,19.94,0,0,0,1.87-12.6c-.23-1.24-4.51-.24-4.26,1.14a19,19,0,0,1-1.85,12.07l4.23-.61,1.86-12.33C254.81,75.47,250.55,76.23,250.36,77.52Z"/></g></svg>