<svg id="Layer_1" data-name="Layer 1" xmlns="http://www.w3.org/2000/svg" viewBox="0 0 139.78 70.8"><defs><style>.cls-1,.cls-2{fill:#fff;}.cls-1{stroke:#fff;stroke-miterlimit:10;stroke-width:0.28px;}</style></defs><title>DDLogo_White</title><path class="cls-1" d="M8.28.73c4.49,0,8.13,3.81,8.13,8.93s-3.64,9-8.13,9H.14v-.07H1.3V.81H.14V.73ZM5.79,18.57c5,0,5.66-3.85,5.66-8.92S10.77.81,5.79.81Z" transform="translate(0 0)"/><path class="cls-1" d="M35.1,18.65H27.94v-.07h1.17L26.6,12h-4l-2.51,6.57h2.37v.07H18.83v-.07H20L27,.4l6.94,18.18H35.1ZM24.61,6.78l-2,5.15h3.93Z" transform="translate(0 0)"/><path class="cls-1" d="M51.49,7.45A6.67,6.67,0,0,0,44.35.81V9.7c4.53,0,4.53-3.7,4.53-3.7H49v7.47h-.07s0-3.7-4.53-3.7v8.81h1.16v.07H38.71v-.07h1.16V.81H38.71V.73H51.57V7.45Z" transform="translate(0 0)"/><path class="cls-1" d="M69.31,7.45A6.67,6.67,0,0,0,62.17.81V9.7C66.7,9.7,66.7,6,66.7,6h.07v7.47H66.7s0-3.7-4.53-3.7v8.81h1.16v.07H56.52v-.07h1.16V.81H56.52V.73H69.39V7.45Z" transform="translate(0 0)"/><path class="cls-1" d="M89.84,9.66c0,5.11-3.64,9.26-8.14,9.26s-8.14-4.14-8.14-9.26S77.21.4,81.71.4,89.84,4.54,89.84,9.66Zm-5,0c0-5.07-.67-9.19-3.16-9.19s-3.17,4.11-3.17,9.19.68,9.18,3.17,9.18S84.87,14.73,84.87,9.66Z" transform="translate(0 0)"/><path class="cls-1" d="M102.23.73c4.49,0,8.13,3.81,8.13,8.93s-3.64,9-8.13,9H94.09v-.07h1.16V.81H94.09V.73ZM99.74,18.57c5,0,5.66-3.85,5.66-8.92S104.72.81,99.74.81Z" transform="translate(0 0)"/><path class="cls-1" d="M121.44,18.58v.07h-6.81v-.07h1.16V.81h-1.16V.73h6.81V.81h-1.16V18.58Z" transform="translate(0 0)"/><path class="cls-1" d="M139.64,18.65h-13.5v-.07h1.16V.81h-1.16V.73H133V.81h-1.16V18.58c7.76,0,7.78-6.65,7.78-6.65h.07Z" transform="translate(0 0)"/><path class="cls-2" d="M9.71,40.64,14.9,29.27c.64-1.46,1.34-1.92,1.93-1.92,1,0,.52,1.34.18,2.16L10.24,45.66c-.87,2,.18,2.57,1,2.57,2.45,0,8.63-3.44,12.31-5.48l2.62-1.46c.18-.12.41,0,.52.23a.44.44,0,0,1-.06.58L24,43.56c-5.25,2.92-10.85,5.78-13.3,5.78-3.67,0-3.56-2.39-2.8-4.43-1.69,2.16-3.85,4.43-5.48,4.43a1.92,1.92,0,0,1-2.16-2.1C.26,44.2,3.82,40,7.5,40A4,4,0,0,1,9.71,40.64Zm-6.65,6.3c0,.64.23.64.53.64,1.11,0,4.38-3.68,5.54-5.83a1.56,1.56,0,0,0-1.34-.82C5.45,40.94,3.06,45.14,3.06,46.94Z" transform="translate(0 0)"/><path class="cls-2" d="M28,40.29A2.44,2.44,0,0,1,29.2,40c.7,0,1.28.41.82,1.52l-2,4.9c-.41.93-.58,1.75.87,1.75,2.39,0,11.38-3.21,15.46-4.73a.38.38,0,0,1,.47.29c.06.23.06.41-.12.53-7.18,2.62-13.88,5.07-17.27,5.07-1.69,0-2.8-1.05-2.1-2.68L27,42.45c.12-.29-.18-.47-.53-.29a.44.44,0,0,1-.64-.18.47.47,0,0,1,.18-.64Zm3.85-8.93A1.92,1.92,0,1,1,30,33.29,1.94,1.94,0,0,1,31.88,31.37Z" transform="translate(0 0)"/><path class="cls-2" d="M50.9,41.05c.06,0,.35-.06.52-.06,1.11,0,1.11.88.64,2L48.8,50.79c4-2.62,9.45-5.78,16.51-9.51.18-.12.41,0,.53.23a.44.44,0,0,1-.06.58A180.36,180.36,0,0,0,48,52.54C44.14,61.88,40.11,70.8,35.15,70.8c-1,0-1.63-.93-1.63-2.22,0-3.62,3.68-9,9.22-13.47.76-.64,1.69-1.28,2.62-2l3.44-8.52c-1.63,2.22-4,4.72-5.66,4.72A1.92,1.92,0,0,1,41,47.24c0-3,3.56-7.23,7.23-7.23A3.55,3.55,0,0,1,50.9,41.05Zm-6.24,14c-4.32,3.09-10.09,11-10.09,13.88,0,.41.17,1,.76,1C37.78,69.93,41.86,62.34,44.66,55.05Zm-.88-8.11c0,.64.23.64.53.64.82,0,4.38-3.68,5.54-5.83a1.56,1.56,0,0,0-1.34-.82C46.18,40.94,43.79,45.14,43.79,46.94Z" transform="translate(0 0)"/><path class="cls-2" d="M67.24,40.29A2.43,2.43,0,0,1,68.4,40c.7,0,1.28.41.82,1.52l-2,4.9c-.41,1.05-.64,1.75.87,1.75,2.86,0,11.61-4.84,15.4-6.88.18-.12.41,0,.53.23a.44.44,0,0,1-.06.58c-6.65,3.56-13.36,7.23-17.32,7.23-1.69,0-2.8-1.05-2.1-2.68l1.75-4.2c.12-.29-.18-.47-.53-.29a.44.44,0,0,1-.64-.18.47.47,0,0,1,.18-.64Zm3.85-8.93a1.92,1.92,0,1,1-1.93,1.92A1.94,1.94,0,0,1,71.09,31.37Z" transform="translate(0 0)"/><path class="cls-2" d="M88.42,43.56a19.56,19.56,0,0,0,3.27.23,26.61,26.61,0,0,0,11.61-2.51c.18-.12.41,0,.53.23a.44.44,0,0,1-.06.58c-3.27,1.81-8.17,2.62-12.07,2.62a23.89,23.89,0,0,1-3.62-.29c-.82,1.92-1.58,3.79-1.81,4.26s-.64.64-1.52.64a.68.68,0,0,1-.76-.76c0-1.75-1.75-5-4.26-7L78.79,41c-.18-.12-.41-.29-.41-.41s.64-.76.87-.58l.88.64a12.91,12.91,0,0,0,2.27,1.23,19.77,19.77,0,0,0,5.78-4.26,71.12,71.12,0,0,1,4.08-8.17c.93-1.57,1.34-2.1,1.87-2.1s.7.7.12,2.16Zm-6.07-.7a13,13,0,0,1,2.27,3.91c.29-.87,1-2.86,1-2.86A25.14,25.14,0,0,1,82.35,42.86Zm3.62.23,1.4-3.44a17.91,17.91,0,0,1-3.85,2.68A21,21,0,0,0,86,43.09Z" transform="translate(0 0)"/><path class="cls-2" d="M109.36,41.05a3.1,3.1,0,0,1,.47-.06c1.23,0,1.23.93.88,1.75l-1.4,3.32c-.7,1.63,0,2.16.7,2.16,2.33,0,9-3.62,12.31-5.42l2.86-1.52c.18-.12.41,0,.52.23a.44.44,0,0,1-.06.58l-2.86,1.52c-5.6,3-10.79,5.72-13.42,5.72-2.8,0-3.5-1.75-2.86-3.33-1.46,1.75-3.15,3.33-4.49,3.33a1.92,1.92,0,0,1-2.16-2.1c0-3,3.32-7.23,6.82-7.23A6.44,6.44,0,0,1,109.36,41.05Zm-6.71,5.83c0,.64.35.7.64.7,1.11,0,4-3.33,5.13-5.83a1.88,1.88,0,0,0-1.46-.82C105.22,40.94,102.65,45.08,102.65,46.89Z" transform="translate(0 0)"/><path class="cls-2" d="M135.44,27.34c.93,0,1.05.64,1.05,1.17,0,2.45-3.62,8.58-8.58,12.19L126,45.14c-1,2.33-.18,3.27.93,3.27,3.27,0,7.7-2.22,11.9-5.25.18-.12.35.06.41.23a.39.39,0,0,1-.18.47c-4.32,3.09-8.75,5.48-12.13,5.48-4,0-4.32-2.16-3-5.31,0,0,.58-1.4,1.69-4C129.84,29.91,134,27.34,135.44,27.34ZM128.61,39c3.73-3.27,6.88-8.58,6.88-10.38,0-.12,0-.41-.35-.41C134.39,28.22,132.64,29.62,128.61,39Z" transform="translate(0 0)"/></svg>