<?xml version="1.0" encoding="utf-8"?>
<!-- Generator: Adobe Illustrator 19.1.0, SVG Export Plug-In . SVG Version: 6.00 Build 0)  -->
<svg version="1.1" id="Layer_1" xmlns="http://www.w3.org/2000/svg" xmlns:xlink="http://www.w3.org/1999/xlink" x="0px" y="0px"
	 viewBox="0 0 380.3 114.3" style="enable-background:new 0 0 380.3 114.3;" xml:space="preserve">
<style type="text/css">
	.st0{fill:#7F7773;}
	.st1{fill:#F0E049;stroke:#FFFFFF;stroke-width:0.7266;stroke-miterlimit:10;}
</style>
<g>
	<g>
		<path class="st0" d="M1.7,2.4h5.4V12H17V2.4h5.4v24.4H17V17H7.1v9.8H1.7V2.4z"/>
		<path class="st0" d="M28.2,2.4h18.4v4.8H33.5v5H45v4.8H33.5V22h13.3v4.8H28.2V2.4z"/>
		<path class="st0" d="M52.5,2.4h5.4v19.5H70v4.9H52.5V2.4z"/>
		<path class="st0" d="M75.1,2.4h10c5.8,0,9.3,3.5,9.3,8.4v0.1c0,5.7-4.4,8.6-9.9,8.6h-4.1v7.3h-5.4V2.4z M84.7,14.7
			c2.7,0,4.3-1.6,4.3-3.7v-0.1c0-2.4-1.7-3.7-4.4-3.7h-4.2v7.5H84.7z"/>
		<path class="st0" d="M99.2,2.4h5.4v24.4h-5.4V2.4z"/>
		<path class="st0" d="M111.1,2.4h5l11.4,15v-15h5.3v24.4h-4.6l-11.8-15.5v15.5h-5.3V2.4z"/>
		<path class="st0" d="M137.7,14.6L137.7,14.6c0-7,5.4-12.7,12.8-12.7c4.4,0,7,1.2,9.6,3.3l-3.4,4.1c-1.9-1.6-3.6-2.5-6.4-2.5
			c-3.9,0-7,3.5-7,7.6v0.1c0,4.5,3.1,7.7,7.4,7.7c2,0,3.7-0.5,5.1-1.5v-3.5h-5.4v-4.6H161v10.6c-2.5,2.1-6,3.9-10.4,3.9
			C143,27.2,137.7,21.8,137.7,14.6z"/>
		<path class="st0" d="M177.3,2.4h11.3c2.8,0,5,0.8,6.4,2.2c1.1,1.1,1.7,2.5,1.7,4.2v0.1c0,2.8-1.5,4.3-3.2,5.3
			c2.8,1.1,4.6,2.7,4.6,6v0.1c0,4.5-3.6,6.7-9.1,6.7h-11.6V2.4z M187.5,12.2c2.4,0,3.9-0.8,3.9-2.6V9.6c0-1.6-1.3-2.5-3.5-2.5h-5.3
			v5.2H187.5z M188.9,22.1c2.4,0,3.8-0.8,3.8-2.7v-0.1c0-1.6-1.2-2.7-4-2.7h-6.2v5.4H188.9z"/>
		<path class="st0" d="M202.9,2.4H214c3.1,0,5.5,0.9,7.1,2.5c1.4,1.4,2.1,3.3,2.1,5.6v0.1c0,3.9-2.1,6.4-5.2,7.6l6,8.7h-6.3
			l-5.2-7.8h-0.1h-4.2v7.8h-5.4V2.4z M213.7,14.2c2.6,0,4.1-1.4,4.1-3.5v-0.1c0-2.3-1.6-3.5-4.2-3.5h-5.3v7H213.7z"/>
		<path class="st0" d="M237.3,2.2h5l10.5,24.6h-5.6l-2.2-5.5h-10.3l-2.2,5.5h-5.5L237.3,2.2z M243,16.5l-3.2-7.9l-3.2,7.9H243z"/>
		<path class="st0" d="M256.5,2.4h5l11.4,15v-15h5.3v24.4h-4.6l-11.8-15.5v15.5h-5.3V2.4z"/>
		<path class="st0" d="M284.2,2.4h9.5c7.7,0,13,5.3,13,12.1v0.1c0,6.9-5.3,12.2-13,12.2h-9.5V2.4z M293.7,21.9c4.4,0,7.4-3,7.4-7.3
			v-0.1c0-4.3-3-7.4-7.4-7.4h-4.2v14.7H293.7z"/>
		<path class="st0" d="M309.8,23.2l3.2-3.8c2.2,1.8,4.5,3,7.3,3c2.2,0,3.5-0.9,3.5-2.3V20c0-1.4-0.8-2.1-4.9-3.1
			c-4.9-1.3-8.1-2.6-8.1-7.5V9.4c0-4.4,3.6-7.4,8.5-7.4c3.6,0,6.6,1.1,9.1,3.1l-2.8,4c-2.2-1.5-4.3-2.4-6.3-2.4
			c-2.1,0-3.1,0.9-3.1,2.1v0.1c0,1.6,1,2.1,5.3,3.2c5,1.3,7.7,3.1,7.7,7.3v0.1c0,4.8-3.7,7.6-9,7.6
			C316.4,27.1,312.7,25.8,309.8,23.2z"/>
		<path class="st0" d="M7.4,50.9H0v-5h20.2v5h-7.4v19.5H7.4V50.9z"/>
		<path class="st0" d="M24.5,45.9h18.4v4.8H29.8v5h11.5v4.8H29.8v5.1h13.3v4.8H24.5V45.9z"/>
		<path class="st0" d="M48.2,45.9h5.4v19.5h12.2v4.9H48.2V45.9z"/>
		<path class="st0" d="M70.4,45.9h5.4v19.5h12.2v4.9H70.4V45.9z"/>
		<path class="st0" d="M108.8,50.9h-7.4v-5h20.2v5h-7.4v19.5h-5.4V50.9z"/>
		<path class="st0" d="M126.1,45.9h5.4v9.7h9.9v-9.7h5.4v24.4h-5.4v-9.8h-9.9v9.8h-5.4V45.9z"/>
		<path class="st0" d="M152.9,45.9h18.4v4.8h-13.1v5h11.5v4.8h-11.5v5.1h13.3v4.8h-18.6V45.9z"/>
		<path class="st0" d="M176.9,45.9h5.4v24.4h-5.4V45.9z"/>
		<path class="st0" d="M188.7,45.9h11.2c3.1,0,5.5,0.9,7.1,2.5c1.4,1.4,2.1,3.3,2.1,5.6v0.1c0,3.9-2.1,6.4-5.2,7.6l6,8.7h-6.3
			l-5.2-7.8h-0.1h-4.2v7.8h-5.4V45.9z M199.5,57.8c2.6,0,4.1-1.4,4.1-3.5v-0.1c0-2.3-1.6-3.5-4.2-3.5h-5.3v7H199.5z"/>
		<path class="st0" d="M223.4,66.8l3.2-3.8c2.2,1.8,4.5,3,7.3,3c2.2,0,3.5-0.9,3.5-2.3v-0.1c0-1.4-0.8-2.1-4.9-3.1
			c-4.9-1.3-8.1-2.6-8.1-7.5V53c0-4.4,3.6-7.4,8.5-7.4c3.6,0,6.6,1.1,9.1,3.1l-2.8,4c-2.2-1.5-4.3-2.4-6.3-2.4
			c-2.1,0-3.1,0.9-3.1,2.1v0.1c0,1.6,1,2.1,5.3,3.2c5,1.3,7.7,3.1,7.7,7.3v0.1c0,4.8-3.7,7.6-9,7.6
			C230.1,70.7,226.4,69.4,223.4,66.8z"/>
		<path class="st0" d="M253.3,50.9h-7.4v-5h20.2v5h-7.4v19.5h-5.4V50.9z"/>
		<path class="st0" d="M268.4,58.2L268.4,58.2c0-7,5.5-12.7,13-12.7c7.5,0,12.9,5.6,12.9,12.6v0.1c0,6.9-5.5,12.6-13,12.6
			C273.8,70.8,268.4,65.2,268.4,58.2z M288.8,58.2L288.8,58.2c0-4.3-3.1-7.7-7.4-7.7c-4.3,0-7.3,3.4-7.3,7.6v0.1
			c0,4.2,3.1,7.7,7.4,7.7C285.8,65.8,288.8,62.4,288.8,58.2z"/>
		<path class="st0" d="M299.5,45.9h11.2c3.1,0,5.5,0.9,7.1,2.5c1.4,1.4,2.1,3.3,2.1,5.6v0.1c0,3.9-2.1,6.4-5.2,7.6l6,8.7h-6.3
			l-5.2-7.8H309h-4.2v7.8h-5.4V45.9z M310.3,57.8c2.6,0,4.1-1.4,4.1-3.5v-0.1c0-2.3-1.6-3.5-4.2-3.5h-5.3v7H310.3z"/>
		<path class="st0" d="M325.3,45.9h5.4v24.4h-5.4V45.9z"/>
		<path class="st0" d="M336.8,45.9h18.4v4.8h-13.1v5h11.5v4.8h-11.5v5.1h13.3v4.8h-18.6V45.9z"/>
		<path class="st0" d="M358.8,66.8L362,63c2.2,1.8,4.5,3,7.3,3c2.2,0,3.5-0.9,3.5-2.3v-0.1c0-1.4-0.8-2.1-4.9-3.1
			c-4.9-1.3-8.1-2.6-8.1-7.5V53c0-4.4,3.6-7.4,8.5-7.4c3.6,0,6.6,1.1,9.1,3.1l-2.8,4c-2.2-1.5-4.3-2.4-6.3-2.4
			c-2.1,0-3.1,0.9-3.1,2.1v0.1c0,1.6,1,2.1,5.3,3.2c5,1.3,7.7,3.1,7.7,7.3v0.1c0,4.8-3.7,7.6-9,7.6
			C365.5,70.7,361.8,69.4,358.8,66.8z"/>
		<path class="st0" d="M2,89.5h5.4V114H2V89.5z"/>
		<path class="st0" d="M13.4,89.5h5l11.4,15v-15h5.3V114h-4.6L18.7,98.4V114h-5.3V89.5z"/>
		<path class="st0" d="M50.4,110.4l3.2-3.8c2.2,1.8,4.5,3,7.3,3c2.2,0,3.5-0.9,3.5-2.3v-0.1c0-1.4-0.8-2.1-4.9-3.1
			c-4.9-1.3-8.1-2.6-8.1-7.5v-0.1c0-4.4,3.6-7.4,8.5-7.4c3.6,0,6.6,1.1,9.1,3.1l-2.8,4c-2.2-1.5-4.3-2.4-6.3-2.4
			c-2.1,0-3.1,0.9-3.1,2.1v0.1c0,1.6,1,2.1,5.3,3.2c5,1.3,7.7,3.1,7.7,7.3v0.1c0,4.8-3.7,7.6-9,7.6C57.1,114.3,53.4,113,50.4,110.4z
			"/>
		<path class="st0" d="M74.8,89.5h5.8L87,99.9l6.4-10.3h5.8V114h-5.3V98L87,108.5h-0.1L80,98.1V114h-5.3V89.5z"/>
		<path class="st0" d="M113.8,89.4h5l10.5,24.6h-5.6l-2.2-5.5H111l-2.2,5.5h-5.5L113.8,89.4z M119.4,103.7l-3.2-7.9l-3.2,7.9H119.4z
			"/>
		<path class="st0" d="M133.3,89.5h11.2c3.1,0,5.5,0.9,7.1,2.5c1.4,1.4,2.1,3.3,2.1,5.6v0.1c0,3.9-2.1,6.4-5.2,7.6l6,8.7h-6.3
			l-5.2-7.8h-0.1h-4.2v7.8h-5.4V89.5z M144.1,101.4c2.6,0,4.1-1.4,4.1-3.5v-0.1c0-2.3-1.6-3.5-4.2-3.5h-5.3v7H144.1z"/>
		<path class="st0" d="M164.6,94.5h-7.4v-5h20.2v5h-7.4V114h-5.4V94.5z"/>
		<path class="st0" d="M182.1,89.5h18.4v4.8h-13.1v5h11.5v4.8h-11.5v5.1h13.3v4.8h-18.6V89.5z"/>
		<path class="st0" d="M205.9,89.5H217c3.1,0,5.5,0.9,7.1,2.5c1.4,1.4,2.1,3.3,2.1,5.6v0.1c0,3.9-2.1,6.4-5.2,7.6l6,8.7h-6.3
			l-5.2-7.8h-0.1h-4.2v7.8h-5.4V89.5z M216.7,101.4c2.6,0,4.1-1.4,4.1-3.5v-0.1c0-2.3-1.6-3.5-4.2-3.5h-5.3v7H216.7z"/>
		<path class="st0" d="M240.4,89.5h5.8l5.1,16.5l5.5-16.6h4.6l5.5,16.6l5.1-16.5h5.6l-8.3,24.6h-4.7l-5.5-16l-5.5,16h-4.7
			L240.4,89.5z"/>
		<path class="st0" d="M287,89.4h5l10.5,24.6h-5.6l-2.2-5.5h-10.3L282,114h-5.5L287,89.4z M292.6,103.7l-3.2-7.9l-3.2,7.9H292.6z"/>
		<path class="st0" d="M309.1,104.3l-9.4-14.8h6.3l5.8,9.8l5.9-9.8h6.1l-9.4,14.7v9.7h-5.4V104.3z"/>
		<path class="st0" d="M324.8,110.4l3.2-3.8c2.2,1.8,4.5,3,7.3,3c2.2,0,3.5-0.9,3.5-2.3v-0.1c0-1.4-0.8-2.1-4.9-3.1
			c-4.9-1.3-8.1-2.6-8.1-7.5v-0.1c0-4.4,3.6-7.4,8.5-7.4c3.6,0,6.6,1.1,9.1,3.1l-2.8,4c-2.2-1.5-4.3-2.4-6.3-2.4s-3.1,0.9-3.1,2.1
			v0.1c0,1.6,1,2.1,5.3,3.2c5,1.3,7.7,3.1,7.7,7.3v0.1c0,4.8-3.7,7.6-9,7.6C331.4,114.3,327.7,113,324.8,110.4z"/>
		<path class="st0" d="M348.4,108.4h5.7v5.6h-5.7V108.4z"/>
	</g>
	<g>
		<path class="st1" d="M3.6,0.8h5.4v9.7h9.9V0.8h5.4v24.4h-5.4v-9.8H8.9v9.8H3.6V0.8z"/>
		<path class="st1" d="M30,0.8h18.4v4.8H35.3v5h11.5v4.8H35.3v5.1h13.3v4.8H30V0.8z"/>
		<path class="st1" d="M54.3,0.8h5.4v19.5h12.2v4.9H54.3V0.8z"/>
		<path class="st1" d="M76.9,0.8h10c5.8,0,9.3,3.5,9.3,8.4v0.1c0,5.7-4.4,8.6-9.9,8.6h-4.1v7.3h-5.4V0.8z M86.6,13.1
			c2.7,0,4.3-1.6,4.3-3.7V9.3c0-2.4-1.7-3.7-4.4-3.7h-4.2v7.5H86.6z"/>
		<path class="st1" d="M101.1,0.8h5.4v24.4h-5.4V0.8z"/>
		<path class="st1" d="M112.9,0.8h5l11.4,15v-15h5.3v24.4H130L118.2,9.7v15.5h-5.3V0.8z"/>
		<path class="st1" d="M139.6,13.1L139.6,13.1c0-7,5.4-12.7,12.8-12.7c4.4,0,7,1.2,9.6,3.3l-3.4,4.1c-1.9-1.6-3.6-2.5-6.4-2.5
			c-3.9,0-7,3.5-7,7.6V13c0,4.5,3.1,7.7,7.4,7.7c2,0,3.7-0.5,5.1-1.5v-3.5h-5.4v-4.6h10.6v10.6c-2.5,2.1-6,3.9-10.4,3.9
			C144.8,25.6,139.6,20.3,139.6,13.1z"/>
		<path class="st1" d="M179.2,0.8h11.3c2.8,0,5,0.8,6.4,2.2c1.1,1.1,1.7,2.5,1.7,4.2v0.1c0,2.8-1.5,4.3-3.2,5.3
			c2.8,1.1,4.6,2.7,4.6,6v0.1c0,4.5-3.6,6.7-9.1,6.7h-11.6V0.8z M189.3,10.7c2.4,0,3.9-0.8,3.9-2.6V8c0-1.6-1.3-2.5-3.5-2.5h-5.3
			v5.2H189.3z M190.8,20.5c2.4,0,3.8-0.8,3.8-2.7v-0.1c0-1.6-1.2-2.7-4-2.7h-6.2v5.4H190.8z"/>
		<path class="st1" d="M204.7,0.8h11.2c3.1,0,5.5,0.9,7.1,2.5c1.4,1.4,2.1,3.3,2.1,5.6v0.1c0,3.9-2.1,6.4-5.2,7.6l6,8.7h-6.3
			l-5.2-7.8h-0.1h-4.2v7.8h-5.4V0.8z M215.5,12.6c2.6,0,4.1-1.4,4.1-3.5V9.1c0-2.3-1.6-3.5-4.2-3.5h-5.3v7H215.5z"/>
		<path class="st1" d="M239.1,0.6h5l10.5,24.6h-5.6l-2.2-5.5h-10.3l-2.2,5.5h-5.5L239.1,0.6z M244.8,15l-3.2-7.9l-3.2,7.9H244.8z"/>
		<path class="st1" d="M258.3,0.8h5l11.4,15v-15h5.3v24.4h-4.6L263.6,9.7v15.5h-5.3V0.8z"/>
		<path class="st1" d="M286,0.8h9.5c7.7,0,13,5.3,13,12.1V13c0,6.9-5.3,12.2-13,12.2H286V0.8z M295.5,20.3c4.4,0,7.4-3,7.4-7.3V13
			c0-4.3-3-7.4-7.4-7.4h-4.2v14.7H295.5z"/>
		<path class="st1" d="M311.6,21.6l3.2-3.8c2.2,1.8,4.5,3,7.3,3c2.2,0,3.5-0.9,3.5-2.3v-0.1c0-1.4-0.8-2.1-4.9-3.1
			c-4.9-1.3-8.1-2.6-8.1-7.5V7.8c0-4.4,3.6-7.4,8.5-7.4c3.6,0,6.6,1.1,9.1,3.1l-2.8,4c-2.2-1.5-4.3-2.4-6.3-2.4
			c-2.1,0-3.1,0.9-3.1,2.1v0.1c0,1.6,1,2.1,5.3,3.2c5,1.3,7.7,3.1,7.7,7.3V18c0,4.8-3.7,7.6-9,7.6C318.3,25.5,314.5,24.3,311.6,21.6
			z"/>
		<path class="st1" d="M9.3,49.3H1.8v-5h20.2v5h-7.4v19.5H9.3V49.3z"/>
		<path class="st1" d="M26.3,44.4h18.4v4.8H31.7v5h11.5v4.8H31.7V64h13.3v4.8H26.3V44.4z"/>
		<path class="st1" d="M50,44.4h5.4v19.5h12.2v4.9H50V44.4z"/>
		<path class="st1" d="M72.2,44.4h5.4v19.5h12.2v4.9H72.2V44.4z"/>
		<path class="st1" d="M110.7,49.3h-7.4v-5h20.2v5H116v19.5h-5.4V49.3z"/>
		<path class="st1" d="M127.9,44.4h5.4V54h9.9v-9.7h5.4v24.4h-5.4V59h-9.9v9.8h-5.4V44.4z"/>
		<path class="st1" d="M154.8,44.4h18.4v4.8h-13.1v5h11.5v4.8h-11.5V64h13.3v4.8h-18.6V44.4z"/>
		<path class="st1" d="M178.7,44.4h5.4v24.4h-5.4V44.4z"/>
		<path class="st1" d="M190.6,44.4h11.2c3.1,0,5.5,0.9,7.1,2.5c1.4,1.4,2.1,3.3,2.1,5.6v0.1c0,3.9-2.1,6.4-5.2,7.6l6,8.7h-6.3
			l-5.2-7.8h-0.1h-4.2v7.8h-5.4V44.4z M201.4,56.2c2.6,0,4.1-1.4,4.1-3.5v-0.1c0-2.3-1.6-3.5-4.2-3.5h-5.3v7H201.4z"/>
		<path class="st1" d="M225.3,65.2l3.2-3.8c2.2,1.8,4.5,3,7.3,3c2.2,0,3.5-0.9,3.5-2.3V62c0-1.4-0.8-2.1-4.9-3.1
			c-4.9-1.3-8.1-2.6-8.1-7.5v-0.1c0-4.4,3.6-7.4,8.5-7.4c3.6,0,6.6,1.1,9.1,3.1l-2.8,4c-2.2-1.5-4.3-2.4-6.3-2.4s-3.1,0.9-3.1,2.1
			V51c0,1.6,1,2.1,5.3,3.2c5,1.3,7.7,3.1,7.7,7.3v0.1c0,4.8-3.7,7.6-9,7.6C231.9,69.1,228.2,67.9,225.3,65.2z"/>
		<path class="st1" d="M255.1,49.3h-7.4v-5h20.2v5h-7.4v19.5h-5.4V49.3z"/>
		<path class="st1" d="M270.2,56.7L270.2,56.7c0-7,5.5-12.7,13-12.7c7.5,0,12.9,5.6,12.9,12.6v0.1c0,6.9-5.5,12.6-13,12.6
			C275.7,69.2,270.2,63.6,270.2,56.7z M290.6,56.7L290.6,56.7c0-4.3-3.1-7.7-7.4-7.7c-4.3,0-7.3,3.4-7.3,7.6v0.1
			c0,4.2,3.1,7.7,7.4,7.7C287.6,64.3,290.6,60.8,290.6,56.7z"/>
		<path class="st1" d="M301.3,44.4h11.2c3.1,0,5.5,0.9,7.1,2.5c1.4,1.4,2.1,3.3,2.1,5.6v0.1c0,3.9-2.1,6.4-5.2,7.6l6,8.7h-6.3
			l-5.2-7.8h-0.1h-4.2v7.8h-5.4V44.4z M312.1,56.2c2.6,0,4.1-1.4,4.1-3.5v-0.1c0-2.3-1.6-3.5-4.2-3.5h-5.3v7H312.1z"/>
		<path class="st1" d="M327.1,44.4h5.4v24.4h-5.4V44.4z"/>
		<path class="st1" d="M338.6,44.4H357v4.8h-13.1v5h11.5v4.8h-11.5V64h13.3v4.8h-18.6V44.4z"/>
		<path class="st1" d="M360.7,65.2l3.2-3.8c2.2,1.8,4.5,3,7.3,3c2.2,0,3.5-0.9,3.5-2.3V62c0-1.4-0.8-2.1-4.9-3.1
			c-4.9-1.3-8.1-2.6-8.1-7.5v-0.1c0-4.4,3.6-7.4,8.5-7.4c3.6,0,6.6,1.1,9.1,3.1l-2.8,4c-2.2-1.5-4.3-2.4-6.3-2.4
			c-2.1,0-3.1,0.9-3.1,2.1V51c0,1.6,1,2.1,5.3,3.2c5,1.3,7.7,3.1,7.7,7.3v0.1c0,4.8-3.7,7.6-9,7.6C367.3,69.1,363.6,67.9,360.7,65.2
			z"/>
		<path class="st1" d="M3.8,88h5.4v24.4H3.8V88z"/>
		<path class="st1" d="M15.2,88h5l11.4,15V88h5.3v24.4h-4.6L20.5,96.9v15.5h-5.3V88z"/>
		<path class="st1" d="M52.3,108.8l3.2-3.8c2.2,1.8,4.5,3,7.3,3c2.2,0,3.5-0.9,3.5-2.3v-0.1c0-1.4-0.8-2.1-4.9-3.1
			c-4.9-1.3-8.1-2.6-8.1-7.5V95c0-4.4,3.6-7.4,8.5-7.4c3.6,0,6.6,1.1,9.1,3.1l-2.8,4c-2.2-1.5-4.3-2.4-6.3-2.4
			c-2.1,0-3.1,0.9-3.1,2.1v0.1c0,1.6,1,2.1,5.3,3.2c5,1.3,7.7,3.1,7.7,7.3v0.1c0,4.8-3.7,7.6-9,7.6
			C58.9,112.7,55.2,111.5,52.3,108.8z"/>
		<path class="st1" d="M76.6,88h5.8l6.4,10.3L95.2,88h5.8v24.4h-5.3V96.5l-6.9,10.4h-0.1l-6.8-10.3v15.8h-5.3V88z"/>
		<path class="st1" d="M115.6,87.8h5l10.5,24.6h-5.6l-2.2-5.5h-10.3l-2.2,5.5h-5.5L115.6,87.8z M121.3,102.2l-3.2-7.9l-3.2,7.9
			H121.3z"/>
		<path class="st1" d="M135.1,88h11.2c3.1,0,5.5,0.9,7.1,2.5c1.4,1.4,2.1,3.3,2.1,5.6v0.1c0,3.9-2.1,6.4-5.2,7.6l6,8.7H150l-5.2-7.8
			h-0.1h-4.2v7.8h-5.4V88z M145.9,99.8c2.6,0,4.1-1.4,4.1-3.5v-0.1c0-2.3-1.6-3.5-4.2-3.5h-5.3v7H145.9z"/>
		<path class="st1" d="M166.4,92.9H159v-5h20.2v5h-7.4v19.5h-5.4V92.9z"/>
		<path class="st1" d="M183.9,88h18.4v4.8h-13.1v5h11.5v4.8h-11.5v5.1h13.3v4.8h-18.6V88z"/>
		<path class="st1" d="M207.7,88h11.2c3.1,0,5.5,0.9,7.1,2.5c1.4,1.4,2.1,3.3,2.1,5.6v0.1c0,3.9-2.1,6.4-5.2,7.6l6,8.7h-6.3
			l-5.2-7.8h-0.1h-4.2v7.8h-5.4V88z M218.5,99.8c2.6,0,4.1-1.4,4.1-3.5v-0.1c0-2.3-1.6-3.5-4.2-3.5h-5.3v7H218.5z"/>
		<path class="st1" d="M242.2,88h5.8l5.1,16.5l5.5-16.6h4.6l5.5,16.6l5.1-16.5h5.6l-8.3,24.6h-4.7l-5.5-16l-5.5,16h-4.7L242.2,88z"
			/>
		<path class="st1" d="M288.8,87.8h5l10.5,24.6h-5.6l-2.2-5.5H286l-2.2,5.5h-5.5L288.8,87.8z M294.5,102.2l-3.2-7.9l-3.2,7.9H294.5z
			"/>
		<path class="st1" d="M311,102.8L301.6,88h6.3l5.8,9.8l5.9-9.8h6.1l-9.4,14.7v9.7H311V102.8z"/>
		<path class="st1" d="M326.6,108.8l3.2-3.8c2.2,1.8,4.5,3,7.3,3c2.2,0,3.5-0.9,3.5-2.3v-0.1c0-1.4-0.8-2.1-4.9-3.1
			c-4.9-1.3-8.1-2.6-8.1-7.5V95c0-4.4,3.6-7.4,8.5-7.4c3.6,0,6.6,1.1,9.1,3.1l-2.8,4c-2.2-1.5-4.3-2.4-6.3-2.4s-3.1,0.9-3.1,2.1v0.1
			c0,1.6,1,2.1,5.3,3.2c5,1.3,7.7,3.1,7.7,7.3v0.1c0,4.8-3.7,7.6-9,7.6C333.3,112.7,329.5,111.5,326.6,108.8z"/>
		<path class="st1" d="M350.2,106.8h5.7v5.6h-5.7V106.8z"/>
	</g>
</g>
</svg>
